<ttFont>
    <TTGlyph name=".notdef" xMin="50" yMin="0" xMax="943" yMax="1400">
      <contour>
        <pt x="273" y="1127" on="1"/>
        <pt x="291" y="1145" on="0"/>
        <pt x="335" y="1181" on="0"/>
        <pt x="389" y="1208" on="0"/>
        <pt x="454" y="1225" on="0"/>
        <pt x="492" y="1225" on="1"/>
        <pt x="537" y="1225" on="0"/>
        <pt x="622" y="1197" on="0"/>
        <pt x="686" y="1144" on="0"/>
        <pt x="725" y="1067" on="0"/>
        <pt x="725" y="1019" on="1"/>
        <pt x="725" y="965" on="0"/>
        <pt x="690" y="885" on="0"/>
        <pt x="637" y="825" on="0"/>
        <pt x="575" y="779" on="0"/>
        <pt x="521" y="738" on="0"/>
        <pt x="485" y="697" on="0"/>
        <pt x="484" y="671" on="1"/>
        <pt x="479" y="548" on="1"/>
        <pt x="463" y="548" on="1"/>
        <pt x="463" y="673" on="1"/>
        <pt x="463" y="701" on="0"/>
        <pt x="498" y="745" on="0"/>
        <pt x="552" y="787" on="0"/>
        <pt x="613" y="832" on="0"/>
        <pt x="667" y="890" on="0"/>
        <pt x="702" y="966" on="0"/>
        <pt x="702" y="1018" on="1"/>
        <pt x="702" y="1062" on="0"/>
        <pt x="667" y="1132" on="0"/>
        <pt x="608" y="1180" on="0"/>
        <pt x="532" y="1205" on="0"/>
        <pt x="492" y="1205" on="1"/>
        <pt x="442" y="1205" on="0"/>
        <pt x="367" y="1177" on="0"/>
        <pt x="316" y="1143" on="0"/>
        <pt x="289" y="1115" on="0"/>
        <pt x="286" y="1115" on="1"/>
        <pt x="282" y="1115" on="0"/>
        <pt x="279" y="1118" on="1"/>
      </contour>
      <contour>
        <pt x="422" y="241" on="1"/>
        <pt x="422" y="262" on="0"/>
        <pt x="450" y="292" on="0"/>
        <pt x="471" y="292" on="1"/>
        <pt x="491" y="292" on="0"/>
        <pt x="520" y="262" on="0"/>
        <pt x="520" y="241" on="1"/>
        <pt x="520" y="221" on="0"/>
        <pt x="491" y="192" on="0"/>
        <pt x="471" y="192" on="1"/>
        <pt x="450" y="192" on="0"/>
        <pt x="422" y="221" on="0"/>
      </contour>
      <contour>
        <pt x="50" y="1400" on="1"/>
        <pt x="943" y="1400" on="1"/>
        <pt x="943" y="0" on="1"/>
        <pt x="50" y="0" on="1"/>
      </contour>
      <contour>
        <pt x="70" y="20" on="1"/>
        <pt x="923" y="20" on="1"/>
        <pt x="923" y="1380" on="1"/>
        <pt x="70" y="1380" on="1"/>
      </contour>
    </TTGlyph>
    <TTGlyph name="A" xMin="20" yMin="0" xMax="1208" yMax="1400">
      <contour>
        <pt x="1208" y="0" on="1"/>
        <pt x="1190" y="0" on="1"/>
        <pt x="1181" y="0" on="0"/>
        <pt x="1178" y="10" on="1"/>
        <pt x="983" y="478" on="1"/>
        <pt x="245" y="478" on="1"/>
        <pt x="50" y="10" on="1"/>
        <pt x="47" y="0" on="0"/>
        <pt x="36" y="0" on="1"/>
        <pt x="20" y="0" on="1"/>
        <pt x="604" y="1400" on="1"/>
        <pt x="624" y="1400" on="1"/>
      </contour>
      <contour>
        <pt x="253" y="498" on="1"/>
        <pt x="975" y="498" on="1"/>
        <pt x="630" y="1326" on="1"/>
        <pt x="625" y="1337" on="0"/>
        <pt x="618" y="1356" on="0"/>
        <pt x="614" y="1367" on="1"/>
        <pt x="610" y="1356" on="0"/>
        <pt x="603" y="1337" on="0"/>
        <pt x="598" y="1326" on="1"/>
      </contour>
    </TTGlyph>
    <TTGlyph name="AE" xMin="-14" yMin="0" xMax="1698" yMax="1400">
      <contour>
        <pt x="790" y="1400" on="1"/>
        <pt x="1696" y="1400" on="1"/>
        <pt x="1696" y="1378" on="1"/>
        <pt x="823" y="1378" on="1"/>
        <pt x="908" y="722" on="1"/>
        <pt x="1576" y="722" on="1"/>
        <pt x="1576" y="700" on="1"/>
        <pt x="911" y="700" on="1"/>
        <pt x="999" y="22" on="1"/>
        <pt x="1698" y="22" on="1"/>
        <pt x="1696" y="0" on="1"/>
        <pt x="980" y="0" on="1"/>
        <pt x="918" y="478" on="1"/>
        <pt x="289" y="478" on="1"/>
        <pt x="19" y="8" on="1"/>
        <pt x="15" y="0" on="0"/>
        <pt x="6" y="0" on="1"/>
        <pt x="-14" y="0" on="1"/>
      </contour>
      <contour>
        <pt x="300" y="498" on="1"/>
        <pt x="915" y="498" on="1"/>
        <pt x="801" y="1378" on="1"/>
        <pt x="796" y="1364" on="0"/>
        <pt x="785" y="1341" on="0"/>
        <pt x="776" y="1326" on="1"/>
      </contour>
    </TTGlyph>
    <TTGlyph name="Aacute" xMin="20" yMin="0" xMax="1208" yMax="1760">
      <contour>
        <pt x="858" y="1760" on="1"/>
        <pt x="568" y="1544" on="1"/>
        <pt x="559" y="1538" on="0"/>
        <pt x="550" y="1538" on="1"/>
        <pt x="538" y="1538" on="1"/>
        <pt x="780" y="1746" on="1"/>
        <pt x="789" y="1754" on="0"/>
        <pt x="805" y="1760" on="0"/>
        <pt x="822" y="1760" on="1"/>
      </contour>
      <contour>
        <pt x="1208" y="0" on="1"/>
        <pt x="1190" y="0" on="1"/>
        <pt x="1181" y="0" on="0"/>
        <pt x="1178" y="10" on="1"/>
        <pt x="983" y="478" on="1"/>
        <pt x="245" y="478" on="1"/>
        <pt x="50" y="10" on="1"/>
        <pt x="47" y="0" on="0"/>
        <pt x="36" y="0" on="1"/>
        <pt x="20" y="0" on="1"/>
        <pt x="604" y="1400" on="1"/>
        <pt x="624" y="1400" on="1"/>
      </contour>
      <contour>
        <pt x="253" y="498" on="1"/>
        <pt x="975" y="498" on="1"/>
        <pt x="630" y="1326" on="1"/>
        <pt x="625" y="1337" on="0"/>
        <pt x="618" y="1356" on="0"/>
        <pt x="614" y="1367" on="1"/>
        <pt x="610" y="1356" on="0"/>
        <pt x="603" y="1337" on="0"/>
        <pt x="598" y="1326" on="1"/>
      </contour>
    </TTGlyph>
    <TTGlyph name="Acircumflex" xMin="20" yMin="0" xMax="1208" yMax="1728">
      <contour>
        <pt x="854" y="1538" on="1"/>
        <pt x="834" y="1538" on="1"/>
        <pt x="829" y="1538" on="0"/>
        <pt x="819" y="1541" on="0"/>
        <pt x="814" y="1546" on="1"/>
        <pt x="618" y="1706" on="1"/>
        <pt x="616" y="1707" on="0"/>
        <pt x="615" y="1709" on="0"/>
        <pt x="614" y="1710" on="1"/>
        <pt x="610" y="1706" on="1"/>
        <pt x="414" y="1546" on="1"/>
        <pt x="405" y="1538" on="0"/>
        <pt x="394" y="1538" on="1"/>
        <pt x="374" y="1538" on="1"/>
        <pt x="606" y="1728" on="1"/>
        <pt x="622" y="1728" on="1"/>
      </contour>
      <contour>
        <pt x="1208" y="0" on="1"/>
        <pt x="1190" y="0" on="1"/>
        <pt x="1181" y="0" on="0"/>
        <pt x="1178" y="10" on="1"/>
        <pt x="983" y="478" on="1"/>
        <pt x="245" y="478" on="1"/>
        <pt x="50" y="10" on="1"/>
        <pt x="47" y="0" on="0"/>
        <pt x="36" y="0" on="1"/>
        <pt x="20" y="0" on="1"/>
        <pt x="604" y="1400" on="1"/>
        <pt x="624" y="1400" on="1"/>
      </contour>
      <contour>
        <pt x="253" y="498" on="1"/>
        <pt x="975" y="498" on="1"/>
        <pt x="630" y="1326" on="1"/>
        <pt x="625" y="1337" on="0"/>
        <pt x="618" y="1356" on="0"/>
        <pt x="614" y="1367" on="1"/>
        <pt x="610" y="1356" on="0"/>
        <pt x="603" y="1337" on="0"/>
        <pt x="598" y="1326" on="1"/>
      </contour>
    </TTGlyph>
    <TTGlyph name="Adieresis" xMin="20" yMin="0" xMax="1208" yMax="1720">
      <contour>
        <pt x="466" y="1664" on="1"/>
        <pt x="466" y="1643" on="0"/>
        <pt x="431" y="1610" on="0"/>
        <pt x="410" y="1610" on="1"/>
        <pt x="387" y="1610" on="0"/>
        <pt x="354" y="1643" on="0"/>
        <pt x="354" y="1664" on="1"/>
        <pt x="354" y="1687" on="0"/>
        <pt x="387" y="1720" on="0"/>
        <pt x="410" y="1720" on="1"/>
        <pt x="431" y="1720" on="0"/>
        <pt x="466" y="1687" on="0"/>
      </contour>
      <contour>
        <pt x="874" y="1664" on="1"/>
        <pt x="874" y="1643" on="0"/>
        <pt x="839" y="1610" on="0"/>
        <pt x="818" y="1610" on="1"/>
        <pt x="795" y="1610" on="0"/>
        <pt x="762" y="1643" on="0"/>
        <pt x="762" y="1664" on="1"/>
        <pt x="762" y="1687" on="0"/>
        <pt x="795" y="1720" on="0"/>
        <pt x="818" y="1720" on="1"/>
        <pt x="839" y="1720" on="0"/>
        <pt x="874" y="1687" on="0"/>
      </contour>
      <contour>
        <pt x="1208" y="0" on="1"/>
        <pt x="1190" y="0" on="1"/>
        <pt x="1181" y="0" on="0"/>
        <pt x="1178" y="10" on="1"/>
        <pt x="983" y="478" on="1"/>
        <pt x="245" y="478" on="1"/>
        <pt x="50" y="10" on="1"/>
        <pt x="47" y="0" on="0"/>
        <pt x="36" y="0" on="1"/>
        <pt x="20" y="0" on="1"/>
        <pt x="604" y="1400" on="1"/>
        <pt x="624" y="1400" on="1"/>
      </contour>
      <contour>
        <pt x="253" y="498" on="1"/>
        <pt x="975" y="498" on="1"/>
        <pt x="630" y="1326" on="1"/>
        <pt x="625" y="1337" on="0"/>
        <pt x="618" y="1356" on="0"/>
        <pt x="614" y="1367" on="1"/>
        <pt x="610" y="1356" on="0"/>
        <pt x="603" y="1337" on="0"/>
        <pt x="598" y="1326" on="1"/>
      </contour>
    </TTGlyph>
    <TTGlyph name="Agrave" xMin="20" yMin="0" xMax="1208" yMax="1760">
      <contour>
        <pt x="414" y="1760" on="1"/>
        <pt x="431" y="1760" on="0"/>
        <pt x="447" y="1754" on="0"/>
        <pt x="456" y="1746" on="1"/>
        <pt x="698" y="1538" on="1"/>
        <pt x="686" y="1538" on="1"/>
        <pt x="677" y="1538" on="0"/>
        <pt x="668" y="1544" on="1"/>
        <pt x="378" y="1760" on="1"/>
      </contour>
      <contour>
        <pt x="1208" y="0" on="1"/>
        <pt x="1190" y="0" on="1"/>
        <pt x="1181" y="0" on="0"/>
        <pt x="1178" y="10" on="1"/>
        <pt x="983" y="478" on="1"/>
        <pt x="245" y="478" on="1"/>
        <pt x="50" y="10" on="1"/>
        <pt x="47" y="0" on="0"/>
        <pt x="36" y="0" on="1"/>
        <pt x="20" y="0" on="1"/>
        <pt x="604" y="1400" on="1"/>
        <pt x="624" y="1400" on="1"/>
      </contour>
      <contour>
        <pt x="253" y="498" on="1"/>
        <pt x="975" y="498" on="1"/>
        <pt x="630" y="1326" on="1"/>
        <pt x="625" y="1337" on="0"/>
        <pt x="618" y="1356" on="0"/>
        <pt x="614" y="1367" on="1"/>
        <pt x="610" y="1356" on="0"/>
        <pt x="603" y="1337" on="0"/>
        <pt x="598" y="1326" on="1"/>
      </contour>
    </TTGlyph>
    <TTGlyph name="Aogonek" xMin="20" yMin="-334" xMax="1340" yMax="1400">
      <contour>
        <pt x="1326" y="-270" on="1"/>
        <pt x="1330" y="-270" on="0"/>
        <pt x="1334" y="-274" on="1"/>
        <pt x="1340" y="-280" on="1"/>
        <pt x="1314" y="-306" on="0"/>
        <pt x="1236" y="-334" on="0"/>
        <pt x="1194" y="-334" on="1"/>
        <pt x="1128" y="-334" on="0"/>
        <pt x="1040" y="-264" on="0"/>
        <pt x="1040" y="-196" on="1"/>
        <pt x="1040" y="-163" on="0"/>
        <pt x="1066" y="-103" on="0"/>
        <pt x="1107" y="-52" on="0"/>
        <pt x="1157" y="-11" on="0"/>
        <pt x="1180" y="4" on="1"/>
        <pt x="983" y="478" on="1"/>
        <pt x="245" y="478" on="1"/>
        <pt x="50" y="10" on="1"/>
        <pt x="47" y="0" on="0"/>
        <pt x="36" y="0" on="1"/>
        <pt x="20" y="0" on="1"/>
        <pt x="604" y="1400" on="1"/>
        <pt x="624" y="1400" on="1"/>
        <pt x="1208" y="0" on="1"/>
        <pt x="1188" y="-11" on="0"/>
        <pt x="1137" y="-48" on="0"/>
        <pt x="1092" y="-98" on="0"/>
        <pt x="1062" y="-160" on="0"/>
        <pt x="1062" y="-196" on="1"/>
        <pt x="1062" y="-252" on="0"/>
        <pt x="1139" y="-314" on="0"/>
        <pt x="1196" y="-314" on="1"/>
        <pt x="1228" y="-314" on="0"/>
        <pt x="1273" y="-300" on="0"/>
        <pt x="1303" y="-284" on="0"/>
        <pt x="1321" y="-270" on="0"/>
      </contour>
      <contour>
        <pt x="253" y="498" on="1"/>
        <pt x="975" y="498" on="1"/>
        <pt x="630" y="1326" on="1"/>
        <pt x="625" y="1337" on="0"/>
        <pt x="617" y="1356" on="0"/>
        <pt x="614" y="1367" on="1"/>
        <pt x="610" y="1356" on="0"/>
        <pt x="603" y="1337" on="0"/>
        <pt x="598" y="1326" on="1"/>
      </contour>
    </TTGlyph>
    <TTGlyph name="Aring" xMin="20" yMin="0" xMax="1208" yMax="1748">
      <contour>
        <pt x="466" y="1604" on="1"/>
        <pt x="466" y="1635" on="0"/>
        <pt x="489" y="1687" on="0"/>
        <pt x="529" y="1726" on="0"/>
        <pt x="583" y="1748" on="0"/>
        <pt x="614" y="1748" on="1"/>
        <pt x="645" y="1748" on="0"/>
        <pt x="699" y="1726" on="0"/>
        <pt x="739" y="1687" on="0"/>
        <pt x="762" y="1635" on="0"/>
        <pt x="762" y="1604" on="1"/>
        <pt x="762" y="1573" on="0"/>
        <pt x="739" y="1521" on="0"/>
        <pt x="699" y="1482" on="0"/>
        <pt x="645" y="1460" on="0"/>
        <pt x="614" y="1460" on="1"/>
        <pt x="583" y="1460" on="0"/>
        <pt x="529" y="1482" on="0"/>
        <pt x="489" y="1521" on="0"/>
        <pt x="466" y="1573" on="0"/>
      </contour>
      <contour>
        <pt x="488" y="1604" on="1"/>
        <pt x="488" y="1577" on="0"/>
        <pt x="507" y="1531" on="0"/>
        <pt x="541" y="1497" on="0"/>
        <pt x="587" y="1478" on="0"/>
        <pt x="614" y="1478" on="1"/>
        <pt x="641" y="1478" on="0"/>
        <pt x="687" y="1497" on="0"/>
        <pt x="721" y="1531" on="0"/>
        <pt x="740" y="1577" on="0"/>
        <pt x="740" y="1604" on="1"/>
        <pt x="740" y="1631" on="0"/>
        <pt x="721" y="1677" on="0"/>
        <pt x="687" y="1711" on="0"/>
        <pt x="641" y="1730" on="0"/>
        <pt x="614" y="1730" on="1"/>
        <pt x="587" y="1730" on="0"/>
        <pt x="541" y="1711" on="0"/>
        <pt x="507" y="1677" on="0"/>
        <pt x="488" y="1631" on="0"/>
      </contour>
      <contour>
        <pt x="1208" y="0" on="1"/>
        <pt x="1190" y="0" on="1"/>
        <pt x="1181" y="0" on="0"/>
        <pt x="1178" y="10" on="1"/>
        <pt x="983" y="478" on="1"/>
        <pt x="245" y="478" on="1"/>
        <pt x="50" y="10" on="1"/>
        <pt x="47" y="0" on="0"/>
        <pt x="36" y="0" on="1"/>
        <pt x="20" y="0" on="1"/>
        <pt x="604" y="1400" on="1"/>
        <pt x="624" y="1400" on="1"/>
      </contour>
      <contour>
        <pt x="253" y="498" on="1"/>
        <pt x="975" y="498" on="1"/>
        <pt x="630" y="1326" on="1"/>
        <pt x="625" y="1337" on="0"/>
        <pt x="618" y="1356" on="0"/>
        <pt x="614" y="1367" on="1"/>
        <pt x="610" y="1356" on="0"/>
        <pt x="603" y="1337" on="0"/>
        <pt x="598" y="1326" on="1"/>
      </contour>
    </TTGlyph>
    <TTGlyph name="Atilde" xMin="20" yMin="0" xMax="1208" yMax="1692">
      <contour>
        <pt x="732" y="1576" on="1"/>
        <pt x="782" y="1576" on="0"/>
        <pt x="830" y="1642" on="0"/>
        <pt x="832" y="1690" on="1"/>
        <pt x="848" y="1690" on="1"/>
        <pt x="848" y="1663" on="0"/>
        <pt x="834" y="1614" on="0"/>
        <pt x="806" y="1578" on="0"/>
        <pt x="762" y="1556" on="0"/>
        <pt x="732" y="1556" on="1"/>
        <pt x="700" y="1556" on="0"/>
        <pt x="644" y="1592" on="0"/>
        <pt x="590" y="1636" on="0"/>
        <pt x="537" y="1672" on="0"/>
        <pt x="508" y="1672" on="1"/>
        <pt x="484" y="1672" on="0"/>
        <pt x="447" y="1654" on="0"/>
        <pt x="422" y="1623" on="0"/>
        <pt x="409" y="1581" on="0"/>
        <pt x="408" y="1558" on="1"/>
        <pt x="390" y="1558" on="1"/>
        <pt x="390" y="1585" on="0"/>
        <pt x="405" y="1634" on="0"/>
        <pt x="435" y="1670" on="0"/>
        <pt x="479" y="1692" on="0"/>
        <pt x="508" y="1692" on="1"/>
        <pt x="541" y="1692" on="0"/>
        <pt x="597" y="1656" on="0"/>
        <pt x="650" y="1612" on="0"/>
        <pt x="703" y="1576" on="0"/>
      </contour>
      <contour>
        <pt x="1208" y="0" on="1"/>
        <pt x="1190" y="0" on="1"/>
        <pt x="1181" y="0" on="0"/>
        <pt x="1178" y="10" on="1"/>
        <pt x="983" y="478" on="1"/>
        <pt x="245" y="478" on="1"/>
        <pt x="50" y="10" on="1"/>
        <pt x="47" y="0" on="0"/>
        <pt x="36" y="0" on="1"/>
        <pt x="20" y="0" on="1"/>
        <pt x="604" y="1400" on="1"/>
        <pt x="624" y="1400" on="1"/>
      </contour>
      <contour>
        <pt x="253" y="498" on="1"/>
        <pt x="975" y="498" on="1"/>
        <pt x="630" y="1326" on="1"/>
        <pt x="625" y="1337" on="0"/>
        <pt x="618" y="1356" on="0"/>
        <pt x="614" y="1367" on="1"/>
        <pt x="610" y="1356" on="0"/>
        <pt x="603" y="1337" on="0"/>
        <pt x="598" y="1326" on="1"/>
      </contour>
    </TTGlyph>
    <TTGlyph name="B" xMin="240" yMin="0" xMax="1112" yMax="1400">
      <contour>
        <pt x="240" y="0" on="1"/>
        <pt x="240" y="1400" on="1"/>
        <pt x="604" y="1400" on="1"/>
        <pt x="827" y="1400" on="0"/>
        <pt x="1046" y="1221" on="0"/>
        <pt x="1046" y="1052" on="1"/>
        <pt x="1046" y="990" on="0"/>
        <pt x="997" y="874" on="0"/>
        <pt x="912" y="782" on="0"/>
        <pt x="794" y="721" on="0"/>
        <pt x="725" y="714" on="1"/>
        <pt x="814" y="707" on="0"/>
        <pt x="957" y="654" on="0"/>
        <pt x="1058" y="565" on="0"/>
        <pt x="1112" y="443" on="0"/>
        <pt x="1112" y="368" on="1"/>
        <pt x="1112" y="279" on="0"/>
        <pt x="1051" y="141" on="0"/>
        <pt x="934" y="48" on="0"/>
        <pt x="765" y="0" on="0"/>
        <pt x="658" y="0" on="1"/>
      </contour>
      <contour>
        <pt x="264" y="700" on="1"/>
        <pt x="264" y="20" on="1"/>
        <pt x="658" y="20" on="1"/>
        <pt x="759" y="20" on="0"/>
        <pt x="919" y="64" on="0"/>
        <pt x="1030" y="151" on="0"/>
        <pt x="1088" y="282" on="0"/>
        <pt x="1088" y="368" on="1"/>
        <pt x="1088" y="444" on="0"/>
        <pt x="1027" y="567" on="0"/>
        <pt x="916" y="654" on="0"/>
        <pt x="757" y="700" on="0"/>
        <pt x="660" y="700" on="1"/>
      </contour>
      <contour>
        <pt x="264" y="720" on="1"/>
        <pt x="614" y="720" on="1"/>
        <pt x="726" y="720" on="0"/>
        <pt x="882" y="782" on="0"/>
        <pt x="980" y="879" on="0"/>
        <pt x="1024" y="996" on="0"/>
        <pt x="1024" y="1052" on="1"/>
        <pt x="1024" y="1208" on="0"/>
        <pt x="817" y="1380" on="0"/>
        <pt x="604" y="1380" on="1"/>
        <pt x="264" y="1380" on="1"/>
      </contour>
    </TTGlyph>
    <TTGlyph name="C" xMin="154" yMin="-16" xMax="1300" yMax="1416">
      <contour>
        <pt x="1284" y="189" on="1"/>
        <pt x="1288" y="189" on="0"/>
        <pt x="1291" y="186" on="1"/>
        <pt x="1300" y="178" on="1"/>
        <pt x="1256" y="135" on="0"/>
        <pt x="1155" y="64" on="0"/>
        <pt x="1035" y="13" on="0"/>
        <pt x="891" y="-16" on="0"/>
        <pt x="804" y="-16" on="1"/>
        <pt x="663" y="-16" on="0"/>
        <pt x="425" y="83" on="0"/>
        <pt x="251" y="269" on="0"/>
        <pt x="154" y="534" on="0"/>
        <pt x="154" y="700" on="1"/>
        <pt x="154" y="860" on="0"/>
        <pt x="251" y="1124" on="0"/>
        <pt x="428" y="1313" on="0"/>
        <pt x="675" y="1416" on="0"/>
        <pt x="824" y="1416" on="1"/>
        <pt x="900" y="1416" on="0"/>
        <pt x="1022" y="1396" on="0"/>
        <pt x="1128" y="1355" on="0"/>
        <pt x="1223" y="1293" on="0"/>
        <pt x="1272" y="1252" on="1"/>
        <pt x="1269" y="1247" on="1"/>
        <pt x="1265" y="1242" on="0"/>
        <pt x="1260" y="1242" on="1"/>
        <pt x="1252" y="1242" on="0"/>
        <pt x="1225" y="1265" on="0"/>
        <pt x="1180" y="1299" on="0"/>
        <pt x="1114" y="1339" on="0"/>
        <pt x="1022" y="1373" on="0"/>
        <pt x="901" y="1396" on="0"/>
        <pt x="824" y="1396" on="1"/>
        <pt x="682" y="1396" on="0"/>
        <pt x="445" y="1299" on="0"/>
        <pt x="274" y="1118" on="0"/>
        <pt x="178" y="860" on="0"/>
        <pt x="178" y="700" on="1"/>
        <pt x="178" y="537" on="0"/>
        <pt x="273" y="279" on="0"/>
        <pt x="441" y="99" on="0"/>
        <pt x="670" y="4" on="0"/>
        <pt x="804" y="4" on="1"/>
        <pt x="889" y="4" on="0"/>
        <pt x="1023" y="28" on="0"/>
        <pt x="1134" y="74" on="0"/>
        <pt x="1229" y="141" on="0"/>
        <pt x="1276" y="184" on="1"/>
        <pt x="1281" y="189" on="0"/>
      </contour>
    </TTGlyph>
    <TTGlyph name="Cacute" xMin="154" yMin="-16" xMax="1300" yMax="1760">
      <component glyphName="C" x="0" y="0" flags="0x204"/>
      <component glyphName="acute.case" x="573" y="0" flags="0x4"/>
    </TTGlyph>
    <TTGlyph name="Ccedilla" xMin="154" yMin="-358" xMax="1300" yMax="1416">
      <contour>
        <pt x="668" y="-296" on="1"/>
        <pt x="672" y="-296" on="0"/>
        <pt x="690" y="-310" on="0"/>
        <pt x="722" y="-326" on="0"/>
        <pt x="769" y="-340" on="0"/>
        <pt x="804" y="-340" on="1"/>
        <pt x="864" y="-340" on="0"/>
        <pt x="932" y="-287" on="0"/>
        <pt x="932" y="-240" on="1"/>
        <pt x="932" y="-209" on="0"/>
        <pt x="902" y="-169" on="0"/>
        <pt x="850" y="-144" on="0"/>
        <pt x="780" y="-131" on="0"/>
        <pt x="740" y="-126" on="1"/>
        <pt x="775" y="-15" on="1"/>
        <pt x="640" y="-10" on="0"/>
        <pt x="412" y="94" on="0"/>
        <pt x="247" y="278" on="0"/>
        <pt x="154" y="538" on="0"/>
        <pt x="154" y="700" on="1"/>
        <pt x="154" y="860" on="0"/>
        <pt x="251" y="1124" on="0"/>
        <pt x="428" y="1313" on="0"/>
        <pt x="675" y="1416" on="0"/>
        <pt x="824" y="1416" on="1"/>
        <pt x="900" y="1416" on="0"/>
        <pt x="1022" y="1396" on="0"/>
        <pt x="1128" y="1355" on="0"/>
        <pt x="1223" y="1293" on="0"/>
        <pt x="1272" y="1252" on="1"/>
        <pt x="1268" y="1246" on="1"/>
        <pt x="1265" y="1242" on="0"/>
        <pt x="1260" y="1242" on="1"/>
        <pt x="1253" y="1242" on="0"/>
        <pt x="1225" y="1265" on="0"/>
        <pt x="1180" y="1299" on="0"/>
        <pt x="1113" y="1339" on="0"/>
        <pt x="1021" y="1373" on="0"/>
        <pt x="900" y="1396" on="0"/>
        <pt x="824" y="1396" on="1"/>
        <pt x="682" y="1396" on="0"/>
        <pt x="445" y="1299" on="0"/>
        <pt x="274" y="1118" on="0"/>
        <pt x="178" y="860" on="0"/>
        <pt x="178" y="700" on="1"/>
        <pt x="178" y="537" on="0"/>
        <pt x="273" y="279" on="0"/>
        <pt x="441" y="99" on="0"/>
        <pt x="670" y="4" on="0"/>
        <pt x="804" y="4" on="1"/>
        <pt x="889" y="4" on="0"/>
        <pt x="1023" y="28" on="0"/>
        <pt x="1134" y="74" on="0"/>
        <pt x="1229" y="141" on="0"/>
        <pt x="1276" y="184" on="1"/>
        <pt x="1281" y="189" on="0"/>
        <pt x="1284" y="189" on="1"/>
        <pt x="1288" y="189" on="0"/>
        <pt x="1291" y="186" on="1"/>
        <pt x="1300" y="178" on="1"/>
        <pt x="1256" y="135" on="0"/>
        <pt x="1155" y="64" on="0"/>
        <pt x="1035" y="13" on="0"/>
        <pt x="891" y="-16" on="0"/>
        <pt x="804" y="-16" on="1"/>
        <pt x="793" y="-16" on="1"/>
        <pt x="763" y="-109" on="1"/>
        <pt x="806" y="-116" on="0"/>
        <pt x="876" y="-134" on="0"/>
        <pt x="926" y="-164" on="0"/>
        <pt x="954" y="-207" on="0"/>
        <pt x="954" y="-238" on="1"/>
        <pt x="954" y="-267" on="0"/>
        <pt x="931" y="-311" on="0"/>
        <pt x="889" y="-342" on="0"/>
        <pt x="832" y="-358" on="0"/>
        <pt x="798" y="-358" on="1"/>
        <pt x="757" y="-358" on="0"/>
        <pt x="677" y="-329" on="0"/>
        <pt x="654" y="-306" on="1"/>
        <pt x="658" y="-302" on="1"/>
        <pt x="664" y="-296" on="0"/>
      </contour>
    </TTGlyph>
    <TTGlyph name="D" xMin="240" yMin="0" xMax="1388" yMax="1400">
      <contour>
        <pt x="1388" y="700" on="1"/>
        <pt x="1388" y="534" on="0"/>
        <pt x="1293" y="274" on="0"/>
        <pt x="1122" y="94" on="0"/>
        <pt x="884" y="0" on="0"/>
        <pt x="740" y="0" on="1"/>
        <pt x="240" y="0" on="1"/>
        <pt x="240" y="1400" on="1"/>
        <pt x="740" y="1400" on="1"/>
        <pt x="884" y="1400" on="0"/>
        <pt x="1122" y="1306" on="0"/>
        <pt x="1293" y="1126" on="0"/>
        <pt x="1388" y="866" on="0"/>
      </contour>
      <contour>
        <pt x="1362" y="700" on="1"/>
        <pt x="1362" y="863" on="0"/>
        <pt x="1271" y="1116" on="0"/>
        <pt x="1107" y="1290" on="0"/>
        <pt x="878" y="1380" on="0"/>
        <pt x="740" y="1380" on="1"/>
        <pt x="264" y="1380" on="1"/>
        <pt x="264" y="20" on="1"/>
        <pt x="740" y="20" on="1"/>
        <pt x="878" y="20" on="0"/>
        <pt x="1107" y="110" on="0"/>
        <pt x="1271" y="284" on="0"/>
        <pt x="1362" y="537" on="0"/>
      </contour>
    </TTGlyph>
    <TTGlyph name="Delta" xMin="20" yMin="0" xMax="1208" yMax="1400">
      <contour>
        <pt x="604" y="1400" on="1"/>
        <pt x="624" y="1400" on="1"/>
        <pt x="1208" y="0" on="1"/>
        <pt x="20" y="0" on="1"/>
      </contour>
      <contour>
        <pt x="54" y="20" on="1"/>
        <pt x="1174" y="20" on="1"/>
        <pt x="630" y="1326" on="1"/>
        <pt x="625" y="1337" on="0"/>
        <pt x="618" y="1356" on="0"/>
        <pt x="614" y="1367" on="1"/>
        <pt x="610" y="1356" on="0"/>
        <pt x="603" y="1337" on="0"/>
        <pt x="598" y="1326" on="1"/>
      </contour>
    </TTGlyph>
    <TTGlyph name="E" xMin="240" yMin="0" xMax="1060" yMax="1400">
      <contour>
        <pt x="1058" y="1400" on="1"/>
        <pt x="1058" y="1378" on="1"/>
        <pt x="264" y="1378" on="1"/>
        <pt x="264" y="722" on="1"/>
        <pt x="938" y="722" on="1"/>
        <pt x="938" y="700" on="1"/>
        <pt x="264" y="700" on="1"/>
        <pt x="264" y="22" on="1"/>
        <pt x="1060" y="22" on="1"/>
        <pt x="1058" y="0" on="1"/>
        <pt x="240" y="0" on="1"/>
        <pt x="240" y="1400" on="1"/>
      </contour>
    </TTGlyph>
    <TTGlyph name="Eacute" xMin="240" yMin="0" xMax="1060" yMax="1760">
      <contour>
        <pt x="900" y="1760" on="1"/>
        <pt x="610" y="1544" on="1"/>
        <pt x="601" y="1538" on="0"/>
        <pt x="592" y="1538" on="1"/>
        <pt x="580" y="1538" on="1"/>
        <pt x="822" y="1746" on="1"/>
        <pt x="831" y="1754" on="0"/>
        <pt x="847" y="1760" on="0"/>
        <pt x="864" y="1760" on="1"/>
      </contour>
      <contour>
        <pt x="1058" y="1400" on="1"/>
        <pt x="1058" y="1378" on="1"/>
        <pt x="264" y="1378" on="1"/>
        <pt x="264" y="722" on="1"/>
        <pt x="938" y="722" on="1"/>
        <pt x="938" y="700" on="1"/>
        <pt x="264" y="700" on="1"/>
        <pt x="264" y="22" on="1"/>
        <pt x="1060" y="22" on="1"/>
        <pt x="1058" y="0" on="1"/>
        <pt x="240" y="0" on="1"/>
        <pt x="240" y="1400" on="1"/>
      </contour>
    </TTGlyph>
    <TTGlyph name="Ecircumflex" xMin="240" yMin="0" xMax="1060" yMax="1728">
      <contour>
        <pt x="896" y="1538" on="1"/>
        <pt x="876" y="1538" on="1"/>
        <pt x="871" y="1538" on="0"/>
        <pt x="861" y="1541" on="0"/>
        <pt x="856" y="1546" on="1"/>
        <pt x="660" y="1706" on="1"/>
        <pt x="656" y="1710" on="1"/>
        <pt x="652" y="1706" on="1"/>
        <pt x="456" y="1546" on="1"/>
        <pt x="451" y="1541" on="0"/>
        <pt x="441" y="1538" on="0"/>
        <pt x="436" y="1538" on="1"/>
        <pt x="416" y="1538" on="1"/>
        <pt x="648" y="1728" on="1"/>
        <pt x="664" y="1728" on="1"/>
      </contour>
      <contour>
        <pt x="1058" y="1400" on="1"/>
        <pt x="1058" y="1378" on="1"/>
        <pt x="264" y="1378" on="1"/>
        <pt x="264" y="722" on="1"/>
        <pt x="938" y="722" on="1"/>
        <pt x="938" y="700" on="1"/>
        <pt x="264" y="700" on="1"/>
        <pt x="264" y="22" on="1"/>
        <pt x="1060" y="22" on="1"/>
        <pt x="1058" y="0" on="1"/>
        <pt x="240" y="0" on="1"/>
        <pt x="240" y="1400" on="1"/>
      </contour>
    </TTGlyph>
    <TTGlyph name="Edieresis" xMin="240" yMin="0" xMax="1060" yMax="1720">
      <contour>
        <pt x="508" y="1664" on="1"/>
        <pt x="508" y="1643" on="0"/>
        <pt x="473" y="1610" on="0"/>
        <pt x="452" y="1610" on="1"/>
        <pt x="429" y="1610" on="0"/>
        <pt x="396" y="1643" on="0"/>
        <pt x="396" y="1664" on="1"/>
        <pt x="396" y="1687" on="0"/>
        <pt x="429" y="1720" on="0"/>
        <pt x="452" y="1720" on="1"/>
        <pt x="473" y="1720" on="0"/>
        <pt x="508" y="1687" on="0"/>
      </contour>
      <contour>
        <pt x="916" y="1664" on="1"/>
        <pt x="916" y="1643" on="0"/>
        <pt x="881" y="1610" on="0"/>
        <pt x="860" y="1610" on="1"/>
        <pt x="837" y="1610" on="0"/>
        <pt x="804" y="1643" on="0"/>
        <pt x="804" y="1664" on="1"/>
        <pt x="804" y="1687" on="0"/>
        <pt x="837" y="1720" on="0"/>
        <pt x="860" y="1720" on="1"/>
        <pt x="881" y="1720" on="0"/>
        <pt x="916" y="1687" on="0"/>
      </contour>
      <contour>
        <pt x="1058" y="1400" on="1"/>
        <pt x="1058" y="1378" on="1"/>
        <pt x="264" y="1378" on="1"/>
        <pt x="264" y="722" on="1"/>
        <pt x="938" y="722" on="1"/>
        <pt x="938" y="700" on="1"/>
        <pt x="264" y="700" on="1"/>
        <pt x="264" y="22" on="1"/>
        <pt x="1060" y="22" on="1"/>
        <pt x="1058" y="0" on="1"/>
        <pt x="240" y="0" on="1"/>
        <pt x="240" y="1400" on="1"/>
      </contour>
    </TTGlyph>
    <TTGlyph name="Egrave" xMin="240" yMin="0" xMax="1060" yMax="1760">
      <contour>
        <pt x="456" y="1760" on="1"/>
        <pt x="473" y="1760" on="0"/>
        <pt x="489" y="1754" on="0"/>
        <pt x="498" y="1746" on="1"/>
        <pt x="740" y="1538" on="1"/>
        <pt x="728" y="1538" on="1"/>
        <pt x="719" y="1538" on="0"/>
        <pt x="710" y="1544" on="1"/>
        <pt x="420" y="1760" on="1"/>
      </contour>
      <contour>
        <pt x="1058" y="1400" on="1"/>
        <pt x="1058" y="1378" on="1"/>
        <pt x="264" y="1378" on="1"/>
        <pt x="264" y="722" on="1"/>
        <pt x="938" y="722" on="1"/>
        <pt x="938" y="700" on="1"/>
        <pt x="264" y="700" on="1"/>
        <pt x="264" y="22" on="1"/>
        <pt x="1060" y="22" on="1"/>
        <pt x="1058" y="0" on="1"/>
        <pt x="240" y="0" on="1"/>
        <pt x="240" y="1400" on="1"/>
      </contour>
    </TTGlyph>
    <TTGlyph name="Eogonek" xMin="240" yMin="-334" xMax="1100" yMax="1400">
      <contour>
        <pt x="1086" y="-270" on="1"/>
        <pt x="1090" y="-270" on="0"/>
        <pt x="1094" y="-274" on="1"/>
        <pt x="1100" y="-280" on="1"/>
        <pt x="1074" y="-306" on="0"/>
        <pt x="996" y="-334" on="0"/>
        <pt x="954" y="-334" on="1"/>
        <pt x="888" y="-334" on="0"/>
        <pt x="800" y="-264" on="0"/>
        <pt x="800" y="-196" on="1"/>
        <pt x="800" y="-164" on="0"/>
        <pt x="824" y="-106" on="0"/>
        <pt x="863" y="-56" on="0"/>
        <pt x="910" y="-15" on="0"/>
        <pt x="933" y="0" on="1"/>
        <pt x="240" y="0" on="1"/>
        <pt x="240" y="1400" on="1"/>
        <pt x="1058" y="1400" on="1"/>
        <pt x="1058" y="1378" on="1"/>
        <pt x="264" y="1378" on="1"/>
        <pt x="264" y="722" on="1"/>
        <pt x="938" y="722" on="1"/>
        <pt x="938" y="700" on="1"/>
        <pt x="264" y="700" on="1"/>
        <pt x="264" y="22" on="1"/>
        <pt x="1060" y="22" on="1"/>
        <pt x="1058" y="0" on="1"/>
        <pt x="968" y="0" on="1"/>
        <pt x="948" y="-11" on="0"/>
        <pt x="897" y="-48" on="0"/>
        <pt x="852" y="-98" on="0"/>
        <pt x="822" y="-160" on="0"/>
        <pt x="822" y="-196" on="1"/>
        <pt x="822" y="-252" on="0"/>
        <pt x="899" y="-314" on="0"/>
        <pt x="956" y="-314" on="1"/>
        <pt x="988" y="-314" on="0"/>
        <pt x="1033" y="-300" on="0"/>
        <pt x="1063" y="-284" on="0"/>
        <pt x="1081" y="-270" on="0"/>
      </contour>
    </TTGlyph>
    <TTGlyph name="Eth" xMin="48" yMin="0" xMax="1428" yMax="1400">
      <contour>
        <pt x="48" y="722" on="1"/>
        <pt x="280" y="722" on="1"/>
        <pt x="280" y="1400" on="1"/>
        <pt x="780" y="1400" on="1"/>
        <pt x="924" y="1400" on="0"/>
        <pt x="1162" y="1306" on="0"/>
        <pt x="1333" y="1126" on="0"/>
        <pt x="1428" y="866" on="0"/>
        <pt x="1428" y="700" on="1"/>
        <pt x="1428" y="534" on="0"/>
        <pt x="1333" y="274" on="0"/>
        <pt x="1162" y="94" on="0"/>
        <pt x="924" y="0" on="0"/>
        <pt x="780" y="0" on="1"/>
        <pt x="280" y="0" on="1"/>
        <pt x="280" y="702" on="1"/>
        <pt x="48" y="702" on="1"/>
      </contour>
      <contour>
        <pt x="1402" y="700" on="1"/>
        <pt x="1402" y="863" on="0"/>
        <pt x="1311" y="1116" on="0"/>
        <pt x="1147" y="1290" on="0"/>
        <pt x="918" y="1380" on="0"/>
        <pt x="780" y="1380" on="1"/>
        <pt x="304" y="1380" on="1"/>
        <pt x="304" y="722" on="1"/>
        <pt x="728" y="722" on="1"/>
        <pt x="728" y="702" on="1"/>
        <pt x="304" y="702" on="1"/>
        <pt x="304" y="20" on="1"/>
        <pt x="780" y="20" on="1"/>
        <pt x="918" y="20" on="0"/>
        <pt x="1147" y="110" on="0"/>
        <pt x="1311" y="284" on="0"/>
        <pt x="1402" y="537" on="0"/>
      </contour>
    </TTGlyph>
    <TTGlyph name="Euro" xMin="28" yMin="-16" xMax="1132" yMax="1414">
      <contour>
        <pt x="28" y="832" on="1"/>
        <pt x="208" y="832" on="1"/>
        <pt x="221" y="970" on="0"/>
        <pt x="305" y="1186" on="0"/>
        <pt x="440" y="1336" on="0"/>
        <pt x="622" y="1414" on="0"/>
        <pt x="734" y="1414" on="1"/>
        <pt x="796" y="1414" on="0"/>
        <pt x="899" y="1394" on="0"/>
        <pt x="989" y="1353" on="0"/>
        <pt x="1069" y="1291" on="0"/>
        <pt x="1108" y="1250" on="1"/>
        <pt x="1104" y="1244" on="1"/>
        <pt x="1101" y="1240" on="0"/>
        <pt x="1096" y="1240" on="1"/>
        <pt x="1091" y="1240" on="0"/>
        <pt x="1069" y="1263" on="0"/>
        <pt x="1032" y="1297" on="0"/>
        <pt x="977" y="1337" on="0"/>
        <pt x="900" y="1371" on="0"/>
        <pt x="798" y="1394" on="0"/>
        <pt x="734" y="1394" on="1"/>
        <pt x="629" y="1394" on="0"/>
        <pt x="456" y="1321" on="0"/>
        <pt x="327" y="1178" on="0"/>
        <pt x="245" y="968" on="0"/>
        <pt x="232" y="832" on="1"/>
        <pt x="880" y="832" on="1"/>
        <pt x="880" y="824" on="1"/>
        <pt x="880" y="818" on="0"/>
        <pt x="875" y="812" on="0"/>
        <pt x="866" y="812" on="1"/>
        <pt x="230" y="812" on="1"/>
        <pt x="228" y="785" on="0"/>
        <pt x="226" y="729" on="0"/>
        <pt x="226" y="700" on="1"/>
        <pt x="226" y="650" on="0"/>
        <pt x="229" y="604" on="1"/>
        <pt x="790" y="604" on="1"/>
        <pt x="790" y="596" on="1"/>
        <pt x="790" y="584" on="0"/>
        <pt x="776" y="584" on="1"/>
        <pt x="231" y="584" on="1"/>
        <pt x="243" y="442" on="0"/>
        <pt x="322" y="225" on="0"/>
        <pt x="451" y="79" on="0"/>
        <pt x="625" y="4" on="0"/>
        <pt x="730" y="4" on="1"/>
        <pt x="798" y="4" on="0"/>
        <pt x="906" y="31" on="0"/>
        <pt x="988" y="72" on="0"/>
        <pt x="1046" y="120" on="0"/>
        <pt x="1087" y="161" on="0"/>
        <pt x="1111" y="188" on="0"/>
        <pt x="1118" y="188" on="1"/>
        <pt x="1122" y="188" on="0"/>
        <pt x="1128" y="182" on="1"/>
        <pt x="1132" y="178" on="1"/>
        <pt x="1096" y="135" on="0"/>
        <pt x="1014" y="64" on="0"/>
        <pt x="915" y="13" on="0"/>
        <pt x="798" y="-16" on="0"/>
        <pt x="728" y="-16" on="1"/>
        <pt x="617" y="-16" on="0"/>
        <pt x="435" y="62" on="0"/>
        <pt x="301" y="214" on="0"/>
        <pt x="218" y="438" on="0"/>
        <pt x="206" y="584" on="1"/>
        <pt x="28" y="584" on="1"/>
        <pt x="28" y="604" on="1"/>
        <pt x="205" y="604" on="1"/>
        <pt x="202" y="650" on="0"/>
        <pt x="202" y="700" on="1"/>
        <pt x="202" y="729" on="0"/>
        <pt x="204" y="785" on="0"/>
        <pt x="206" y="812" on="1"/>
        <pt x="28" y="812" on="1"/>
      </contour>
    </TTGlyph>
    <TTGlyph name="F" xMin="240" yMin="0" xMax="1058" yMax="1400">
      <contour>
        <pt x="1058" y="1400" on="1"/>
        <pt x="1058" y="1378" on="1"/>
        <pt x="264" y="1378" on="1"/>
        <pt x="264" y="702" on="1"/>
        <pt x="958" y="702" on="1"/>
        <pt x="958" y="680" on="1"/>
        <pt x="264" y="680" on="1"/>
        <pt x="264" y="0" on="1"/>
        <pt x="240" y="0" on="1"/>
        <pt x="240" y="1400" on="1"/>
      </contour>
    </TTGlyph>
    <TTGlyph name="G" xMin="154" yMin="-16" xMax="1350" yMax="1416">
      <contour>
        <pt x="822" y="4" on="1"/>
        <pt x="908" y="4" on="0"/>
        <pt x="1047" y="23" on="0"/>
        <pt x="1167" y="60" on="0"/>
        <pt x="1274" y="113" on="0"/>
        <pt x="1328" y="147" on="1"/>
        <pt x="1328" y="582" on="1"/>
        <pt x="1014" y="582" on="1"/>
        <pt x="1002" y="582" on="0"/>
        <pt x="1002" y="592" on="1"/>
        <pt x="1002" y="602" on="1"/>
        <pt x="1350" y="602" on="1"/>
        <pt x="1350" y="138" on="1"/>
        <pt x="1298" y="103" on="0"/>
        <pt x="1187" y="46" on="0"/>
        <pt x="1060" y="6" on="0"/>
        <pt x="911" y="-16" on="0"/>
        <pt x="822" y="-16" on="1"/>
        <pt x="671" y="-16" on="0"/>
        <pt x="425" y="83" on="0"/>
        <pt x="250" y="269" on="0"/>
        <pt x="154" y="534" on="0"/>
        <pt x="154" y="700" on="1"/>
        <pt x="154" y="865" on="0"/>
        <pt x="250" y="1130" on="0"/>
        <pt x="430" y="1316" on="0"/>
        <pt x="685" y="1416" on="0"/>
        <pt x="844" y="1416" on="1"/>
        <pt x="922" y="1416" on="0"/>
        <pt x="1052" y="1397" on="0"/>
        <pt x="1163" y="1357" on="0"/>
        <pt x="1261" y="1297" on="0"/>
        <pt x="1308" y="1255" on="1"/>
        <pt x="1305" y="1250" on="1"/>
        <pt x="1301" y="1245" on="0"/>
        <pt x="1296" y="1245" on="1"/>
        <pt x="1288" y="1245" on="0"/>
        <pt x="1236" y="1292" on="0"/>
        <pt x="1131" y="1349" on="0"/>
        <pt x="965" y="1396" on="0"/>
        <pt x="844" y="1396" on="1"/>
        <pt x="692" y="1396" on="0"/>
        <pt x="446" y="1301" on="0"/>
        <pt x="272" y="1121" on="0"/>
        <pt x="178" y="863" on="0"/>
        <pt x="178" y="700" on="1"/>
        <pt x="178" y="537" on="0"/>
        <pt x="271" y="279" on="0"/>
        <pt x="441" y="99" on="0"/>
        <pt x="678" y="4" on="0"/>
      </contour>
    </TTGlyph>
    <TTGlyph name="H" xMin="240" yMin="0" xMax="1272" yMax="1400">
      <contour>
        <pt x="1272" y="0" on="1"/>
        <pt x="1248" y="0" on="1"/>
        <pt x="1248" y="700" on="1"/>
        <pt x="264" y="700" on="1"/>
        <pt x="264" y="0" on="1"/>
        <pt x="240" y="0" on="1"/>
        <pt x="240" y="1400" on="1"/>
        <pt x="264" y="1400" on="1"/>
        <pt x="264" y="722" on="1"/>
        <pt x="1248" y="722" on="1"/>
        <pt x="1248" y="1400" on="1"/>
        <pt x="1272" y="1400" on="1"/>
      </contour>
    </TTGlyph>
    <TTGlyph name="I" xMin="280" yMin="0" xMax="304" yMax="1400">
      <contour>
        <pt x="304" y="0" on="1"/>
        <pt x="280" y="0" on="1"/>
        <pt x="280" y="1400" on="1"/>
        <pt x="304" y="1400" on="1"/>
      </contour>
    </TTGlyph>
    <TTGlyph name="Iacute" xMin="218" yMin="0" xMax="538" yMax="1760">
      <contour>
        <pt x="538" y="1760" on="1"/>
        <pt x="248" y="1544" on="1"/>
        <pt x="239" y="1538" on="0"/>
        <pt x="230" y="1538" on="1"/>
        <pt x="218" y="1538" on="1"/>
        <pt x="460" y="1746" on="1"/>
        <pt x="469" y="1754" on="0"/>
        <pt x="485" y="1760" on="0"/>
        <pt x="502" y="1760" on="1"/>
      </contour>
      <contour>
        <pt x="304" y="0" on="1"/>
        <pt x="280" y="0" on="1"/>
        <pt x="280" y="1400" on="1"/>
        <pt x="304" y="1400" on="1"/>
      </contour>
    </TTGlyph>
    <TTGlyph name="Icircumflex" xMin="54" yMin="0" xMax="534" yMax="1728">
      <contour>
        <pt x="534" y="1538" on="1"/>
        <pt x="514" y="1538" on="1"/>
        <pt x="509" y="1538" on="0"/>
        <pt x="499" y="1541" on="0"/>
        <pt x="494" y="1546" on="1"/>
        <pt x="298" y="1706" on="1"/>
        <pt x="294" y="1710" on="1"/>
        <pt x="290" y="1706" on="1"/>
        <pt x="94" y="1546" on="1"/>
        <pt x="85" y="1538" on="0"/>
        <pt x="74" y="1538" on="1"/>
        <pt x="54" y="1538" on="1"/>
        <pt x="286" y="1728" on="1"/>
        <pt x="302" y="1728" on="1"/>
      </contour>
      <contour>
        <pt x="304" y="0" on="1"/>
        <pt x="280" y="0" on="1"/>
        <pt x="280" y="1400" on="1"/>
        <pt x="304" y="1400" on="1"/>
      </contour>
    </TTGlyph>
    <TTGlyph name="Idieresis" xMin="34" yMin="0" xMax="554" yMax="1720">
      <contour>
        <pt x="146" y="1664" on="1"/>
        <pt x="146" y="1643" on="0"/>
        <pt x="111" y="1610" on="0"/>
        <pt x="90" y="1610" on="1"/>
        <pt x="67" y="1610" on="0"/>
        <pt x="34" y="1643" on="0"/>
        <pt x="34" y="1664" on="1"/>
        <pt x="34" y="1687" on="0"/>
        <pt x="67" y="1720" on="0"/>
        <pt x="90" y="1720" on="1"/>
        <pt x="111" y="1720" on="0"/>
        <pt x="146" y="1687" on="0"/>
      </contour>
      <contour>
        <pt x="554" y="1664" on="1"/>
        <pt x="554" y="1643" on="0"/>
        <pt x="519" y="1610" on="0"/>
        <pt x="498" y="1610" on="1"/>
        <pt x="475" y="1610" on="0"/>
        <pt x="442" y="1643" on="0"/>
        <pt x="442" y="1664" on="1"/>
        <pt x="442" y="1687" on="0"/>
        <pt x="475" y="1720" on="0"/>
        <pt x="498" y="1720" on="1"/>
        <pt x="519" y="1720" on="0"/>
        <pt x="554" y="1687" on="0"/>
      </contour>
      <contour>
        <pt x="304" y="0" on="1"/>
        <pt x="280" y="0" on="1"/>
        <pt x="280" y="1400" on="1"/>
        <pt x="304" y="1400" on="1"/>
      </contour>
    </TTGlyph>
    <TTGlyph name="Igrave" xMin="58" yMin="0" xMax="378" yMax="1760">
      <contour>
        <pt x="94" y="1760" on="1"/>
        <pt x="111" y="1760" on="0"/>
        <pt x="127" y="1754" on="0"/>
        <pt x="136" y="1746" on="1"/>
        <pt x="378" y="1538" on="1"/>
        <pt x="366" y="1538" on="1"/>
        <pt x="357" y="1538" on="0"/>
        <pt x="348" y="1544" on="1"/>
        <pt x="58" y="1760" on="1"/>
      </contour>
      <contour>
        <pt x="304" y="0" on="1"/>
        <pt x="280" y="0" on="1"/>
        <pt x="280" y="1400" on="1"/>
        <pt x="304" y="1400" on="1"/>
      </contour>
    </TTGlyph>
    <TTGlyph name="J" xMin="114" yMin="-16" xMax="684" yMax="1400">
      <contour>
        <pt x="684" y="452" on="1"/>
        <pt x="684" y="334" on="0"/>
        <pt x="626" y="159" on="0"/>
        <pt x="521" y="42" on="0"/>
        <pt x="374" y="-16" on="0"/>
        <pt x="286" y="-16" on="1"/>
        <pt x="204" y="-16" on="0"/>
        <pt x="114" y="14" on="1"/>
        <pt x="116" y="20" on="1"/>
        <pt x="120" y="30" on="0"/>
        <pt x="128" y="30" on="1"/>
        <pt x="138" y="30" on="0"/>
        <pt x="164" y="22" on="0"/>
        <pt x="201" y="12" on="0"/>
        <pt x="251" y="4" on="0"/>
        <pt x="286" y="4" on="1"/>
        <pt x="371" y="4" on="0"/>
        <pt x="510" y="60" on="0"/>
        <pt x="607" y="172" on="0"/>
        <pt x="660" y="340" on="0"/>
        <pt x="660" y="452" on="1"/>
        <pt x="660" y="1400" on="1"/>
        <pt x="684" y="1400" on="1"/>
      </contour>
    </TTGlyph>
    <TTGlyph name="K" xMin="280" yMin="0" xMax="1236" yMax="1402">
      <contour>
        <pt x="304" y="724" on="1"/>
        <pt x="398" y="724" on="1"/>
        <pt x="417" y="724" on="0"/>
        <pt x="443" y="726" on="0"/>
        <pt x="464" y="733" on="0"/>
        <pt x="484" y="747" on="0"/>
        <pt x="496" y="758" on="1"/>
        <pt x="1148" y="1384" on="1"/>
        <pt x="1159" y="1393" on="0"/>
        <pt x="1173" y="1400" on="0"/>
        <pt x="1184" y="1400" on="1"/>
        <pt x="1196" y="1400" on="1"/>
        <pt x="516" y="748" on="1"/>
        <pt x="500" y="733" on="0"/>
        <pt x="475" y="718" on="0"/>
        <pt x="456" y="714" on="1"/>
        <pt x="474" y="711" on="0"/>
        <pt x="501" y="695" on="0"/>
        <pt x="514" y="682" on="1"/>
        <pt x="1236" y="0" on="1"/>
        <pt x="1226" y="0" on="1"/>
        <pt x="1211" y="0" on="0"/>
        <pt x="1198" y="6" on="0"/>
        <pt x="1190" y="14" on="1"/>
        <pt x="502" y="664" on="1"/>
        <pt x="487" y="678" on="0"/>
        <pt x="465" y="694" on="0"/>
        <pt x="443" y="702" on="0"/>
        <pt x="417" y="704" on="0"/>
        <pt x="398" y="704" on="1"/>
        <pt x="304" y="704" on="1"/>
        <pt x="304" y="0" on="1"/>
        <pt x="280" y="0" on="1"/>
        <pt x="280" y="1402" on="1"/>
        <pt x="304" y="1402" on="1"/>
      </contour>
    </TTGlyph>
    <TTGlyph name="L" xMin="240" yMin="0" xMax="978" yMax="1400">
      <contour>
        <pt x="264" y="22" on="1"/>
        <pt x="978" y="22" on="1"/>
        <pt x="978" y="0" on="1"/>
        <pt x="240" y="0" on="1"/>
        <pt x="240" y="1400" on="1"/>
        <pt x="264" y="1400" on="1"/>
      </contour>
    </TTGlyph>
    <TTGlyph name="Lslash" xMin="70" yMin="0" xMax="1010" yMax="1400">
      <contour>
        <pt x="296" y="650" on="1"/>
        <pt x="740" y="886" on="1"/>
        <pt x="740" y="880" on="1"/>
        <pt x="740" y="874" on="0"/>
        <pt x="737" y="865" on="0"/>
        <pt x="728" y="860" on="1"/>
        <pt x="296" y="628" on="1"/>
        <pt x="296" y="22" on="1"/>
        <pt x="1010" y="22" on="1"/>
        <pt x="1010" y="0" on="1"/>
        <pt x="272" y="0" on="1"/>
        <pt x="272" y="617" on="1"/>
        <pt x="70" y="510" on="1"/>
        <pt x="70" y="518" on="1"/>
        <pt x="70" y="526" on="0"/>
        <pt x="74" y="533" on="0"/>
        <pt x="82" y="538" on="1"/>
        <pt x="272" y="639" on="1"/>
        <pt x="272" y="1400" on="1"/>
        <pt x="296" y="1400" on="1"/>
      </contour>
    </TTGlyph>
    <TTGlyph name="M" xMin="240" yMin="0" xMax="1558" yMax="1400">
      <contour>
        <pt x="898" y="321" on="1"/>
        <pt x="901" y="316" on="0"/>
        <pt x="906" y="307" on="0"/>
        <pt x="909" y="300" on="1"/>
        <pt x="912" y="307" on="0"/>
        <pt x="917" y="316" on="0"/>
        <pt x="920" y="321" on="1"/>
        <pt x="1536" y="1392" on="1"/>
        <pt x="1541" y="1400" on="0"/>
        <pt x="1550" y="1400" on="1"/>
        <pt x="1558" y="1400" on="1"/>
        <pt x="1558" y="0" on="1"/>
        <pt x="1538" y="0" on="1"/>
        <pt x="1538" y="1338" on="1"/>
        <pt x="1538" y="1343" on="0"/>
        <pt x="1538" y="1353" on="0"/>
        <pt x="1539" y="1358" on="1"/>
        <pt x="926" y="290" on="1"/>
        <pt x="919" y="280" on="0"/>
        <pt x="912" y="280" on="1"/>
        <pt x="906" y="280" on="1"/>
        <pt x="899" y="280" on="0"/>
        <pt x="892" y="290" on="1"/>
        <pt x="259" y="1357" on="1"/>
        <pt x="260" y="1352" on="0"/>
        <pt x="260" y="1343" on="0"/>
        <pt x="260" y="1338" on="1"/>
        <pt x="260" y="0" on="1"/>
        <pt x="240" y="0" on="1"/>
        <pt x="240" y="1400" on="1"/>
        <pt x="248" y="1400" on="1"/>
        <pt x="257" y="1400" on="0"/>
        <pt x="262" y="1392" on="1"/>
      </contour>
    </TTGlyph>
    <TTGlyph name="N" xMin="240" yMin="0" xMax="1272" yMax="1400">
      <contour>
        <pt x="248" y="1400" on="1"/>
        <pt x="257" y="1400" on="0"/>
        <pt x="262" y="1392" on="1"/>
        <pt x="1253" y="43" on="1"/>
        <pt x="1252" y="48" on="0"/>
        <pt x="1252" y="59" on="0"/>
        <pt x="1252" y="64" on="1"/>
        <pt x="1252" y="1400" on="1"/>
        <pt x="1272" y="1400" on="1"/>
        <pt x="1272" y="0" on="1"/>
        <pt x="1266" y="0" on="1"/>
        <pt x="1260" y="0" on="0"/>
        <pt x="1255" y="7" on="1"/>
        <pt x="259" y="1362" on="1"/>
        <pt x="260" y="1356" on="0"/>
        <pt x="260" y="1343" on="0"/>
        <pt x="260" y="1338" on="1"/>
        <pt x="260" y="0" on="1"/>
        <pt x="240" y="0" on="1"/>
        <pt x="240" y="1400" on="1"/>
        <pt x="248" y="1400" on="1"/>
      </contour>
    </TTGlyph>
    <TTGlyph name="Nacute" xMin="240" yMin="0" xMax="1272" yMax="1759">
      <component glyphName="N" x="0" y="0" flags="0x204"/>
      <component glyphName="acute.case" x="522" y="-1" flags="0x4"/>
    </TTGlyph>
    <TTGlyph name="Ntilde" xMin="240" yMin="0" xMax="1272" yMax="1690">
      <contour>
        <pt x="920" y="1574" on="1"/>
        <pt x="970" y="1574" on="0"/>
        <pt x="1018" y="1640" on="0"/>
        <pt x="1020" y="1688" on="1"/>
        <pt x="1036" y="1688" on="1"/>
        <pt x="1036" y="1661" on="0"/>
        <pt x="1022" y="1612" on="0"/>
        <pt x="994" y="1576" on="0"/>
        <pt x="950" y="1554" on="0"/>
        <pt x="920" y="1554" on="1"/>
        <pt x="888" y="1554" on="0"/>
        <pt x="832" y="1590" on="0"/>
        <pt x="778" y="1634" on="0"/>
        <pt x="725" y="1670" on="0"/>
        <pt x="696" y="1670" on="1"/>
        <pt x="672" y="1670" on="0"/>
        <pt x="635" y="1652" on="0"/>
        <pt x="610" y="1621" on="0"/>
        <pt x="597" y="1579" on="0"/>
        <pt x="596" y="1556" on="1"/>
        <pt x="578" y="1556" on="1"/>
        <pt x="578" y="1583" on="0"/>
        <pt x="593" y="1632" on="0"/>
        <pt x="623" y="1668" on="0"/>
        <pt x="667" y="1690" on="0"/>
        <pt x="696" y="1690" on="1"/>
        <pt x="729" y="1690" on="0"/>
        <pt x="785" y="1654" on="0"/>
        <pt x="838" y="1610" on="0"/>
        <pt x="891" y="1574" on="0"/>
      </contour>
      <contour>
        <pt x="248" y="1400" on="1"/>
        <pt x="257" y="1400" on="0"/>
        <pt x="262" y="1392" on="1"/>
        <pt x="1253" y="43" on="1"/>
        <pt x="1252" y="48" on="0"/>
        <pt x="1252" y="59" on="0"/>
        <pt x="1252" y="64" on="1"/>
        <pt x="1252" y="1400" on="1"/>
        <pt x="1272" y="1400" on="1"/>
        <pt x="1272" y="0" on="1"/>
        <pt x="1266" y="0" on="1"/>
        <pt x="1260" y="0" on="0"/>
        <pt x="1255" y="7" on="1"/>
        <pt x="259" y="1362" on="1"/>
        <pt x="260" y="1356" on="0"/>
        <pt x="260" y="1343" on="0"/>
        <pt x="260" y="1338" on="1"/>
        <pt x="260" y="0" on="1"/>
        <pt x="240" y="0" on="1"/>
        <pt x="240" y="1400" on="1"/>
        <pt x="248" y="1400" on="1"/>
      </contour>
    </TTGlyph>
    <TTGlyph name="O" xMin="150" yMin="-14" xMax="1444" yMax="1416">
      <contour>
        <pt x="1444" y="700" on="1"/>
        <pt x="1444" y="534" on="0"/>
        <pt x="1349" y="270" on="0"/>
        <pt x="1178" y="85" on="0"/>
        <pt x="940" y="-14" on="0"/>
        <pt x="796" y="-14" on="1"/>
        <pt x="653" y="-14" on="0"/>
        <pt x="416" y="85" on="0"/>
        <pt x="245" y="270" on="0"/>
        <pt x="150" y="534" on="0"/>
        <pt x="150" y="700" on="1"/>
        <pt x="150" y="865" on="0"/>
        <pt x="245" y="1130" on="0"/>
        <pt x="416" y="1316" on="0"/>
        <pt x="653" y="1416" on="0"/>
        <pt x="796" y="1416" on="1"/>
        <pt x="940" y="1416" on="0"/>
        <pt x="1178" y="1317" on="0"/>
        <pt x="1349" y="1131" on="0"/>
        <pt x="1444" y="866" on="0"/>
      </contour>
      <contour>
        <pt x="1418" y="700" on="1"/>
        <pt x="1418" y="863" on="0"/>
        <pt x="1327" y="1121" on="0"/>
        <pt x="1163" y="1301" on="0"/>
        <pt x="934" y="1396" on="0"/>
        <pt x="796" y="1396" on="1"/>
        <pt x="660" y="1396" on="0"/>
        <pt x="432" y="1301" on="0"/>
        <pt x="267" y="1121" on="0"/>
        <pt x="174" y="863" on="0"/>
        <pt x="174" y="700" on="1"/>
        <pt x="174" y="537" on="0"/>
        <pt x="267" y="280" on="0"/>
        <pt x="432" y="101" on="0"/>
        <pt x="660" y="6" on="0"/>
        <pt x="796" y="6" on="1"/>
        <pt x="934" y="6" on="0"/>
        <pt x="1163" y="101" on="0"/>
        <pt x="1327" y="280" on="0"/>
        <pt x="1418" y="537" on="0"/>
      </contour>
    </TTGlyph>
    <TTGlyph name="OE" xMin="150" yMin="-12" xMax="2118" yMax="1416">
      <contour>
        <pt x="2116" y="1400" on="1"/>
        <pt x="2116" y="1378" on="1"/>
        <pt x="1322" y="1378" on="1"/>
        <pt x="1322" y="722" on="1"/>
        <pt x="1996" y="722" on="1"/>
        <pt x="1996" y="700" on="1"/>
        <pt x="1322" y="700" on="1"/>
        <pt x="1322" y="22" on="1"/>
        <pt x="2118" y="22" on="1"/>
        <pt x="2116" y="0" on="1"/>
        <pt x="1300" y="0" on="1"/>
        <pt x="1300" y="499" on="1"/>
        <pt x="1277" y="378" on="0"/>
        <pt x="1177" y="188" on="0"/>
        <pt x="1031" y="57" on="0"/>
        <pt x="843" y="-12" on="0"/>
        <pt x="732" y="-12" on="1"/>
        <pt x="604" y="-12" on="0"/>
        <pt x="390" y="86" on="0"/>
        <pt x="236" y="270" on="0"/>
        <pt x="150" y="534" on="0"/>
        <pt x="150" y="700" on="1"/>
        <pt x="150" y="865" on="0"/>
        <pt x="236" y="1130" on="0"/>
        <pt x="390" y="1316" on="0"/>
        <pt x="604" y="1416" on="0"/>
        <pt x="732" y="1416" on="1"/>
        <pt x="843" y="1416" on="0"/>
        <pt x="1031" y="1346" on="0"/>
        <pt x="1177" y="1213" on="0"/>
        <pt x="1277" y="1022" on="0"/>
        <pt x="1300" y="901" on="1"/>
        <pt x="1300" y="1400" on="1"/>
      </contour>
      <contour>
        <pt x="1298" y="700" on="1"/>
        <pt x="1298" y="863" on="0"/>
        <pt x="1216" y="1121" on="0"/>
        <pt x="1067" y="1301" on="0"/>
        <pt x="860" y="1396" on="0"/>
        <pt x="736" y="1396" on="1"/>
        <pt x="613" y="1396" on="0"/>
        <pt x="407" y="1301" on="0"/>
        <pt x="257" y="1121" on="0"/>
        <pt x="174" y="863" on="0"/>
        <pt x="174" y="700" on="1"/>
        <pt x="174" y="537" on="0"/>
        <pt x="257" y="280" on="0"/>
        <pt x="407" y="102" on="0"/>
        <pt x="613" y="8" on="0"/>
        <pt x="736" y="8" on="1"/>
        <pt x="860" y="8" on="0"/>
        <pt x="1067" y="102" on="0"/>
        <pt x="1216" y="280" on="0"/>
        <pt x="1298" y="537" on="0"/>
      </contour>
    </TTGlyph>
    <TTGlyph name="Oacute" xMin="150" yMin="-14" xMax="1444" yMax="1760">
      <contour>
        <pt x="1042" y="1760" on="1"/>
        <pt x="752" y="1544" on="1"/>
        <pt x="743" y="1538" on="0"/>
        <pt x="734" y="1538" on="1"/>
        <pt x="722" y="1538" on="1"/>
        <pt x="964" y="1746" on="1"/>
        <pt x="973" y="1754" on="0"/>
        <pt x="989" y="1760" on="0"/>
        <pt x="1006" y="1760" on="1"/>
      </contour>
      <contour>
        <pt x="1444" y="700" on="1"/>
        <pt x="1444" y="534" on="0"/>
        <pt x="1349" y="270" on="0"/>
        <pt x="1178" y="85" on="0"/>
        <pt x="940" y="-14" on="0"/>
        <pt x="796" y="-14" on="1"/>
        <pt x="653" y="-14" on="0"/>
        <pt x="416" y="85" on="0"/>
        <pt x="245" y="270" on="0"/>
        <pt x="150" y="534" on="0"/>
        <pt x="150" y="700" on="1"/>
        <pt x="150" y="865" on="0"/>
        <pt x="245" y="1130" on="0"/>
        <pt x="416" y="1316" on="0"/>
        <pt x="653" y="1416" on="0"/>
        <pt x="796" y="1416" on="1"/>
        <pt x="940" y="1416" on="0"/>
        <pt x="1178" y="1317" on="0"/>
        <pt x="1349" y="1131" on="0"/>
        <pt x="1444" y="866" on="0"/>
      </contour>
      <contour>
        <pt x="1418" y="700" on="1"/>
        <pt x="1418" y="863" on="0"/>
        <pt x="1327" y="1121" on="0"/>
        <pt x="1163" y="1301" on="0"/>
        <pt x="934" y="1396" on="0"/>
        <pt x="796" y="1396" on="1"/>
        <pt x="660" y="1396" on="0"/>
        <pt x="432" y="1301" on="0"/>
        <pt x="267" y="1121" on="0"/>
        <pt x="174" y="863" on="0"/>
        <pt x="174" y="700" on="1"/>
        <pt x="174" y="537" on="0"/>
        <pt x="267" y="280" on="0"/>
        <pt x="432" y="101" on="0"/>
        <pt x="660" y="6" on="0"/>
        <pt x="796" y="6" on="1"/>
        <pt x="934" y="6" on="0"/>
        <pt x="1163" y="101" on="0"/>
        <pt x="1327" y="280" on="0"/>
        <pt x="1418" y="537" on="0"/>
      </contour>
    </TTGlyph>
    <TTGlyph name="Ocircumflex" xMin="150" yMin="-14" xMax="1444" yMax="1728">
      <contour>
        <pt x="1038" y="1538" on="1"/>
        <pt x="1018" y="1538" on="1"/>
        <pt x="1013" y="1538" on="0"/>
        <pt x="1003" y="1541" on="0"/>
        <pt x="998" y="1546" on="1"/>
        <pt x="802" y="1706" on="1"/>
        <pt x="798" y="1710" on="1"/>
        <pt x="794" y="1706" on="1"/>
        <pt x="598" y="1546" on="1"/>
        <pt x="589" y="1538" on="0"/>
        <pt x="578" y="1538" on="1"/>
        <pt x="558" y="1538" on="1"/>
        <pt x="790" y="1728" on="1"/>
        <pt x="806" y="1728" on="1"/>
      </contour>
      <contour>
        <pt x="1444" y="700" on="1"/>
        <pt x="1444" y="534" on="0"/>
        <pt x="1349" y="270" on="0"/>
        <pt x="1178" y="85" on="0"/>
        <pt x="940" y="-14" on="0"/>
        <pt x="796" y="-14" on="1"/>
        <pt x="653" y="-14" on="0"/>
        <pt x="416" y="85" on="0"/>
        <pt x="245" y="270" on="0"/>
        <pt x="150" y="534" on="0"/>
        <pt x="150" y="700" on="1"/>
        <pt x="150" y="865" on="0"/>
        <pt x="245" y="1130" on="0"/>
        <pt x="416" y="1316" on="0"/>
        <pt x="653" y="1416" on="0"/>
        <pt x="796" y="1416" on="1"/>
        <pt x="940" y="1416" on="0"/>
        <pt x="1178" y="1317" on="0"/>
        <pt x="1349" y="1131" on="0"/>
        <pt x="1444" y="866" on="0"/>
      </contour>
      <contour>
        <pt x="1418" y="700" on="1"/>
        <pt x="1418" y="863" on="0"/>
        <pt x="1327" y="1121" on="0"/>
        <pt x="1163" y="1301" on="0"/>
        <pt x="934" y="1396" on="0"/>
        <pt x="796" y="1396" on="1"/>
        <pt x="660" y="1396" on="0"/>
        <pt x="432" y="1301" on="0"/>
        <pt x="267" y="1121" on="0"/>
        <pt x="174" y="863" on="0"/>
        <pt x="174" y="700" on="1"/>
        <pt x="174" y="537" on="0"/>
        <pt x="267" y="280" on="0"/>
        <pt x="432" y="101" on="0"/>
        <pt x="660" y="6" on="0"/>
        <pt x="796" y="6" on="1"/>
        <pt x="934" y="6" on="0"/>
        <pt x="1163" y="101" on="0"/>
        <pt x="1327" y="280" on="0"/>
        <pt x="1418" y="537" on="0"/>
      </contour>
    </TTGlyph>
    <TTGlyph name="Odieresis" xMin="150" yMin="-14" xMax="1444" yMax="1720">
      <contour>
        <pt x="650" y="1664" on="1"/>
        <pt x="650" y="1643" on="0"/>
        <pt x="615" y="1610" on="0"/>
        <pt x="594" y="1610" on="1"/>
        <pt x="571" y="1610" on="0"/>
        <pt x="538" y="1643" on="0"/>
        <pt x="538" y="1664" on="1"/>
        <pt x="538" y="1687" on="0"/>
        <pt x="571" y="1720" on="0"/>
        <pt x="594" y="1720" on="1"/>
        <pt x="615" y="1720" on="0"/>
        <pt x="650" y="1687" on="0"/>
      </contour>
      <contour>
        <pt x="1058" y="1664" on="1"/>
        <pt x="1058" y="1643" on="0"/>
        <pt x="1023" y="1610" on="0"/>
        <pt x="1002" y="1610" on="1"/>
        <pt x="979" y="1610" on="0"/>
        <pt x="946" y="1643" on="0"/>
        <pt x="946" y="1664" on="1"/>
        <pt x="946" y="1687" on="0"/>
        <pt x="979" y="1720" on="0"/>
        <pt x="1002" y="1720" on="1"/>
        <pt x="1023" y="1720" on="0"/>
        <pt x="1058" y="1687" on="0"/>
      </contour>
      <contour>
        <pt x="1444" y="700" on="1"/>
        <pt x="1444" y="534" on="0"/>
        <pt x="1349" y="270" on="0"/>
        <pt x="1178" y="85" on="0"/>
        <pt x="940" y="-14" on="0"/>
        <pt x="796" y="-14" on="1"/>
        <pt x="653" y="-14" on="0"/>
        <pt x="416" y="85" on="0"/>
        <pt x="245" y="270" on="0"/>
        <pt x="150" y="534" on="0"/>
        <pt x="150" y="700" on="1"/>
        <pt x="150" y="865" on="0"/>
        <pt x="245" y="1130" on="0"/>
        <pt x="416" y="1316" on="0"/>
        <pt x="653" y="1416" on="0"/>
        <pt x="796" y="1416" on="1"/>
        <pt x="940" y="1416" on="0"/>
        <pt x="1178" y="1317" on="0"/>
        <pt x="1349" y="1131" on="0"/>
        <pt x="1444" y="866" on="0"/>
      </contour>
      <contour>
        <pt x="1418" y="700" on="1"/>
        <pt x="1418" y="863" on="0"/>
        <pt x="1327" y="1121" on="0"/>
        <pt x="1163" y="1301" on="0"/>
        <pt x="934" y="1396" on="0"/>
        <pt x="796" y="1396" on="1"/>
        <pt x="660" y="1396" on="0"/>
        <pt x="432" y="1301" on="0"/>
        <pt x="267" y="1121" on="0"/>
        <pt x="174" y="863" on="0"/>
        <pt x="174" y="700" on="1"/>
        <pt x="174" y="537" on="0"/>
        <pt x="267" y="280" on="0"/>
        <pt x="432" y="101" on="0"/>
        <pt x="660" y="6" on="0"/>
        <pt x="796" y="6" on="1"/>
        <pt x="934" y="6" on="0"/>
        <pt x="1163" y="101" on="0"/>
        <pt x="1327" y="280" on="0"/>
        <pt x="1418" y="537" on="0"/>
      </contour>
    </TTGlyph>
    <TTGlyph name="Ograve" xMin="150" yMin="-14" xMax="1444" yMax="1760">
      <contour>
        <pt x="598" y="1760" on="1"/>
        <pt x="615" y="1760" on="0"/>
        <pt x="631" y="1754" on="0"/>
        <pt x="640" y="1746" on="1"/>
        <pt x="882" y="1538" on="1"/>
        <pt x="870" y="1538" on="1"/>
        <pt x="861" y="1538" on="0"/>
        <pt x="852" y="1544" on="1"/>
        <pt x="562" y="1760" on="1"/>
      </contour>
      <contour>
        <pt x="1444" y="700" on="1"/>
        <pt x="1444" y="534" on="0"/>
        <pt x="1349" y="270" on="0"/>
        <pt x="1178" y="85" on="0"/>
        <pt x="940" y="-14" on="0"/>
        <pt x="796" y="-14" on="1"/>
        <pt x="653" y="-14" on="0"/>
        <pt x="416" y="85" on="0"/>
        <pt x="245" y="270" on="0"/>
        <pt x="150" y="534" on="0"/>
        <pt x="150" y="700" on="1"/>
        <pt x="150" y="865" on="0"/>
        <pt x="245" y="1130" on="0"/>
        <pt x="416" y="1316" on="0"/>
        <pt x="653" y="1416" on="0"/>
        <pt x="796" y="1416" on="1"/>
        <pt x="940" y="1416" on="0"/>
        <pt x="1178" y="1317" on="0"/>
        <pt x="1349" y="1131" on="0"/>
        <pt x="1444" y="866" on="0"/>
      </contour>
      <contour>
        <pt x="1418" y="700" on="1"/>
        <pt x="1418" y="863" on="0"/>
        <pt x="1327" y="1121" on="0"/>
        <pt x="1163" y="1301" on="0"/>
        <pt x="934" y="1396" on="0"/>
        <pt x="796" y="1396" on="1"/>
        <pt x="660" y="1396" on="0"/>
        <pt x="432" y="1301" on="0"/>
        <pt x="267" y="1121" on="0"/>
        <pt x="174" y="863" on="0"/>
        <pt x="174" y="700" on="1"/>
        <pt x="174" y="537" on="0"/>
        <pt x="267" y="280" on="0"/>
        <pt x="432" y="101" on="0"/>
        <pt x="660" y="6" on="0"/>
        <pt x="796" y="6" on="1"/>
        <pt x="934" y="6" on="0"/>
        <pt x="1163" y="101" on="0"/>
        <pt x="1327" y="280" on="0"/>
        <pt x="1418" y="537" on="0"/>
      </contour>
    </TTGlyph>
    <TTGlyph name="Omega" xMin="120" yMin="0" xMax="1404" yMax="1416">
      <contour>
        <pt x="894" y="0" on="1"/>
        <pt x="894" y="298" on="1"/>
        <pt x="1003" y="323" on="0"/>
        <pt x="1180" y="413" on="0"/>
        <pt x="1306" y="546" on="0"/>
        <pt x="1374" y="723" on="0"/>
        <pt x="1374" y="834" on="1"/>
        <pt x="1374" y="976" on="0"/>
        <pt x="1273" y="1187" on="0"/>
        <pt x="1104" y="1327" on="0"/>
        <pt x="883" y="1396" on="0"/>
        <pt x="762" y="1396" on="1"/>
        <pt x="641" y="1396" on="0"/>
        <pt x="420" y="1327" on="0"/>
        <pt x="251" y="1187" on="0"/>
        <pt x="150" y="976" on="0"/>
        <pt x="150" y="834" on="1"/>
        <pt x="150" y="723" on="0"/>
        <pt x="218" y="546" on="0"/>
        <pt x="344" y="413" on="0"/>
        <pt x="521" y="323" on="0"/>
        <pt x="630" y="298" on="1"/>
        <pt x="630" y="0" on="1"/>
        <pt x="132" y="0" on="1"/>
        <pt x="120" y="0" on="0"/>
        <pt x="120" y="12" on="1"/>
        <pt x="120" y="24" on="1"/>
        <pt x="608" y="24" on="1"/>
        <pt x="608" y="285" on="1"/>
        <pt x="509" y="306" on="0"/>
        <pt x="334" y="395" on="0"/>
        <pt x="203" y="532" on="0"/>
        <pt x="126" y="717" on="0"/>
        <pt x="126" y="834" on="1"/>
        <pt x="126" y="979" on="0"/>
        <pt x="229" y="1197" on="0"/>
        <pt x="404" y="1343" on="0"/>
        <pt x="634" y="1416" on="0"/>
        <pt x="762" y="1416" on="1"/>
        <pt x="889" y="1416" on="0"/>
        <pt x="1120" y="1343" on="0"/>
        <pt x="1295" y="1197" on="0"/>
        <pt x="1398" y="979" on="0"/>
        <pt x="1398" y="834" on="1"/>
        <pt x="1398" y="717" on="0"/>
        <pt x="1321" y="532" on="0"/>
        <pt x="1190" y="395" on="0"/>
        <pt x="1015" y="306" on="0"/>
        <pt x="916" y="285" on="1"/>
        <pt x="916" y="24" on="1"/>
        <pt x="1404" y="24" on="1"/>
        <pt x="1404" y="12" on="1"/>
        <pt x="1404" y="0" on="0"/>
        <pt x="1392" y="0" on="1"/>
      </contour>
    </TTGlyph>
    <TTGlyph name="Oslash" xMin="150" yMin="-102" xMax="1444" yMax="1464">
      <contour>
        <pt x="1444" y="700" on="1"/>
        <pt x="1444" y="534" on="0"/>
        <pt x="1349" y="270" on="0"/>
        <pt x="1178" y="85" on="0"/>
        <pt x="940" y="-14" on="0"/>
        <pt x="796" y="-14" on="1"/>
        <pt x="675" y="-14" on="0"/>
        <pt x="468" y="56" on="0"/>
        <pt x="386" y="124" on="1"/>
        <pt x="226" y="-90" on="1"/>
        <pt x="217" y="-102" on="0"/>
        <pt x="204" y="-102" on="1"/>
        <pt x="190" y="-102" on="1"/>
        <pt x="370" y="138" on="1"/>
        <pt x="266" y="231" on="0"/>
        <pt x="150" y="514" on="0"/>
        <pt x="150" y="700" on="1"/>
        <pt x="150" y="865" on="0"/>
        <pt x="245" y="1130" on="0"/>
        <pt x="416" y="1316" on="0"/>
        <pt x="653" y="1416" on="0"/>
        <pt x="796" y="1416" on="1"/>
        <pt x="922" y="1416" on="0"/>
        <pt x="1135" y="1340" on="0"/>
        <pt x="1218" y="1268" on="1"/>
        <pt x="1356" y="1452" on="1"/>
        <pt x="1361" y="1458" on="0"/>
        <pt x="1368" y="1464" on="0"/>
        <pt x="1376" y="1464" on="1"/>
        <pt x="1392" y="1464" on="1"/>
        <pt x="1234" y="1253" on="1"/>
        <pt x="1334" y="1159" on="0"/>
        <pt x="1444" y="880" on="0"/>
      </contour>
      <contour>
        <pt x="174" y="700" on="1"/>
        <pt x="174" y="520" on="0"/>
        <pt x="284" y="246" on="0"/>
        <pt x="383" y="156" on="1"/>
        <pt x="1204" y="1250" on="1"/>
        <pt x="1124" y="1322" on="0"/>
        <pt x="918" y="1396" on="0"/>
        <pt x="796" y="1396" on="1"/>
        <pt x="660" y="1396" on="0"/>
        <pt x="432" y="1301" on="0"/>
        <pt x="267" y="1121" on="0"/>
        <pt x="174" y="863" on="0"/>
      </contour>
      <contour>
        <pt x="1418" y="700" on="1"/>
        <pt x="1418" y="875" on="0"/>
        <pt x="1314" y="1144" on="0"/>
        <pt x="1220" y="1235" on="1"/>
        <pt x="400" y="142" on="1"/>
        <pt x="479" y="75" on="0"/>
        <pt x="679" y="6" on="0"/>
        <pt x="796" y="6" on="1"/>
        <pt x="934" y="6" on="0"/>
        <pt x="1163" y="101" on="0"/>
        <pt x="1327" y="280" on="0"/>
        <pt x="1418" y="537" on="0"/>
      </contour>
    </TTGlyph>
    <TTGlyph name="Otilde" xMin="150" yMin="-14" xMax="1444" yMax="1692">
      <contour>
        <pt x="916" y="1576" on="1"/>
        <pt x="966" y="1576" on="0"/>
        <pt x="1014" y="1642" on="0"/>
        <pt x="1016" y="1690" on="1"/>
        <pt x="1032" y="1690" on="1"/>
        <pt x="1032" y="1663" on="0"/>
        <pt x="1018" y="1614" on="0"/>
        <pt x="990" y="1578" on="0"/>
        <pt x="946" y="1556" on="0"/>
        <pt x="916" y="1556" on="1"/>
        <pt x="884" y="1556" on="0"/>
        <pt x="828" y="1592" on="0"/>
        <pt x="774" y="1636" on="0"/>
        <pt x="721" y="1672" on="0"/>
        <pt x="692" y="1672" on="1"/>
        <pt x="668" y="1672" on="0"/>
        <pt x="631" y="1654" on="0"/>
        <pt x="606" y="1623" on="0"/>
        <pt x="593" y="1581" on="0"/>
        <pt x="592" y="1558" on="1"/>
        <pt x="574" y="1558" on="1"/>
        <pt x="574" y="1585" on="0"/>
        <pt x="589" y="1634" on="0"/>
        <pt x="619" y="1670" on="0"/>
        <pt x="663" y="1692" on="0"/>
        <pt x="692" y="1692" on="1"/>
        <pt x="725" y="1692" on="0"/>
        <pt x="781" y="1656" on="0"/>
        <pt x="834" y="1612" on="0"/>
        <pt x="887" y="1576" on="0"/>
      </contour>
      <contour>
        <pt x="1444" y="700" on="1"/>
        <pt x="1444" y="534" on="0"/>
        <pt x="1349" y="270" on="0"/>
        <pt x="1178" y="85" on="0"/>
        <pt x="940" y="-14" on="0"/>
        <pt x="796" y="-14" on="1"/>
        <pt x="653" y="-14" on="0"/>
        <pt x="416" y="85" on="0"/>
        <pt x="245" y="270" on="0"/>
        <pt x="150" y="534" on="0"/>
        <pt x="150" y="700" on="1"/>
        <pt x="150" y="865" on="0"/>
        <pt x="245" y="1130" on="0"/>
        <pt x="416" y="1316" on="0"/>
        <pt x="653" y="1416" on="0"/>
        <pt x="796" y="1416" on="1"/>
        <pt x="940" y="1416" on="0"/>
        <pt x="1178" y="1317" on="0"/>
        <pt x="1349" y="1131" on="0"/>
        <pt x="1444" y="866" on="0"/>
      </contour>
      <contour>
        <pt x="1418" y="700" on="1"/>
        <pt x="1418" y="863" on="0"/>
        <pt x="1327" y="1121" on="0"/>
        <pt x="1163" y="1301" on="0"/>
        <pt x="934" y="1396" on="0"/>
        <pt x="796" y="1396" on="1"/>
        <pt x="660" y="1396" on="0"/>
        <pt x="432" y="1301" on="0"/>
        <pt x="267" y="1121" on="0"/>
        <pt x="174" y="863" on="0"/>
        <pt x="174" y="700" on="1"/>
        <pt x="174" y="537" on="0"/>
        <pt x="267" y="280" on="0"/>
        <pt x="432" y="101" on="0"/>
        <pt x="660" y="6" on="0"/>
        <pt x="796" y="6" on="1"/>
        <pt x="934" y="6" on="0"/>
        <pt x="1163" y="101" on="0"/>
        <pt x="1327" y="280" on="0"/>
        <pt x="1418" y="537" on="0"/>
      </contour>
    </TTGlyph>
    <TTGlyph name="P" xMin="280" yMin="0" xMax="1070" yMax="1400">
      <contour>
        <pt x="304" y="600" on="1"/>
        <pt x="304" y="0" on="1"/>
        <pt x="280" y="0" on="1"/>
        <pt x="280" y="1400" on="1"/>
        <pt x="596" y="1400" on="1"/>
        <pt x="825" y="1400" on="0"/>
        <pt x="1070" y="1202" on="0"/>
        <pt x="1070" y="1000" on="1"/>
        <pt x="1070" y="913" on="0"/>
        <pt x="1001" y="766" on="0"/>
        <pt x="875" y="660" on="0"/>
        <pt x="701" y="600" on="0"/>
        <pt x="596" y="600" on="1"/>
      </contour>
      <contour>
        <pt x="304" y="620" on="1"/>
        <pt x="596" y="620" on="1"/>
        <pt x="699" y="620" on="0"/>
        <pt x="865" y="679" on="0"/>
        <pt x="982" y="782" on="0"/>
        <pt x="1046" y="920" on="0"/>
        <pt x="1046" y="1000" on="1"/>
        <pt x="1046" y="1187" on="0"/>
        <pt x="821" y="1380" on="0"/>
        <pt x="596" y="1380" on="1"/>
        <pt x="304" y="1380" on="1"/>
      </contour>
    </TTGlyph>
    <TTGlyph name="Q" xMin="150" yMin="-326" xMax="1494" yMax="1416">
      <contour>
        <pt x="1444" y="700" on="1"/>
        <pt x="1444" y="587" on="0"/>
        <pt x="1400" y="392" on="0"/>
        <pt x="1317" y="232" on="0"/>
        <pt x="1198" y="108" on="0"/>
        <pt x="1123" y="66" on="1"/>
        <pt x="1494" y="-326" on="1"/>
        <pt x="1472" y="-326" on="1"/>
        <pt x="1464" y="-326" on="0"/>
        <pt x="1455" y="-321" on="0"/>
        <pt x="1452" y="-318" on="1"/>
        <pt x="1102" y="55" on="1"/>
        <pt x="1035" y="21" on="0"/>
        <pt x="882" y="-14" on="0"/>
        <pt x="796" y="-14" on="1"/>
        <pt x="653" y="-14" on="0"/>
        <pt x="416" y="85" on="0"/>
        <pt x="245" y="270" on="0"/>
        <pt x="150" y="534" on="0"/>
        <pt x="150" y="700" on="1"/>
        <pt x="150" y="865" on="0"/>
        <pt x="245" y="1130" on="0"/>
        <pt x="416" y="1316" on="0"/>
        <pt x="653" y="1416" on="0"/>
        <pt x="796" y="1416" on="1"/>
        <pt x="940" y="1416" on="0"/>
        <pt x="1178" y="1317" on="0"/>
        <pt x="1349" y="1131" on="0"/>
        <pt x="1444" y="866" on="0"/>
      </contour>
      <contour>
        <pt x="1418" y="700" on="1"/>
        <pt x="1418" y="863" on="0"/>
        <pt x="1327" y="1121" on="0"/>
        <pt x="1163" y="1301" on="0"/>
        <pt x="934" y="1396" on="0"/>
        <pt x="796" y="1396" on="1"/>
        <pt x="660" y="1396" on="0"/>
        <pt x="432" y="1301" on="0"/>
        <pt x="267" y="1121" on="0"/>
        <pt x="174" y="863" on="0"/>
        <pt x="174" y="700" on="1"/>
        <pt x="174" y="537" on="0"/>
        <pt x="267" y="280" on="0"/>
        <pt x="432" y="101" on="0"/>
        <pt x="660" y="6" on="0"/>
        <pt x="796" y="6" on="1"/>
        <pt x="934" y="6" on="0"/>
        <pt x="1163" y="101" on="0"/>
        <pt x="1327" y="280" on="0"/>
        <pt x="1418" y="537" on="0"/>
      </contour>
    </TTGlyph>
    <TTGlyph name="R" xMin="280" yMin="0" xMax="1184" yMax="1400">
      <contour>
        <pt x="304" y="676" on="1"/>
        <pt x="304" y="0" on="1"/>
        <pt x="280" y="0" on="1"/>
        <pt x="280" y="1400" on="1"/>
        <pt x="604" y="1400" on="1"/>
        <pt x="823" y="1400" on="0"/>
        <pt x="1058" y="1230" on="0"/>
        <pt x="1058" y="1050" on="1"/>
        <pt x="1058" y="965" on="0"/>
        <pt x="992" y="828" on="0"/>
        <pt x="872" y="732" on="0"/>
        <pt x="705" y="678" on="0"/>
        <pt x="604" y="676" on="1"/>
        <pt x="614" y="672" on="0"/>
        <pt x="630" y="659" on="0"/>
        <pt x="638" y="650" on="1"/>
        <pt x="1184" y="0" on="1"/>
        <pt x="1168" y="0" on="1"/>
        <pt x="1160" y="0" on="0"/>
        <pt x="1150" y="3" on="0"/>
        <pt x="1142" y="12" on="1"/>
        <pt x="618" y="640" on="1"/>
        <pt x="609" y="651" on="0"/>
        <pt x="592" y="665" on="0"/>
        <pt x="571" y="673" on="0"/>
        <pt x="543" y="676" on="0"/>
        <pt x="522" y="676" on="1"/>
      </contour>
      <contour>
        <pt x="304" y="696" on="1"/>
        <pt x="586" y="696" on="1"/>
        <pt x="689" y="696" on="0"/>
        <pt x="854" y="745" on="0"/>
        <pt x="971" y="836" on="0"/>
        <pt x="1034" y="967" on="0"/>
        <pt x="1034" y="1050" on="1"/>
        <pt x="1034" y="1221" on="0"/>
        <pt x="812" y="1380" on="0"/>
        <pt x="604" y="1380" on="1"/>
        <pt x="304" y="1380" on="1"/>
      </contour>
    </TTGlyph>
    <TTGlyph name="S" xMin="112" yMin="-16" xMax="932" yMax="1416">
      <contour>
        <pt x="882" y="1272" on="1"/>
        <pt x="877" y="1266" on="0"/>
        <pt x="871" y="1266" on="1"/>
        <pt x="862" y="1266" on="0"/>
        <pt x="825" y="1307" on="0"/>
        <pt x="754" y="1355" on="0"/>
        <pt x="642" y="1396" on="0"/>
        <pt x="558" y="1396" on="1"/>
        <pt x="472" y="1396" on="0"/>
        <pt x="339" y="1343" on="0"/>
        <pt x="249" y="1255" on="0"/>
        <pt x="202" y="1139" on="0"/>
        <pt x="202" y="1076" on="1"/>
        <pt x="202" y="995" on="0"/>
        <pt x="265" y="887" on="0"/>
        <pt x="367" y="813" on="0"/>
        <pt x="499" y="764" on="0"/>
        <pt x="635" y="719" on="0"/>
        <pt x="767" y="669" on="0"/>
        <pt x="869" y="592" on="0"/>
        <pt x="932" y="479" on="0"/>
        <pt x="932" y="394" on="1"/>
        <pt x="932" y="308" on="0"/>
        <pt x="874" y="159" on="0"/>
        <pt x="764" y="48" on="0"/>
        <pt x="604" y="-16" on="0"/>
        <pt x="502" y="-16" on="1"/>
        <pt x="431" y="-16" on="0"/>
        <pt x="319" y="9" on="0"/>
        <pt x="226" y="56" on="0"/>
        <pt x="148" y="123" on="0"/>
        <pt x="112" y="166" on="1"/>
        <pt x="116" y="170" on="1"/>
        <pt x="119" y="173" on="0"/>
        <pt x="123" y="176" on="0"/>
        <pt x="128" y="176" on="1"/>
        <pt x="134" y="176" on="0"/>
        <pt x="157" y="151" on="0"/>
        <pt x="197" y="112" on="0"/>
        <pt x="253" y="68" on="0"/>
        <pt x="333" y="29" on="0"/>
        <pt x="436" y="4" on="0"/>
        <pt x="502" y="4" on="1"/>
        <pt x="599" y="4" on="0"/>
        <pt x="750" y="66" on="0"/>
        <pt x="855" y="171" on="0"/>
        <pt x="910" y="311" on="0"/>
        <pt x="910" y="390" on="1"/>
        <pt x="910" y="456" on="0"/>
        <pt x="869" y="552" on="0"/>
        <pt x="799" y="621" on="0"/>
        <pt x="706" y="670" on="0"/>
        <pt x="600" y="709" on="0"/>
        <pt x="490" y="742" on="0"/>
        <pt x="384" y="782" on="0"/>
        <pt x="291" y="833" on="0"/>
        <pt x="221" y="906" on="0"/>
        <pt x="180" y="1007" on="0"/>
        <pt x="180" y="1076" on="1"/>
        <pt x="180" y="1143" on="0"/>
        <pt x="230" y="1266" on="0"/>
        <pt x="326" y="1360" on="0"/>
        <pt x="467" y="1416" on="0"/>
        <pt x="558" y="1416" on="1"/>
        <pt x="660" y="1416" on="0"/>
        <pt x="817" y="1350" on="0"/>
        <pt x="886" y="1278" on="1"/>
      </contour>
    </TTGlyph>
    <TTGlyph name="Sacute" xMin="112" yMin="-16" xMax="932" yMax="1760">
      <component glyphName="S" x="0" y="0" flags="0x4"/>
      <component glyphName="acute.case" x="272" y="0" flags="0x4"/>
    </TTGlyph>
    <TTGlyph name="Scaron" xMin="112" yMin="-16" xMax="932" yMax="1728">
      <contour>
        <pt x="330" y="1728" on="1"/>
        <pt x="350" y="1728" on="1"/>
        <pt x="361" y="1728" on="0"/>
        <pt x="370" y="1720" on="1"/>
        <pt x="566" y="1560" on="1"/>
        <pt x="570" y="1555" on="1"/>
        <pt x="574" y="1560" on="1"/>
        <pt x="770" y="1720" on="1"/>
        <pt x="779" y="1728" on="0"/>
        <pt x="790" y="1728" on="1"/>
        <pt x="810" y="1728" on="1"/>
        <pt x="578" y="1538" on="1"/>
        <pt x="562" y="1538" on="1"/>
      </contour>
      <contour>
        <pt x="882" y="1272" on="1"/>
        <pt x="877" y="1266" on="0"/>
        <pt x="871" y="1266" on="1"/>
        <pt x="862" y="1266" on="0"/>
        <pt x="825" y="1307" on="0"/>
        <pt x="754" y="1355" on="0"/>
        <pt x="642" y="1396" on="0"/>
        <pt x="558" y="1396" on="1"/>
        <pt x="472" y="1396" on="0"/>
        <pt x="339" y="1343" on="0"/>
        <pt x="249" y="1255" on="0"/>
        <pt x="202" y="1139" on="0"/>
        <pt x="202" y="1076" on="1"/>
        <pt x="202" y="995" on="0"/>
        <pt x="265" y="887" on="0"/>
        <pt x="367" y="813" on="0"/>
        <pt x="499" y="764" on="0"/>
        <pt x="635" y="719" on="0"/>
        <pt x="767" y="669" on="0"/>
        <pt x="869" y="592" on="0"/>
        <pt x="932" y="479" on="0"/>
        <pt x="932" y="394" on="1"/>
        <pt x="932" y="308" on="0"/>
        <pt x="874" y="159" on="0"/>
        <pt x="764" y="48" on="0"/>
        <pt x="604" y="-16" on="0"/>
        <pt x="502" y="-16" on="1"/>
        <pt x="431" y="-16" on="0"/>
        <pt x="319" y="9" on="0"/>
        <pt x="226" y="56" on="0"/>
        <pt x="148" y="123" on="0"/>
        <pt x="112" y="166" on="1"/>
        <pt x="116" y="170" on="1"/>
        <pt x="119" y="173" on="0"/>
        <pt x="123" y="176" on="0"/>
        <pt x="128" y="176" on="1"/>
        <pt x="134" y="176" on="0"/>
        <pt x="157" y="151" on="0"/>
        <pt x="197" y="112" on="0"/>
        <pt x="253" y="68" on="0"/>
        <pt x="333" y="29" on="0"/>
        <pt x="436" y="4" on="0"/>
        <pt x="502" y="4" on="1"/>
        <pt x="599" y="4" on="0"/>
        <pt x="750" y="66" on="0"/>
        <pt x="855" y="171" on="0"/>
        <pt x="910" y="311" on="0"/>
        <pt x="910" y="390" on="1"/>
        <pt x="910" y="456" on="0"/>
        <pt x="869" y="552" on="0"/>
        <pt x="799" y="621" on="0"/>
        <pt x="706" y="670" on="0"/>
        <pt x="600" y="709" on="0"/>
        <pt x="490" y="742" on="0"/>
        <pt x="384" y="782" on="0"/>
        <pt x="291" y="833" on="0"/>
        <pt x="221" y="906" on="0"/>
        <pt x="180" y="1007" on="0"/>
        <pt x="180" y="1076" on="1"/>
        <pt x="180" y="1143" on="0"/>
        <pt x="230" y="1266" on="0"/>
        <pt x="326" y="1360" on="0"/>
        <pt x="467" y="1416" on="0"/>
        <pt x="558" y="1416" on="1"/>
        <pt x="660" y="1416" on="0"/>
        <pt x="817" y="1350" on="0"/>
        <pt x="886" y="1278" on="1"/>
      </contour>
    </TTGlyph>
    <TTGlyph name="T" xMin="40" yMin="0" xMax="1120" yMax="1400">
      <contour>
        <pt x="1120" y="1400" on="1"/>
        <pt x="1120" y="1378" on="1"/>
        <pt x="594" y="1378" on="1"/>
        <pt x="594" y="0" on="1"/>
        <pt x="570" y="0" on="1"/>
        <pt x="570" y="1378" on="1"/>
        <pt x="40" y="1378" on="1"/>
        <pt x="40" y="1400" on="1"/>
      </contour>
    </TTGlyph>
    <TTGlyph name="Thorn" xMin="280" yMin="0" xMax="1070" yMax="1400">
      <contour>
        <pt x="304" y="298" on="1"/>
        <pt x="304" y="0" on="1"/>
        <pt x="280" y="0" on="1"/>
        <pt x="280" y="1400" on="1"/>
        <pt x="304" y="1400" on="1"/>
        <pt x="304" y="1098" on="1"/>
        <pt x="596" y="1098" on="1"/>
        <pt x="825" y="1098" on="0"/>
        <pt x="1070" y="900" on="0"/>
        <pt x="1070" y="698" on="1"/>
        <pt x="1070" y="611" on="0"/>
        <pt x="1001" y="464" on="0"/>
        <pt x="875" y="358" on="0"/>
        <pt x="701" y="298" on="0"/>
        <pt x="596" y="298" on="1"/>
      </contour>
      <contour>
        <pt x="304" y="318" on="1"/>
        <pt x="596" y="318" on="1"/>
        <pt x="699" y="318" on="0"/>
        <pt x="865" y="377" on="0"/>
        <pt x="982" y="480" on="0"/>
        <pt x="1046" y="618" on="0"/>
        <pt x="1046" y="698" on="1"/>
        <pt x="1046" y="885" on="0"/>
        <pt x="821" y="1078" on="0"/>
        <pt x="596" y="1078" on="1"/>
        <pt x="304" y="1078" on="1"/>
      </contour>
    </TTGlyph>
    <TTGlyph name="U" xMin="230" yMin="-18" xMax="1242" yMax="1400">
      <contour>
        <pt x="736" y="4" on="1"/>
        <pt x="849" y="4" on="0"/>
        <pt x="1028" y="85" on="0"/>
        <pt x="1152" y="225" on="0"/>
        <pt x="1218" y="413" on="0"/>
        <pt x="1218" y="520" on="1"/>
        <pt x="1218" y="1400" on="1"/>
        <pt x="1242" y="1400" on="1"/>
        <pt x="1242" y="520" on="1"/>
        <pt x="1242" y="409" on="0"/>
        <pt x="1172" y="213" on="0"/>
        <pt x="1040" y="67" on="0"/>
        <pt x="853" y="-18" on="0"/>
        <pt x="736" y="-18" on="1"/>
        <pt x="619" y="-18" on="0"/>
        <pt x="432" y="67" on="0"/>
        <pt x="300" y="213" on="0"/>
        <pt x="230" y="409" on="0"/>
        <pt x="230" y="520" on="1"/>
        <pt x="230" y="1400" on="1"/>
        <pt x="254" y="1400" on="1"/>
        <pt x="254" y="522" on="1"/>
        <pt x="254" y="415" on="0"/>
        <pt x="320" y="226" on="0"/>
        <pt x="444" y="85" on="0"/>
        <pt x="623" y="4" on="0"/>
      </contour>
    </TTGlyph>
    <TTGlyph name="Uacute" xMin="230" yMin="-18" xMax="1242" yMax="1760">
      <contour>
        <pt x="980" y="1760" on="1"/>
        <pt x="690" y="1544" on="1"/>
        <pt x="681" y="1538" on="0"/>
        <pt x="672" y="1538" on="1"/>
        <pt x="660" y="1538" on="1"/>
        <pt x="902" y="1746" on="1"/>
        <pt x="911" y="1754" on="0"/>
        <pt x="927" y="1760" on="0"/>
        <pt x="944" y="1760" on="1"/>
      </contour>
      <contour>
        <pt x="736" y="4" on="1"/>
        <pt x="849" y="4" on="0"/>
        <pt x="1028" y="85" on="0"/>
        <pt x="1152" y="225" on="0"/>
        <pt x="1218" y="413" on="0"/>
        <pt x="1218" y="520" on="1"/>
        <pt x="1218" y="1400" on="1"/>
        <pt x="1242" y="1400" on="1"/>
        <pt x="1242" y="520" on="1"/>
        <pt x="1242" y="409" on="0"/>
        <pt x="1172" y="213" on="0"/>
        <pt x="1040" y="67" on="0"/>
        <pt x="853" y="-18" on="0"/>
        <pt x="736" y="-18" on="1"/>
        <pt x="619" y="-18" on="0"/>
        <pt x="432" y="67" on="0"/>
        <pt x="300" y="213" on="0"/>
        <pt x="230" y="409" on="0"/>
        <pt x="230" y="520" on="1"/>
        <pt x="230" y="1400" on="1"/>
        <pt x="254" y="1400" on="1"/>
        <pt x="254" y="522" on="1"/>
        <pt x="254" y="415" on="0"/>
        <pt x="320" y="226" on="0"/>
        <pt x="444" y="85" on="0"/>
        <pt x="623" y="4" on="0"/>
      </contour>
    </TTGlyph>
    <TTGlyph name="Ucircumflex" xMin="230" yMin="-18" xMax="1242" yMax="1728">
      <contour>
        <pt x="976" y="1538" on="1"/>
        <pt x="956" y="1538" on="1"/>
        <pt x="951" y="1538" on="0"/>
        <pt x="941" y="1541" on="0"/>
        <pt x="936" y="1546" on="1"/>
        <pt x="740" y="1706" on="1"/>
        <pt x="736" y="1710" on="1"/>
        <pt x="732" y="1706" on="1"/>
        <pt x="536" y="1546" on="1"/>
        <pt x="527" y="1538" on="0"/>
        <pt x="516" y="1538" on="1"/>
        <pt x="496" y="1538" on="1"/>
        <pt x="728" y="1728" on="1"/>
        <pt x="744" y="1728" on="1"/>
      </contour>
      <contour>
        <pt x="736" y="4" on="1"/>
        <pt x="849" y="4" on="0"/>
        <pt x="1028" y="85" on="0"/>
        <pt x="1152" y="225" on="0"/>
        <pt x="1218" y="413" on="0"/>
        <pt x="1218" y="520" on="1"/>
        <pt x="1218" y="1400" on="1"/>
        <pt x="1242" y="1400" on="1"/>
        <pt x="1242" y="520" on="1"/>
        <pt x="1242" y="409" on="0"/>
        <pt x="1172" y="213" on="0"/>
        <pt x="1040" y="67" on="0"/>
        <pt x="853" y="-18" on="0"/>
        <pt x="736" y="-18" on="1"/>
        <pt x="619" y="-18" on="0"/>
        <pt x="432" y="67" on="0"/>
        <pt x="300" y="213" on="0"/>
        <pt x="230" y="409" on="0"/>
        <pt x="230" y="520" on="1"/>
        <pt x="230" y="1400" on="1"/>
        <pt x="254" y="1400" on="1"/>
        <pt x="254" y="522" on="1"/>
        <pt x="254" y="415" on="0"/>
        <pt x="320" y="226" on="0"/>
        <pt x="444" y="85" on="0"/>
        <pt x="623" y="4" on="0"/>
      </contour>
    </TTGlyph>
    <TTGlyph name="Udieresis" xMin="230" yMin="-18" xMax="1242" yMax="1720">
      <contour>
        <pt x="588" y="1664" on="1"/>
        <pt x="588" y="1643" on="0"/>
        <pt x="553" y="1610" on="0"/>
        <pt x="532" y="1610" on="1"/>
        <pt x="509" y="1610" on="0"/>
        <pt x="476" y="1643" on="0"/>
        <pt x="476" y="1664" on="1"/>
        <pt x="476" y="1687" on="0"/>
        <pt x="509" y="1720" on="0"/>
        <pt x="532" y="1720" on="1"/>
        <pt x="553" y="1720" on="0"/>
        <pt x="588" y="1687" on="0"/>
      </contour>
      <contour>
        <pt x="996" y="1664" on="1"/>
        <pt x="996" y="1643" on="0"/>
        <pt x="961" y="1610" on="0"/>
        <pt x="940" y="1610" on="1"/>
        <pt x="917" y="1610" on="0"/>
        <pt x="884" y="1643" on="0"/>
        <pt x="884" y="1664" on="1"/>
        <pt x="884" y="1687" on="0"/>
        <pt x="917" y="1720" on="0"/>
        <pt x="940" y="1720" on="1"/>
        <pt x="961" y="1720" on="0"/>
        <pt x="996" y="1687" on="0"/>
      </contour>
      <contour>
        <pt x="736" y="4" on="1"/>
        <pt x="849" y="4" on="0"/>
        <pt x="1028" y="85" on="0"/>
        <pt x="1152" y="225" on="0"/>
        <pt x="1218" y="413" on="0"/>
        <pt x="1218" y="520" on="1"/>
        <pt x="1218" y="1400" on="1"/>
        <pt x="1242" y="1400" on="1"/>
        <pt x="1242" y="520" on="1"/>
        <pt x="1242" y="409" on="0"/>
        <pt x="1172" y="213" on="0"/>
        <pt x="1040" y="67" on="0"/>
        <pt x="853" y="-18" on="0"/>
        <pt x="736" y="-18" on="1"/>
        <pt x="619" y="-18" on="0"/>
        <pt x="432" y="67" on="0"/>
        <pt x="300" y="213" on="0"/>
        <pt x="230" y="409" on="0"/>
        <pt x="230" y="520" on="1"/>
        <pt x="230" y="1400" on="1"/>
        <pt x="254" y="1400" on="1"/>
        <pt x="254" y="522" on="1"/>
        <pt x="254" y="415" on="0"/>
        <pt x="320" y="226" on="0"/>
        <pt x="444" y="85" on="0"/>
        <pt x="623" y="4" on="0"/>
      </contour>
    </TTGlyph>
    <TTGlyph name="Ugrave" xMin="230" yMin="-18" xMax="1242" yMax="1760">
      <contour>
        <pt x="536" y="1760" on="1"/>
        <pt x="553" y="1760" on="0"/>
        <pt x="569" y="1754" on="0"/>
        <pt x="578" y="1746" on="1"/>
        <pt x="820" y="1538" on="1"/>
        <pt x="808" y="1538" on="1"/>
        <pt x="799" y="1538" on="0"/>
        <pt x="790" y="1544" on="1"/>
        <pt x="500" y="1760" on="1"/>
      </contour>
      <contour>
        <pt x="736" y="4" on="1"/>
        <pt x="849" y="4" on="0"/>
        <pt x="1028" y="85" on="0"/>
        <pt x="1152" y="225" on="0"/>
        <pt x="1218" y="413" on="0"/>
        <pt x="1218" y="520" on="1"/>
        <pt x="1218" y="1400" on="1"/>
        <pt x="1242" y="1400" on="1"/>
        <pt x="1242" y="520" on="1"/>
        <pt x="1242" y="409" on="0"/>
        <pt x="1172" y="213" on="0"/>
        <pt x="1040" y="67" on="0"/>
        <pt x="853" y="-18" on="0"/>
        <pt x="736" y="-18" on="1"/>
        <pt x="619" y="-18" on="0"/>
        <pt x="432" y="67" on="0"/>
        <pt x="300" y="213" on="0"/>
        <pt x="230" y="409" on="0"/>
        <pt x="230" y="520" on="1"/>
        <pt x="230" y="1400" on="1"/>
        <pt x="254" y="1400" on="1"/>
        <pt x="254" y="522" on="1"/>
        <pt x="254" y="415" on="0"/>
        <pt x="320" y="226" on="0"/>
        <pt x="444" y="85" on="0"/>
        <pt x="623" y="4" on="0"/>
      </contour>
    </TTGlyph>
    <TTGlyph name="V" xMin="20" yMin="0" xMax="1208" yMax="1400">
      <contour>
        <pt x="20" y="1400" on="1"/>
        <pt x="38" y="1400" on="1"/>
        <pt x="47" y="1400" on="0"/>
        <pt x="50" y="1390" on="1"/>
        <pt x="598" y="74" on="1"/>
        <pt x="603" y="63" on="0"/>
        <pt x="611" y="42" on="0"/>
        <pt x="614" y="33" on="1"/>
        <pt x="617" y="42" on="0"/>
        <pt x="625" y="63" on="0"/>
        <pt x="630" y="74" on="1"/>
        <pt x="1178" y="1390" on="1"/>
        <pt x="1181" y="1400" on="0"/>
        <pt x="1192" y="1400" on="1"/>
        <pt x="1208" y="1400" on="1"/>
        <pt x="624" y="0" on="1"/>
        <pt x="604" y="0" on="1"/>
      </contour>
    </TTGlyph>
    <TTGlyph name="W" xMin="20" yMin="0" xMax="1898" yMax="1400">
      <contour>
        <pt x="20" y="1400" on="1"/>
        <pt x="38" y="1400" on="1"/>
        <pt x="47" y="1400" on="0"/>
        <pt x="50" y="1390" on="1"/>
        <pt x="459" y="83" on="1"/>
        <pt x="464" y="69" on="0"/>
        <pt x="471" y="44" on="0"/>
        <pt x="474" y="30" on="1"/>
        <pt x="477" y="44" on="0"/>
        <pt x="484" y="69" on="0"/>
        <pt x="489" y="83" on="1"/>
        <pt x="944" y="1390" on="1"/>
        <pt x="947" y="1400" on="0"/>
        <pt x="956" y="1400" on="1"/>
        <pt x="962" y="1400" on="1"/>
        <pt x="971" y="1400" on="0"/>
        <pt x="974" y="1390" on="1"/>
        <pt x="1429" y="83" on="1"/>
        <pt x="1439" y="56" on="0"/>
        <pt x="1444" y="30" on="1"/>
        <pt x="1450" y="60" on="0"/>
        <pt x="1459" y="83" on="1"/>
        <pt x="1868" y="1390" on="1"/>
        <pt x="1871" y="1400" on="0"/>
        <pt x="1882" y="1400" on="1"/>
        <pt x="1898" y="1400" on="1"/>
        <pt x="1454" y="0" on="1"/>
        <pt x="1434" y="0" on="1"/>
        <pt x="968" y="1344" on="1"/>
        <pt x="962" y="1363" on="0"/>
        <pt x="959" y="1375" on="1"/>
        <pt x="956" y="1363" on="0"/>
        <pt x="950" y="1344" on="1"/>
        <pt x="484" y="0" on="1"/>
        <pt x="464" y="0" on="1"/>
      </contour>
    </TTGlyph>
    <TTGlyph name="X" xMin="20" yMin="0" xMax="1104" yMax="1400">
      <contour>
        <pt x="546" y="716" on="1"/>
        <pt x="44" y="1400" on="1"/>
        <pt x="66" y="1400" on="1"/>
        <pt x="74" y="1400" on="0"/>
        <pt x="81" y="1390" on="0"/>
        <pt x="84" y="1386" on="1"/>
        <pt x="563" y="729" on="1"/>
        <pt x="572" y="744" on="1"/>
        <pt x="1040" y="1386" on="1"/>
        <pt x="1043" y="1391" on="0"/>
        <pt x="1052" y="1400" on="0"/>
        <pt x="1058" y="1400" on="1"/>
        <pt x="1080" y="1400" on="1"/>
        <pt x="579" y="719" on="1"/>
        <pt x="1104" y="0" on="1"/>
        <pt x="1082" y="0" on="1"/>
        <pt x="1074" y="0" on="0"/>
        <pt x="1066" y="11" on="0"/>
        <pt x="1064" y="14" on="1"/>
        <pt x="562" y="706" on="1"/>
        <pt x="561" y="701" on="0"/>
        <pt x="554" y="692" on="1"/>
        <pt x="60" y="14" on="1"/>
        <pt x="56" y="9" on="0"/>
        <pt x="48" y="0" on="0"/>
        <pt x="42" y="0" on="1"/>
        <pt x="20" y="0" on="1"/>
      </contour>
    </TTGlyph>
    <TTGlyph name="Y" xMin="40" yMin="0" xMax="1108" yMax="1400">
      <contour>
        <pt x="586" y="595" on="1"/>
        <pt x="586" y="0" on="1"/>
        <pt x="562" y="0" on="1"/>
        <pt x="562" y="595" on="1"/>
        <pt x="40" y="1400" on="1"/>
        <pt x="60" y="1400" on="1"/>
        <pt x="69" y="1400" on="0"/>
        <pt x="74" y="1392" on="1"/>
        <pt x="545" y="662" on="1"/>
        <pt x="553" y="649" on="0"/>
        <pt x="568" y="626" on="0"/>
        <pt x="574" y="614" on="1"/>
        <pt x="579" y="626" on="0"/>
        <pt x="595" y="649" on="0"/>
        <pt x="603" y="662" on="1"/>
        <pt x="1074" y="1392" on="1"/>
        <pt x="1079" y="1400" on="0"/>
        <pt x="1088" y="1400" on="1"/>
        <pt x="1108" y="1400" on="1"/>
      </contour>
    </TTGlyph>
    <TTGlyph name="Yacute" xMin="40" yMin="0" xMax="1108" yMax="1760">
      <contour>
        <pt x="818" y="1760" on="1"/>
        <pt x="528" y="1544" on="1"/>
        <pt x="519" y="1538" on="0"/>
        <pt x="510" y="1538" on="1"/>
        <pt x="498" y="1538" on="1"/>
        <pt x="740" y="1746" on="1"/>
        <pt x="749" y="1754" on="0"/>
        <pt x="765" y="1760" on="0"/>
        <pt x="782" y="1760" on="1"/>
      </contour>
      <contour>
        <pt x="586" y="595" on="1"/>
        <pt x="586" y="0" on="1"/>
        <pt x="562" y="0" on="1"/>
        <pt x="562" y="595" on="1"/>
        <pt x="40" y="1400" on="1"/>
        <pt x="60" y="1400" on="1"/>
        <pt x="69" y="1400" on="0"/>
        <pt x="74" y="1392" on="1"/>
        <pt x="545" y="662" on="1"/>
        <pt x="553" y="649" on="0"/>
        <pt x="568" y="626" on="0"/>
        <pt x="574" y="614" on="1"/>
        <pt x="579" y="626" on="0"/>
        <pt x="595" y="649" on="0"/>
        <pt x="603" y="662" on="1"/>
        <pt x="1074" y="1392" on="1"/>
        <pt x="1079" y="1400" on="0"/>
        <pt x="1088" y="1400" on="1"/>
        <pt x="1108" y="1400" on="1"/>
      </contour>
    </TTGlyph>
    <TTGlyph name="Ydieresis" xMin="40" yMin="0" xMax="1108" yMax="1720">
      <contour>
        <pt x="426" y="1664" on="1"/>
        <pt x="426" y="1643" on="0"/>
        <pt x="391" y="1610" on="0"/>
        <pt x="370" y="1610" on="1"/>
        <pt x="347" y="1610" on="0"/>
        <pt x="314" y="1643" on="0"/>
        <pt x="314" y="1664" on="1"/>
        <pt x="314" y="1687" on="0"/>
        <pt x="347" y="1720" on="0"/>
        <pt x="370" y="1720" on="1"/>
        <pt x="391" y="1720" on="0"/>
        <pt x="426" y="1687" on="0"/>
      </contour>
      <contour>
        <pt x="834" y="1664" on="1"/>
        <pt x="834" y="1643" on="0"/>
        <pt x="799" y="1610" on="0"/>
        <pt x="778" y="1610" on="1"/>
        <pt x="755" y="1610" on="0"/>
        <pt x="722" y="1643" on="0"/>
        <pt x="722" y="1664" on="1"/>
        <pt x="722" y="1687" on="0"/>
        <pt x="755" y="1720" on="0"/>
        <pt x="778" y="1720" on="1"/>
        <pt x="799" y="1720" on="0"/>
        <pt x="834" y="1687" on="0"/>
      </contour>
      <contour>
        <pt x="586" y="595" on="1"/>
        <pt x="586" y="0" on="1"/>
        <pt x="562" y="0" on="1"/>
        <pt x="562" y="595" on="1"/>
        <pt x="40" y="1400" on="1"/>
        <pt x="60" y="1400" on="1"/>
        <pt x="69" y="1400" on="0"/>
        <pt x="74" y="1392" on="1"/>
        <pt x="545" y="662" on="1"/>
        <pt x="553" y="649" on="0"/>
        <pt x="568" y="626" on="0"/>
        <pt x="574" y="614" on="1"/>
        <pt x="579" y="626" on="0"/>
        <pt x="595" y="649" on="0"/>
        <pt x="603" y="662" on="1"/>
        <pt x="1074" y="1392" on="1"/>
        <pt x="1079" y="1400" on="0"/>
        <pt x="1088" y="1400" on="1"/>
        <pt x="1108" y="1400" on="1"/>
      </contour>
    </TTGlyph>
    <TTGlyph name="Z" xMin="140" yMin="0" xMax="1156" yMax="1400">
      <contour>
        <pt x="1156" y="1400" on="1"/>
        <pt x="1156" y="1396" on="1"/>
        <pt x="1156" y="1387" on="0"/>
        <pt x="1148" y="1376" on="1"/>
        <pt x="174" y="22" on="1"/>
        <pt x="1154" y="22" on="1"/>
        <pt x="1152" y="0" on="1"/>
        <pt x="140" y="0" on="1"/>
        <pt x="140" y="4" on="1"/>
        <pt x="140" y="10" on="0"/>
        <pt x="143" y="17" on="0"/>
        <pt x="146" y="22" on="1"/>
        <pt x="1122" y="1378" on="1"/>
        <pt x="156" y="1378" on="1"/>
        <pt x="156" y="1400" on="1"/>
      </contour>
    </TTGlyph>
    <TTGlyph name="Zacute" xMin="140" yMin="0" xMax="1156" yMax="1760">
      <component glyphName="Z" x="0" y="0" flags="0x204"/>
      <component glyphName="acute.case" x="382" y="0" flags="0x4"/>
    </TTGlyph>
    <TTGlyph name="Zcaron" xMin="140" yMin="0" xMax="1156" yMax="1728">
      <contour>
        <pt x="420" y="1728" on="1"/>
        <pt x="440" y="1728" on="1"/>
        <pt x="445" y="1728" on="0"/>
        <pt x="455" y="1725" on="0"/>
        <pt x="460" y="1720" on="1"/>
        <pt x="656" y="1560" on="1"/>
        <pt x="660" y="1555" on="1"/>
        <pt x="664" y="1560" on="1"/>
        <pt x="860" y="1720" on="1"/>
        <pt x="865" y="1725" on="0"/>
        <pt x="875" y="1728" on="0"/>
        <pt x="880" y="1728" on="1"/>
        <pt x="900" y="1728" on="1"/>
        <pt x="668" y="1538" on="1"/>
        <pt x="652" y="1538" on="1"/>
      </contour>
      <contour>
        <pt x="1156" y="1400" on="1"/>
        <pt x="1156" y="1396" on="1"/>
        <pt x="1156" y="1387" on="0"/>
        <pt x="1148" y="1376" on="1"/>
        <pt x="174" y="22" on="1"/>
        <pt x="1154" y="22" on="1"/>
        <pt x="1152" y="0" on="1"/>
        <pt x="140" y="0" on="1"/>
        <pt x="140" y="4" on="1"/>
        <pt x="140" y="10" on="0"/>
        <pt x="143" y="17" on="0"/>
        <pt x="146" y="22" on="1"/>
        <pt x="1122" y="1378" on="1"/>
        <pt x="156" y="1378" on="1"/>
        <pt x="156" y="1400" on="1"/>
      </contour>
    </TTGlyph>
    <TTGlyph name="Zdotaccent" xMin="140" yMin="0" xMax="1156" yMax="1724">
      <component glyphName="Z" x="0" y="0" flags="0x204"/>
      <component glyphName="dotaccent.case" x="380" y="0" flags="0x4"/>
    </TTGlyph>
    <TTGlyph name="a" xMin="120" yMin="-16" xMax="788" yMax="996">
      <contour>
        <pt x="784" y="0" on="1"/>
        <pt x="770" y="0" on="0"/>
        <pt x="770" y="16" on="1"/>
        <pt x="764" y="175" on="1"/>
        <pt x="722" y="131" on="0"/>
        <pt x="638" y="60" on="0"/>
        <pt x="544" y="11" on="0"/>
        <pt x="436" y="-16" on="0"/>
        <pt x="370" y="-16" on="1"/>
        <pt x="326" y="-16" on="0"/>
        <pt x="237" y="11" on="0"/>
        <pt x="165" y="70" on="0"/>
        <pt x="120" y="163" on="0"/>
        <pt x="120" y="230" on="1"/>
        <pt x="120" y="296" on="0"/>
        <pt x="197" y="401" on="0"/>
        <pt x="356" y="475" on="0"/>
        <pt x="598" y="518" on="0"/>
        <pt x="764" y="522" on="1"/>
        <pt x="764" y="648" on="1"/>
        <pt x="764" y="725" on="0"/>
        <pt x="730" y="847" on="0"/>
        <pt x="664" y="931" on="0"/>
        <pt x="564" y="976" on="0"/>
        <pt x="498" y="976" on="1"/>
        <pt x="446" y="976" on="0"/>
        <pt x="362" y="954" on="0"/>
        <pt x="296" y="922" on="0"/>
        <pt x="247" y="884" on="0"/>
        <pt x="211" y="852" on="0"/>
        <pt x="189" y="830" on="0"/>
        <pt x="184" y="830" on="1"/>
        <pt x="180" y="830" on="0"/>
        <pt x="174" y="836" on="1"/>
        <pt x="170" y="840" on="1"/>
        <pt x="242" y="916" on="0"/>
        <pt x="396" y="996" on="0"/>
        <pt x="498" y="996" on="1"/>
        <pt x="573" y="996" on="0"/>
        <pt x="682" y="948" on="0"/>
        <pt x="754" y="858" on="0"/>
        <pt x="788" y="729" on="0"/>
        <pt x="788" y="648" on="1"/>
        <pt x="788" y="0" on="1"/>
      </contour>
      <contour>
        <pt x="370" y="4" on="1"/>
        <pt x="439" y="4" on="0"/>
        <pt x="551" y="36" on="0"/>
        <pt x="645" y="90" on="0"/>
        <pt x="726" y="161" on="0"/>
        <pt x="764" y="200" on="1"/>
        <pt x="764" y="502" on="1"/>
        <pt x="449" y="492" on="0"/>
        <pt x="144" y="355" on="0"/>
        <pt x="144" y="230" on="1"/>
        <pt x="144" y="171" on="0"/>
        <pt x="183" y="86" on="0"/>
        <pt x="246" y="31" on="0"/>
        <pt x="327" y="4" on="0"/>
      </contour>
    </TTGlyph>
    <TTGlyph name="aacute" xMin="120" yMin="-16" xMax="788" yMax="1416">
      <component glyphName="a" x="0" y="0" flags="0x204"/>
      <component glyphName="acute" x="208" y="0" flags="0x4"/>
    </TTGlyph>
    <TTGlyph name="acircumflex" xMin="120" yMin="-16" xMax="788" yMax="1400">
      <component glyphName="a" x="0" y="0" flags="0x204"/>
      <component glyphName="circumflex" x="208" y="0" flags="0x4"/>
    </TTGlyph>
    <TTGlyph name="acute" xMin="216" yMin="1158" xMax="448" yMax="1416">
      <contour>
        <pt x="448" y="1416" on="1"/>
        <pt x="246" y="1166" on="1"/>
        <pt x="239" y="1158" on="0"/>
        <pt x="230" y="1158" on="1"/>
        <pt x="216" y="1158" on="1"/>
        <pt x="380" y="1394" on="1"/>
        <pt x="389" y="1408" on="0"/>
        <pt x="405" y="1416" on="0"/>
        <pt x="422" y="1416" on="1"/>
      </contour>
    </TTGlyph>
    <TTGlyph name="acute.case" xMin="204" yMin="1538" xMax="524" yMax="1760">
      <contour>
        <pt x="524" y="1760" on="1"/>
        <pt x="234" y="1544" on="1"/>
        <pt x="225" y="1538" on="0"/>
        <pt x="216" y="1538" on="1"/>
        <pt x="204" y="1538" on="1"/>
        <pt x="446" y="1746" on="1"/>
        <pt x="455" y="1754" on="0"/>
        <pt x="471" y="1760" on="0"/>
        <pt x="488" y="1760" on="1"/>
      </contour>
    </TTGlyph>
    <TTGlyph name="adieresis" xMin="120" yMin="-16" xMax="788" yMax="1336">
      <component glyphName="a" x="0" y="0" flags="0x204"/>
      <component glyphName="dieresis" x="208" y="0" flags="0x4"/>
    </TTGlyph>
    <TTGlyph name="ae" xMin="120" yMin="-16" xMax="1484" yMax="996">
      <contour>
        <pt x="1152" y="996" on="1"/>
        <pt x="1222" y="996" on="0"/>
        <pt x="1343" y="940" on="0"/>
        <pt x="1433" y="829" on="0"/>
        <pt x="1484" y="663" on="0"/>
        <pt x="1484" y="554" on="1"/>
        <pt x="1484" y="544" on="0"/>
        <pt x="1474" y="544" on="1"/>
        <pt x="787" y="544" on="1"/>
        <pt x="786" y="536" on="0"/>
        <pt x="786" y="518" on="0"/>
        <pt x="786" y="510" on="1"/>
        <pt x="786" y="388" on="0"/>
        <pt x="839" y="201" on="0"/>
        <pt x="936" y="74" on="0"/>
        <pt x="1073" y="8" on="0"/>
        <pt x="1156" y="8" on="1"/>
        <pt x="1229" y="8" on="0"/>
        <pt x="1336" y="44" on="0"/>
        <pt x="1408" y="88" on="0"/>
        <pt x="1447" y="124" on="0"/>
        <pt x="1452" y="124" on="1"/>
        <pt x="1456" y="124" on="0"/>
        <pt x="1460" y="120" on="1"/>
        <pt x="1464" y="116" on="1"/>
        <pt x="1449" y="95" on="0"/>
        <pt x="1388" y="50" on="0"/>
        <pt x="1306" y="12" on="0"/>
        <pt x="1208" y="-12" on="0"/>
        <pt x="1156" y="-12" on="1"/>
        <pt x="1004" y="-12" on="0"/>
        <pt x="812" y="175" on="0"/>
        <pt x="781" y="348" on="1"/>
        <pt x="778" y="279" on="0"/>
        <pt x="740" y="171" on="0"/>
        <pt x="680" y="90" on="0"/>
        <pt x="604" y="34" on="0"/>
        <pt x="522" y="-1" on="0"/>
        <pt x="440" y="-16" on="0"/>
        <pt x="404" y="-16" on="1"/>
        <pt x="347" y="-16" on="0"/>
        <pt x="244" y="11" on="0"/>
        <pt x="166" y="74" on="0"/>
        <pt x="120" y="176" on="0"/>
        <pt x="120" y="250" on="1"/>
        <pt x="120" y="316" on="0"/>
        <pt x="197" y="427" on="0"/>
        <pt x="356" y="509" on="0"/>
        <pt x="598" y="558" on="0"/>
        <pt x="764" y="562" on="1"/>
        <pt x="764" y="648" on="1"/>
        <pt x="764" y="725" on="0"/>
        <pt x="730" y="847" on="0"/>
        <pt x="664" y="931" on="0"/>
        <pt x="564" y="976" on="0"/>
        <pt x="498" y="976" on="1"/>
        <pt x="446" y="976" on="0"/>
        <pt x="362" y="954" on="0"/>
        <pt x="296" y="922" on="0"/>
        <pt x="247" y="884" on="0"/>
        <pt x="211" y="852" on="0"/>
        <pt x="189" y="830" on="0"/>
        <pt x="184" y="830" on="1"/>
        <pt x="180" y="830" on="0"/>
        <pt x="174" y="836" on="1"/>
        <pt x="170" y="840" on="1"/>
        <pt x="242" y="916" on="0"/>
        <pt x="396" y="996" on="0"/>
        <pt x="498" y="996" on="1"/>
        <pt x="568" y="996" on="0"/>
        <pt x="674" y="949" on="0"/>
        <pt x="745" y="862" on="0"/>
        <pt x="781" y="737" on="0"/>
        <pt x="782" y="659" on="1"/>
        <pt x="797" y="736" on="0"/>
        <pt x="861" y="860" on="0"/>
        <pt x="955" y="948" on="0"/>
        <pt x="1077" y="996" on="0"/>
      </contour>
      <contour>
        <pt x="764" y="542" on="1"/>
        <pt x="606" y="537" on="0"/>
        <pt x="373" y="492" on="0"/>
        <pt x="220" y="416" on="0"/>
        <pt x="144" y="313" on="0"/>
        <pt x="144" y="250" on="1"/>
        <pt x="144" y="184" on="0"/>
        <pt x="184" y="91" on="0"/>
        <pt x="253" y="31" on="0"/>
        <pt x="348" y="4" on="0"/>
        <pt x="404" y="4" on="1"/>
        <pt x="478" y="4" on="0"/>
        <pt x="609" y="55" on="0"/>
        <pt x="707" y="151" on="0"/>
        <pt x="764" y="286" on="0"/>
        <pt x="764" y="370" on="1"/>
      </contour>
      <contour>
        <pt x="1154" y="976" on="1"/>
        <pt x="1072" y="976" on="0"/>
        <pt x="941" y="916" on="0"/>
        <pt x="848" y="807" on="0"/>
        <pt x="793" y="655" on="0"/>
        <pt x="787" y="562" on="1"/>
        <pt x="1464" y="562" on="1"/>
        <pt x="1464" y="665" on="0"/>
        <pt x="1416" y="820" on="0"/>
        <pt x="1332" y="924" on="0"/>
        <pt x="1219" y="976" on="0"/>
      </contour>
    </TTGlyph>
    <TTGlyph name="agrave" xMin="120" yMin="-16" xMax="788" yMax="1416">
      <component glyphName="a" x="0" y="0" flags="0x204"/>
      <component glyphName="grave" x="208" y="0" flags="0x4"/>
    </TTGlyph>
    <TTGlyph name="ampersand" xMin="126" yMin="-16" xMax="1332" yMax="1416">
      <contour>
        <pt x="658" y="1416" on="1"/>
        <pt x="716" y="1416" on="0"/>
        <pt x="825" y="1373" on="0"/>
        <pt x="910" y="1301" on="0"/>
        <pt x="962" y="1205" on="0"/>
        <pt x="962" y="1152" on="1"/>
        <pt x="956" y="1152" on="1"/>
        <pt x="951" y="1152" on="0"/>
        <pt x="942" y="1159" on="0"/>
        <pt x="940" y="1168" on="1"/>
        <pt x="938" y="1195" on="0"/>
        <pt x="902" y="1273" on="0"/>
        <pt x="833" y="1345" on="0"/>
        <pt x="728" y="1396" on="0"/>
        <pt x="658" y="1396" on="1"/>
        <pt x="590" y="1396" on="0"/>
        <pt x="476" y="1354" on="0"/>
        <pt x="394" y="1279" on="0"/>
        <pt x="348" y="1174" on="0"/>
        <pt x="348" y="1110" on="1"/>
        <pt x="348" y="1017" on="0"/>
        <pt x="447" y="846" on="0"/>
        <pt x="546" y="752" on="1"/>
        <pt x="1022" y="296" on="1"/>
        <pt x="1073" y="372" on="0"/>
        <pt x="1131" y="534" on="0"/>
        <pt x="1140" y="606" on="1"/>
        <pt x="1142" y="614" on="0"/>
        <pt x="1146" y="622" on="0"/>
        <pt x="1154" y="622" on="1"/>
        <pt x="1162" y="622" on="1"/>
        <pt x="1159" y="547" on="0"/>
        <pt x="1097" y="368" on="0"/>
        <pt x="1038" y="281" on="1"/>
        <pt x="1332" y="0" on="1"/>
        <pt x="1316" y="0" on="1"/>
        <pt x="1307" y="0" on="0"/>
        <pt x="1295" y="2" on="0"/>
        <pt x="1286" y="10" on="1"/>
        <pt x="1025" y="263" on="1"/>
        <pt x="984" y="206" on="0"/>
        <pt x="878" y="105" on="0"/>
        <pt x="749" y="28" on="0"/>
        <pt x="599" y="-16" on="0"/>
        <pt x="514" y="-16" on="1"/>
        <pt x="443" y="-16" on="0"/>
        <pt x="304" y="31" on="0"/>
        <pt x="194" y="122" on="0"/>
        <pt x="126" y="256" on="0"/>
        <pt x="126" y="344" on="1"/>
        <pt x="126" y="419" on="0"/>
        <pt x="182" y="555" on="0"/>
        <pt x="281" y="667" on="0"/>
        <pt x="413" y="752" on="0"/>
        <pt x="490" y="777" on="1"/>
        <pt x="449" y="820" on="0"/>
        <pt x="387" y="899" on="0"/>
        <pt x="345" y="978" on="0"/>
        <pt x="324" y="1062" on="0"/>
        <pt x="324" y="1110" on="1"/>
        <pt x="324" y="1177" on="0"/>
        <pt x="373" y="1289" on="0"/>
        <pt x="462" y="1370" on="0"/>
        <pt x="584" y="1416" on="0"/>
      </contour>
      <contour>
        <pt x="150" y="344" on="1"/>
        <pt x="150" y="257" on="0"/>
        <pt x="219" y="129" on="0"/>
        <pt x="326" y="45" on="0"/>
        <pt x="455" y="4" on="0"/>
        <pt x="514" y="4" on="1"/>
        <pt x="598" y="4" on="0"/>
        <pt x="744" y="47" on="0"/>
        <pt x="869" y="121" on="0"/>
        <pt x="971" y="221" on="0"/>
        <pt x="1010" y="277" on="1"/>
        <pt x="505" y="762" on="1"/>
        <pt x="429" y="738" on="0"/>
        <pt x="299" y="654" on="0"/>
        <pt x="204" y="545" on="0"/>
        <pt x="150" y="415" on="0"/>
      </contour>
    </TTGlyph>
    <TTGlyph name="aogonek" xMin="120" yMin="-334" xMax="920" yMax="996">
      <contour>
        <pt x="906" y="-270" on="1"/>
        <pt x="910" y="-270" on="0"/>
        <pt x="914" y="-274" on="1"/>
        <pt x="920" y="-280" on="1"/>
        <pt x="894" y="-306" on="0"/>
        <pt x="816" y="-334" on="0"/>
        <pt x="774" y="-334" on="1"/>
        <pt x="708" y="-334" on="0"/>
        <pt x="620" y="-264" on="0"/>
        <pt x="620" y="-196" on="1"/>
        <pt x="620" y="-161" on="0"/>
        <pt x="649" y="-98" on="0"/>
        <pt x="694" y="-46" on="0"/>
        <pt x="746" y="-4" on="0"/>
        <pt x="770" y="10" on="1"/>
        <pt x="764" y="175" on="1"/>
        <pt x="722" y="131" on="0"/>
        <pt x="638" y="60" on="0"/>
        <pt x="544" y="11" on="0"/>
        <pt x="436" y="-16" on="0"/>
        <pt x="370" y="-16" on="1"/>
        <pt x="326" y="-16" on="0"/>
        <pt x="237" y="11" on="0"/>
        <pt x="165" y="70" on="0"/>
        <pt x="120" y="163" on="0"/>
        <pt x="120" y="230" on="1"/>
        <pt x="120" y="296" on="0"/>
        <pt x="197" y="401" on="0"/>
        <pt x="356" y="475" on="0"/>
        <pt x="598" y="518" on="0"/>
        <pt x="764" y="522" on="1"/>
        <pt x="764" y="648" on="1"/>
        <pt x="764" y="725" on="0"/>
        <pt x="730" y="847" on="0"/>
        <pt x="664" y="931" on="0"/>
        <pt x="564" y="976" on="0"/>
        <pt x="498" y="976" on="1"/>
        <pt x="446" y="976" on="0"/>
        <pt x="362" y="954" on="0"/>
        <pt x="296" y="922" on="0"/>
        <pt x="247" y="884" on="0"/>
        <pt x="211" y="852" on="0"/>
        <pt x="189" y="830" on="0"/>
        <pt x="184" y="830" on="1"/>
        <pt x="180" y="830" on="0"/>
        <pt x="174" y="836" on="1"/>
        <pt x="170" y="840" on="1"/>
        <pt x="242" y="916" on="0"/>
        <pt x="396" y="996" on="0"/>
        <pt x="498" y="996" on="1"/>
        <pt x="573" y="996" on="0"/>
        <pt x="682" y="948" on="0"/>
        <pt x="754" y="858" on="0"/>
        <pt x="788" y="729" on="0"/>
        <pt x="788" y="648" on="1"/>
        <pt x="788" y="0" on="1"/>
        <pt x="768" y="-11" on="0"/>
        <pt x="717" y="-48" on="0"/>
        <pt x="672" y="-98" on="0"/>
        <pt x="642" y="-160" on="0"/>
        <pt x="642" y="-196" on="1"/>
        <pt x="642" y="-252" on="0"/>
        <pt x="719" y="-314" on="0"/>
        <pt x="776" y="-314" on="1"/>
        <pt x="808" y="-314" on="0"/>
        <pt x="853" y="-300" on="0"/>
        <pt x="883" y="-284" on="0"/>
        <pt x="901" y="-270" on="0"/>
      </contour>
      <contour>
        <pt x="370" y="4" on="1"/>
        <pt x="439" y="4" on="0"/>
        <pt x="551" y="36" on="0"/>
        <pt x="645" y="90" on="0"/>
        <pt x="726" y="161" on="0"/>
        <pt x="764" y="200" on="1"/>
        <pt x="764" y="502" on="1"/>
        <pt x="449" y="492" on="0"/>
        <pt x="144" y="355" on="0"/>
        <pt x="144" y="230" on="1"/>
        <pt x="144" y="171" on="0"/>
        <pt x="183" y="86" on="0"/>
        <pt x="246" y="31" on="0"/>
        <pt x="327" y="4" on="0"/>
      </contour>
    </TTGlyph>
    <TTGlyph name="approxequal" xMin="218" yMin="452" xMax="942" yMax="892">
      <contour>
        <pt x="776" y="768" on="1"/>
        <pt x="823" y="768" on="0"/>
        <pt x="904" y="811" on="0"/>
        <pt x="928" y="844" on="1"/>
        <pt x="942" y="834" on="1"/>
        <pt x="916" y="795" on="0"/>
        <pt x="827" y="748" on="0"/>
        <pt x="776" y="748" on="1"/>
        <pt x="725" y="748" on="0"/>
        <pt x="626" y="787" on="0"/>
        <pt x="528" y="833" on="0"/>
        <pt x="432" y="872" on="0"/>
        <pt x="384" y="872" on="1"/>
        <pt x="334" y="872" on="0"/>
        <pt x="256" y="829" on="0"/>
        <pt x="232" y="796" on="1"/>
        <pt x="218" y="806" on="1"/>
        <pt x="244" y="845" on="0"/>
        <pt x="330" y="892" on="0"/>
        <pt x="384" y="892" on="1"/>
        <pt x="436" y="892" on="0"/>
        <pt x="537" y="853" on="0"/>
        <pt x="634" y="807" on="0"/>
        <pt x="729" y="768" on="0"/>
      </contour>
      <contour>
        <pt x="776" y="472" on="1"/>
        <pt x="823" y="472" on="0"/>
        <pt x="904" y="515" on="0"/>
        <pt x="928" y="548" on="1"/>
        <pt x="942" y="538" on="1"/>
        <pt x="916" y="499" on="0"/>
        <pt x="827" y="452" on="0"/>
        <pt x="776" y="452" on="1"/>
        <pt x="725" y="452" on="0"/>
        <pt x="626" y="491" on="0"/>
        <pt x="528" y="537" on="0"/>
        <pt x="432" y="576" on="0"/>
        <pt x="384" y="576" on="1"/>
        <pt x="334" y="576" on="0"/>
        <pt x="256" y="533" on="0"/>
        <pt x="232" y="500" on="1"/>
        <pt x="218" y="510" on="1"/>
        <pt x="244" y="549" on="0"/>
        <pt x="330" y="596" on="0"/>
        <pt x="384" y="596" on="1"/>
        <pt x="436" y="596" on="0"/>
        <pt x="537" y="557" on="0"/>
        <pt x="634" y="511" on="0"/>
        <pt x="729" y="472" on="0"/>
      </contour>
    </TTGlyph>
    <TTGlyph name="aring" xMin="120" yMin="-16" xMax="788" yMax="1434">
      <component glyphName="a" x="0" y="0" flags="0x204"/>
      <component glyphName="ring" x="208" y="0" flags="0x4"/>
    </TTGlyph>
    <TTGlyph name="asciicircum" xMin="242" yMin="812" xMax="906" yMax="1400">
      <contour>
        <pt x="906" y="812" on="1"/>
        <pt x="892" y="812" on="1"/>
        <pt x="879" y="812" on="0"/>
        <pt x="872" y="826" on="1"/>
        <pt x="592" y="1332" on="1"/>
        <pt x="587" y="1342" on="0"/>
        <pt x="577" y="1361" on="0"/>
        <pt x="574" y="1372" on="1"/>
        <pt x="567" y="1352" on="0"/>
        <pt x="556" y="1332" on="1"/>
        <pt x="276" y="826" on="1"/>
        <pt x="273" y="821" on="0"/>
        <pt x="264" y="812" on="0"/>
        <pt x="256" y="812" on="1"/>
        <pt x="242" y="812" on="1"/>
        <pt x="568" y="1400" on="1"/>
        <pt x="580" y="1400" on="1"/>
      </contour>
    </TTGlyph>
    <TTGlyph name="asciitilde" xMin="160" yMin="452" xMax="1000" yMax="728">
      <contour>
        <pt x="796" y="528" on="1"/>
        <pt x="838" y="528" on="0"/>
        <pt x="905" y="559" on="0"/>
        <pt x="953" y="613" on="0"/>
        <pt x="979" y="686" on="0"/>
        <pt x="980" y="728" on="1"/>
        <pt x="1000" y="728" on="1"/>
        <pt x="1000" y="684" on="0"/>
        <pt x="973" y="605" on="0"/>
        <pt x="921" y="544" on="0"/>
        <pt x="845" y="508" on="0"/>
        <pt x="796" y="508" on="1"/>
        <pt x="745" y="508" on="0"/>
        <pt x="633" y="553" on="0"/>
        <pt x="521" y="607" on="0"/>
        <pt x="412" y="652" on="0"/>
        <pt x="364" y="652" on="1"/>
        <pt x="322" y="652" on="0"/>
        <pt x="255" y="621" on="0"/>
        <pt x="207" y="567" on="0"/>
        <pt x="181" y="494" on="0"/>
        <pt x="180" y="452" on="1"/>
        <pt x="160" y="452" on="1"/>
        <pt x="160" y="495" on="0"/>
        <pt x="187" y="575" on="0"/>
        <pt x="239" y="636" on="0"/>
        <pt x="315" y="672" on="0"/>
        <pt x="364" y="672" on="1"/>
        <pt x="415" y="672" on="0"/>
        <pt x="527" y="627" on="0"/>
        <pt x="639" y="573" on="0"/>
        <pt x="748" y="528" on="0"/>
      </contour>
    </TTGlyph>
    <TTGlyph name="asterisk" xMin="146" yMin="926" xMax="652" yMax="1482">
      <contour>
        <pt x="388" y="926" on="1"/>
        <pt x="388" y="1154" on="1"/>
        <pt x="388" y="1165" on="0"/>
        <pt x="391" y="1180" on="0"/>
        <pt x="395" y="1197" on="1"/>
        <pt x="382" y="1184" on="0"/>
        <pt x="372" y="1177" on="0"/>
        <pt x="360" y="1170" on="1"/>
        <pt x="158" y="1052" on="1"/>
        <pt x="148" y="1070" on="1"/>
        <pt x="350" y="1188" on="1"/>
        <pt x="360" y="1193" on="0"/>
        <pt x="375" y="1198" on="0"/>
        <pt x="391" y="1203" on="1"/>
        <pt x="374" y="1210" on="0"/>
        <pt x="360" y="1214" on="0"/>
        <pt x="350" y="1220" on="1"/>
        <pt x="146" y="1338" on="1"/>
        <pt x="156" y="1356" on="1"/>
        <pt x="360" y="1238" on="1"/>
        <pt x="365" y="1235" on="0"/>
        <pt x="372" y="1230" on="0"/>
        <pt x="378" y="1224" on="0"/>
        <pt x="387" y="1215" on="0"/>
        <pt x="395" y="1208" on="1"/>
        <pt x="391" y="1226" on="0"/>
        <pt x="388" y="1242" on="0"/>
        <pt x="388" y="1254" on="1"/>
        <pt x="388" y="1482" on="1"/>
        <pt x="408" y="1482" on="1"/>
        <pt x="408" y="1254" on="1"/>
        <pt x="408" y="1242" on="0"/>
        <pt x="407" y="1226" on="0"/>
        <pt x="402" y="1208" on="1"/>
        <pt x="416" y="1222" on="0"/>
        <pt x="427" y="1232" on="0"/>
        <pt x="438" y="1238" on="1"/>
        <pt x="640" y="1356" on="1"/>
        <pt x="650" y="1338" on="1"/>
        <pt x="448" y="1220" on="1"/>
        <pt x="438" y="1214" on="0"/>
        <pt x="423" y="1207" on="0"/>
        <pt x="408" y="1203" on="1"/>
        <pt x="425" y="1198" on="0"/>
        <pt x="438" y="1193" on="0"/>
        <pt x="448" y="1188" on="1"/>
        <pt x="652" y="1070" on="1"/>
        <pt x="642" y="1052" on="1"/>
        <pt x="438" y="1170" on="1"/>
        <pt x="433" y="1173" on="0"/>
        <pt x="426" y="1177" on="0"/>
        <pt x="419" y="1182" on="0"/>
        <pt x="409" y="1190" on="0"/>
        <pt x="402" y="1198" on="1"/>
        <pt x="405" y="1180" on="0"/>
        <pt x="408" y="1165" on="0"/>
        <pt x="408" y="1154" on="1"/>
        <pt x="408" y="926" on="1"/>
      </contour>
    </TTGlyph>
    <TTGlyph name="at" xMin="128" yMin="-236" xMax="1518" yMax="1306">
      <contour>
        <pt x="1168" y="190" on="1"/>
        <pt x="1078" y="190" on="0"/>
        <pt x="999" y="284" on="0"/>
        <pt x="999" y="363" on="1"/>
        <pt x="999" y="376" on="0"/>
        <pt x="1001" y="403" on="0"/>
        <pt x="1003" y="417" on="1"/>
        <pt x="952" y="302" on="0"/>
        <pt x="802" y="196" on="0"/>
        <pt x="712" y="196" on="1"/>
        <pt x="659" y="196" on="0"/>
        <pt x="583" y="233" on="0"/>
        <pt x="532" y="296" on="0"/>
        <pt x="508" y="381" on="0"/>
        <pt x="508" y="430" on="1"/>
        <pt x="508" y="486" on="0"/>
        <pt x="537" y="601" on="0"/>
        <pt x="593" y="706" on="0"/>
        <pt x="675" y="798" on="0"/>
        <pt x="779" y="865" on="0"/>
        <pt x="905" y="904" on="0"/>
        <pt x="978" y="904" on="1"/>
        <pt x="1019" y="904" on="0"/>
        <pt x="1104" y="889" on="0"/>
        <pt x="1134" y="874" on="1"/>
        <pt x="1046" y="538" on="1"/>
        <pt x="1032" y="486" on="0"/>
        <pt x="1020" y="404" on="0"/>
        <pt x="1020" y="371" on="1"/>
        <pt x="1020" y="321" on="0"/>
        <pt x="1045" y="258" on="0"/>
        <pt x="1087" y="223" on="0"/>
        <pt x="1141" y="210" on="0"/>
        <pt x="1170" y="210" on="1"/>
        <pt x="1234" y="210" on="0"/>
        <pt x="1352" y="273" on="0"/>
        <pt x="1442" y="392" on="0"/>
        <pt x="1496" y="563" on="0"/>
        <pt x="1496" y="670" on="1"/>
        <pt x="1496" y="827" on="0"/>
        <pt x="1391" y="1059" on="0"/>
        <pt x="1214" y="1212" on="0"/>
        <pt x="983" y="1286" on="0"/>
        <pt x="856" y="1286" on="1"/>
        <pt x="763" y="1286" on="0"/>
        <pt x="586" y="1237" on="0"/>
        <pt x="429" y="1144" on="0"/>
        <pt x="298" y="1010" on="0"/>
        <pt x="203" y="843" on="0"/>
        <pt x="150" y="644" on="0"/>
        <pt x="150" y="532" on="1"/>
        <pt x="150" y="350" on="0"/>
        <pt x="268" y="71" on="0"/>
        <pt x="469" y="-118" on="0"/>
        <pt x="737" y="-214" on="0"/>
        <pt x="886" y="-214" on="1"/>
        <pt x="1031" y="-214" on="0"/>
        <pt x="1286" y="-143" on="0"/>
        <pt x="1399" y="-68" on="1"/>
        <pt x="1403" y="-65" on="0"/>
        <pt x="1408" y="-65" on="1"/>
        <pt x="1415" y="-65" on="0"/>
        <pt x="1418" y="-71" on="1"/>
        <pt x="1424" y="-82" on="1"/>
        <pt x="1309" y="-159" on="0"/>
        <pt x="1043" y="-236" on="0"/>
        <pt x="886" y="-236" on="1"/>
        <pt x="729" y="-236" on="0"/>
        <pt x="453" y="-136" on="0"/>
        <pt x="247" y="59" on="0"/>
        <pt x="128" y="345" on="0"/>
        <pt x="128" y="532" on="1"/>
        <pt x="128" y="702" on="0"/>
        <pt x="244" y="987" on="0"/>
        <pt x="443" y="1192" on="0"/>
        <pt x="707" y="1306" on="0"/>
        <pt x="856" y="1306" on="1"/>
        <pt x="942" y="1306" on="0"/>
        <pt x="1108" y="1271" on="0"/>
        <pt x="1255" y="1202" on="0"/>
        <pt x="1379" y="1097" on="0"/>
        <pt x="1468" y="955" on="0"/>
        <pt x="1518" y="777" on="0"/>
        <pt x="1518" y="670" on="1"/>
        <pt x="1518" y="560" on="0"/>
        <pt x="1462" y="383" on="0"/>
        <pt x="1366" y="258" on="0"/>
        <pt x="1239" y="190" on="0"/>
      </contour>
      <contour>
        <pt x="716" y="216" on="1"/>
        <pt x="757" y="216" on="0"/>
        <pt x="845" y="244" on="0"/>
        <pt x="927" y="317" on="0"/>
        <pt x="998" y="444" on="0"/>
        <pt x="1024" y="542" on="1"/>
        <pt x="1108" y="866" on="1"/>
        <pt x="1077" y="874" on="0"/>
        <pt x="1021" y="884" on="0"/>
        <pt x="978" y="884" on="1"/>
        <pt x="909" y="884" on="0"/>
        <pt x="789" y="846" on="0"/>
        <pt x="690" y="781" on="0"/>
        <pt x="613" y="692" on="0"/>
        <pt x="560" y="591" on="0"/>
        <pt x="532" y="483" on="0"/>
        <pt x="532" y="430" on="1"/>
        <pt x="532" y="386" on="0"/>
        <pt x="555" y="308" on="0"/>
        <pt x="600" y="250" on="0"/>
        <pt x="669" y="216" on="0"/>
      </contour>
    </TTGlyph>
    <TTGlyph name="atilde" xMin="120" yMin="-16" xMax="788" yMax="1358">
      <component glyphName="a" x="0" y="0" flags="0x204"/>
      <component glyphName="tilde" x="208" y="0" flags="0x4"/>
    </TTGlyph>
    <TTGlyph name="b" xMin="190" yMin="-12" xMax="970" yMax="1440">
      <contour>
        <pt x="190" y="0" on="1"/>
        <pt x="190" y="1440" on="1"/>
        <pt x="214" y="1440" on="1"/>
        <pt x="214" y="778" on="1"/>
        <pt x="280" y="878" on="0"/>
        <pt x="467" y="996" on="0"/>
        <pt x="578" y="996" on="1"/>
        <pt x="768" y="996" on="0"/>
        <pt x="970" y="751" on="0"/>
        <pt x="970" y="496" on="1"/>
        <pt x="970" y="389" on="0"/>
        <pt x="915" y="204" on="0"/>
        <pt x="807" y="67" on="0"/>
        <pt x="646" y="-12" on="0"/>
        <pt x="540" y="-12" on="1"/>
        <pt x="431" y="-12" on="0"/>
        <pt x="269" y="74" on="0"/>
        <pt x="213" y="164" on="1"/>
        <pt x="210" y="14" on="1"/>
        <pt x="210" y="9" on="0"/>
        <pt x="206" y="0" on="0"/>
        <pt x="198" y="0" on="1"/>
      </contour>
      <contour>
        <pt x="578" y="976" on="1"/>
        <pt x="469" y="976" on="0"/>
        <pt x="282" y="854" on="0"/>
        <pt x="214" y="746" on="1"/>
        <pt x="214" y="195" on="1"/>
        <pt x="278" y="92" on="0"/>
        <pt x="436" y="8" on="0"/>
        <pt x="540" y="8" on="1"/>
        <pt x="643" y="8" on="0"/>
        <pt x="795" y="83" on="0"/>
        <pt x="896" y="215" on="0"/>
        <pt x="946" y="393" on="0"/>
        <pt x="946" y="496" on="1"/>
        <pt x="946" y="740" on="0"/>
        <pt x="759" y="976" on="0"/>
      </contour>
    </TTGlyph>
    <TTGlyph name="backslash" xMin="2" yMin="-78" xMax="672" yMax="1440">
      <contour>
        <pt x="2" y="1440" on="1"/>
        <pt x="12" y="1440" on="1"/>
        <pt x="26" y="1440" on="0"/>
        <pt x="32" y="1428" on="1"/>
        <pt x="672" y="-78" on="1"/>
        <pt x="664" y="-78" on="1"/>
        <pt x="658" y="-78" on="0"/>
        <pt x="645" y="-74" on="0"/>
        <pt x="642" y="-66" on="1"/>
      </contour>
    </TTGlyph>
    <TTGlyph name="bar" xMin="290" yMin="-360" xMax="310" yMax="1502">
      <contour>
        <pt x="290" y="1502" on="1"/>
        <pt x="310" y="1502" on="1"/>
        <pt x="310" y="-360" on="1"/>
        <pt x="290" y="-360" on="1"/>
      </contour>
    </TTGlyph>
    <TTGlyph name="braceleft" xMin="80" yMin="-242" xMax="480" yMax="1502">
      <contour>
        <pt x="252" y="462" on="1"/>
        <pt x="252" y="496" on="0"/>
        <pt x="226" y="554" on="0"/>
        <pt x="180" y="596" on="0"/>
        <pt x="117" y="620" on="0"/>
        <pt x="80" y="620" on="1"/>
        <pt x="80" y="640" on="1"/>
        <pt x="117" y="640" on="0"/>
        <pt x="180" y="663" on="0"/>
        <pt x="226" y="705" on="0"/>
        <pt x="252" y="763" on="0"/>
        <pt x="252" y="798" on="1"/>
        <pt x="252" y="856" on="0"/>
        <pt x="231" y="966" on="0"/>
        <pt x="205" y="1074" on="0"/>
        <pt x="184" y="1185" on="0"/>
        <pt x="184" y="1244" on="1"/>
        <pt x="184" y="1298" on="0"/>
        <pt x="219" y="1392" on="0"/>
        <pt x="282" y="1462" on="0"/>
        <pt x="371" y="1502" on="0"/>
        <pt x="424" y="1502" on="1"/>
        <pt x="480" y="1502" on="1"/>
        <pt x="480" y="1494" on="1"/>
        <pt x="480" y="1484" on="0"/>
        <pt x="468" y="1484" on="1"/>
        <pt x="424" y="1484" on="1"/>
        <pt x="377" y="1484" on="0"/>
        <pt x="298" y="1450" on="0"/>
        <pt x="239" y="1387" on="0"/>
        <pt x="206" y="1299" on="0"/>
        <pt x="206" y="1244" on="1"/>
        <pt x="206" y="1187" on="0"/>
        <pt x="227" y="1076" on="0"/>
        <pt x="253" y="965" on="0"/>
        <pt x="274" y="854" on="0"/>
        <pt x="274" y="798" on="1"/>
        <pt x="274" y="760" on="0"/>
        <pt x="247" y="701" on="0"/>
        <pt x="205" y="659" on="0"/>
        <pt x="153" y="634" on="0"/>
        <pt x="128" y="630" on="1"/>
        <pt x="153" y="625" on="0"/>
        <pt x="205" y="600" on="0"/>
        <pt x="247" y="558" on="0"/>
        <pt x="274" y="500" on="0"/>
        <pt x="274" y="462" on="1"/>
        <pt x="274" y="406" on="0"/>
        <pt x="253" y="295" on="0"/>
        <pt x="227" y="184" on="0"/>
        <pt x="206" y="73" on="0"/>
        <pt x="206" y="16" on="1"/>
        <pt x="206" y="-39" on="0"/>
        <pt x="239" y="-127" on="0"/>
        <pt x="298" y="-190" on="0"/>
        <pt x="377" y="-224" on="0"/>
        <pt x="424" y="-224" on="1"/>
        <pt x="468" y="-224" on="1"/>
        <pt x="480" y="-224" on="0"/>
        <pt x="480" y="-234" on="1"/>
        <pt x="480" y="-242" on="1"/>
        <pt x="424" y="-242" on="1"/>
        <pt x="371" y="-242" on="0"/>
        <pt x="282" y="-202" on="0"/>
        <pt x="219" y="-132" on="0"/>
        <pt x="184" y="-38" on="0"/>
        <pt x="184" y="16" on="1"/>
        <pt x="184" y="75" on="0"/>
        <pt x="205" y="186" on="0"/>
        <pt x="231" y="294" on="0"/>
        <pt x="252" y="403" on="0"/>
      </contour>
    </TTGlyph>
    <TTGlyph name="braceright" xMin="120" yMin="-242" xMax="520" yMax="1502">
      <contour>
        <pt x="348" y="462" on="1"/>
        <pt x="348" y="403" on="0"/>
        <pt x="369" y="294" on="0"/>
        <pt x="395" y="186" on="0"/>
        <pt x="416" y="75" on="0"/>
        <pt x="416" y="16" on="1"/>
        <pt x="416" y="-38" on="0"/>
        <pt x="381" y="-132" on="0"/>
        <pt x="318" y="-202" on="0"/>
        <pt x="229" y="-242" on="0"/>
        <pt x="176" y="-242" on="1"/>
        <pt x="120" y="-242" on="1"/>
        <pt x="120" y="-234" on="1"/>
        <pt x="120" y="-224" on="0"/>
        <pt x="132" y="-224" on="1"/>
        <pt x="176" y="-224" on="1"/>
        <pt x="222" y="-224" on="0"/>
        <pt x="302" y="-190" on="0"/>
        <pt x="361" y="-127" on="0"/>
        <pt x="394" y="-39" on="0"/>
        <pt x="394" y="16" on="1"/>
        <pt x="394" y="73" on="0"/>
        <pt x="373" y="184" on="0"/>
        <pt x="347" y="295" on="0"/>
        <pt x="326" y="406" on="0"/>
        <pt x="326" y="462" on="1"/>
        <pt x="326" y="500" on="0"/>
        <pt x="353" y="558" on="0"/>
        <pt x="395" y="600" on="0"/>
        <pt x="447" y="625" on="0"/>
        <pt x="471" y="630" on="1"/>
        <pt x="447" y="634" on="0"/>
        <pt x="395" y="659" on="0"/>
        <pt x="353" y="701" on="0"/>
        <pt x="326" y="760" on="0"/>
        <pt x="326" y="798" on="1"/>
        <pt x="326" y="854" on="0"/>
        <pt x="347" y="965" on="0"/>
        <pt x="373" y="1076" on="0"/>
        <pt x="394" y="1187" on="0"/>
        <pt x="394" y="1244" on="1"/>
        <pt x="394" y="1299" on="0"/>
        <pt x="361" y="1387" on="0"/>
        <pt x="302" y="1450" on="0"/>
        <pt x="222" y="1484" on="0"/>
        <pt x="176" y="1484" on="1"/>
        <pt x="132" y="1484" on="1"/>
        <pt x="120" y="1484" on="0"/>
        <pt x="120" y="1494" on="1"/>
        <pt x="120" y="1502" on="1"/>
        <pt x="176" y="1502" on="1"/>
        <pt x="229" y="1502" on="0"/>
        <pt x="318" y="1462" on="0"/>
        <pt x="381" y="1392" on="0"/>
        <pt x="416" y="1298" on="0"/>
        <pt x="416" y="1244" on="1"/>
        <pt x="416" y="1185" on="0"/>
        <pt x="395" y="1074" on="0"/>
        <pt x="369" y="966" on="0"/>
        <pt x="348" y="856" on="0"/>
        <pt x="348" y="798" on="1"/>
        <pt x="348" y="763" on="0"/>
        <pt x="374" y="705" on="0"/>
        <pt x="420" y="663" on="0"/>
        <pt x="483" y="640" on="0"/>
        <pt x="520" y="640" on="1"/>
        <pt x="520" y="620" on="1"/>
        <pt x="483" y="620" on="0"/>
        <pt x="420" y="596" on="0"/>
        <pt x="374" y="554" on="0"/>
        <pt x="348" y="496" on="0"/>
      </contour>
    </TTGlyph>
    <TTGlyph name="bracketleft" xMin="204" yMin="-242" xMax="478" yMax="1502">
      <contour>
        <pt x="204" y="-242" on="1"/>
        <pt x="204" y="1502" on="1"/>
        <pt x="478" y="1502" on="1"/>
        <pt x="478" y="1496" on="1"/>
        <pt x="478" y="1484" on="0"/>
        <pt x="464" y="1484" on="1"/>
        <pt x="226" y="1484" on="1"/>
        <pt x="226" y="-224" on="1"/>
        <pt x="464" y="-224" on="1"/>
        <pt x="478" y="-224" on="0"/>
        <pt x="478" y="-236" on="1"/>
        <pt x="478" y="-242" on="1"/>
      </contour>
    </TTGlyph>
    <TTGlyph name="bracketright" xMin="122" yMin="-242" xMax="396" yMax="1502">
      <contour>
        <pt x="122" y="-236" on="1"/>
        <pt x="122" y="-224" on="0"/>
        <pt x="136" y="-224" on="1"/>
        <pt x="374" y="-224" on="1"/>
        <pt x="374" y="1484" on="1"/>
        <pt x="136" y="1484" on="1"/>
        <pt x="122" y="1484" on="0"/>
        <pt x="122" y="1496" on="1"/>
        <pt x="122" y="1502" on="1"/>
        <pt x="396" y="1502" on="1"/>
        <pt x="396" y="-242" on="1"/>
        <pt x="122" y="-242" on="1"/>
      </contour>
    </TTGlyph>
    <TTGlyph name="breve" xMin="70" yMin="1172" xMax="490" yMax="1400">
      <contour>
        <pt x="280" y="1172" on="1"/>
        <pt x="224" y="1172" on="0"/>
        <pt x="144" y="1208" on="0"/>
        <pt x="93" y="1271" on="0"/>
        <pt x="70" y="1353" on="0"/>
        <pt x="70" y="1400" on="1"/>
        <pt x="90" y="1400" on="1"/>
        <pt x="90" y="1359" on="0"/>
        <pt x="110" y="1284" on="0"/>
        <pt x="155" y="1227" on="0"/>
        <pt x="227" y="1192" on="0"/>
        <pt x="280" y="1192" on="1"/>
        <pt x="332" y="1192" on="0"/>
        <pt x="405" y="1227" on="0"/>
        <pt x="450" y="1284" on="0"/>
        <pt x="470" y="1359" on="0"/>
        <pt x="470" y="1400" on="1"/>
        <pt x="490" y="1400" on="1"/>
        <pt x="490" y="1353" on="0"/>
        <pt x="467" y="1271" on="0"/>
        <pt x="416" y="1208" on="0"/>
        <pt x="336" y="1172" on="0"/>
      </contour>
    </TTGlyph>
    <TTGlyph name="breve.case" xMin="70" yMin="1528" xMax="490" yMax="1728">
      <contour>
        <pt x="280" y="1528" on="1"/>
        <pt x="224" y="1528" on="0"/>
        <pt x="144" y="1556" on="0"/>
        <pt x="93" y="1607" on="0"/>
        <pt x="70" y="1681" on="0"/>
        <pt x="70" y="1728" on="1"/>
        <pt x="90" y="1728" on="1"/>
        <pt x="90" y="1687" on="0"/>
        <pt x="110" y="1621" on="0"/>
        <pt x="155" y="1574" on="0"/>
        <pt x="227" y="1548" on="0"/>
        <pt x="280" y="1548" on="1"/>
        <pt x="332" y="1548" on="0"/>
        <pt x="405" y="1574" on="0"/>
        <pt x="450" y="1621" on="0"/>
        <pt x="470" y="1687" on="0"/>
        <pt x="470" y="1728" on="1"/>
        <pt x="490" y="1728" on="1"/>
        <pt x="490" y="1635" on="0"/>
        <pt x="392" y="1528" on="0"/>
      </contour>
    </TTGlyph>
    <TTGlyph name="brokenbar" xMin="290" yMin="-360" xMax="310" yMax="1502">
      <contour>
        <pt x="290" y="1502" on="1"/>
        <pt x="310" y="1502" on="1"/>
        <pt x="310" y="740" on="1"/>
        <pt x="290" y="740" on="1"/>
      </contour>
      <contour>
        <pt x="290" y="402" on="1"/>
        <pt x="310" y="402" on="1"/>
        <pt x="310" y="-360" on="1"/>
        <pt x="290" y="-360" on="1"/>
      </contour>
    </TTGlyph>
    <TTGlyph name="bullet" xMin="354" yMin="374" xMax="806" yMax="826">
      <contour>
        <pt x="354" y="598" on="1"/>
        <pt x="354" y="645" on="0"/>
        <pt x="390" y="728" on="0"/>
        <pt x="451" y="790" on="0"/>
        <pt x="532" y="826" on="0"/>
        <pt x="578" y="826" on="1"/>
        <pt x="625" y="826" on="0"/>
        <pt x="708" y="790" on="0"/>
        <pt x="770" y="728" on="0"/>
        <pt x="806" y="645" on="0"/>
        <pt x="806" y="598" on="1"/>
        <pt x="806" y="552" on="0"/>
        <pt x="770" y="471" on="0"/>
        <pt x="708" y="410" on="0"/>
        <pt x="625" y="374" on="0"/>
        <pt x="578" y="374" on="1"/>
        <pt x="532" y="374" on="0"/>
        <pt x="451" y="410" on="0"/>
        <pt x="390" y="471" on="0"/>
        <pt x="354" y="552" on="0"/>
      </contour>
    </TTGlyph>
    <TTGlyph name="c" xMin="100" yMin="-12" xMax="822" yMax="996">
      <contour>
        <pt x="800" y="888" on="1"/>
        <pt x="796" y="884" on="0"/>
        <pt x="792" y="884" on="1"/>
        <pt x="786" y="884" on="0"/>
        <pt x="753" y="913" on="0"/>
        <pt x="690" y="947" on="0"/>
        <pt x="595" y="976" on="0"/>
        <pt x="528" y="976" on="1"/>
        <pt x="433" y="976" on="0"/>
        <pt x="283" y="908" on="0"/>
        <pt x="179" y="782" on="0"/>
        <pt x="124" y="602" on="0"/>
        <pt x="124" y="490" on="1"/>
        <pt x="124" y="374" on="0"/>
        <pt x="179" y="195" on="0"/>
        <pt x="281" y="72" on="0"/>
        <pt x="424" y="8" on="0"/>
        <pt x="512" y="8" on="1"/>
        <pt x="590" y="8" on="0"/>
        <pt x="698" y="44" on="0"/>
        <pt x="768" y="88" on="0"/>
        <pt x="804" y="124" on="0"/>
        <pt x="810" y="124" on="1"/>
        <pt x="814" y="124" on="0"/>
        <pt x="818" y="120" on="1"/>
        <pt x="822" y="116" on="1"/>
        <pt x="807" y="94" on="0"/>
        <pt x="749" y="49" on="0"/>
        <pt x="669" y="12" on="0"/>
        <pt x="569" y="-12" on="0"/>
        <pt x="512" y="-12" on="1"/>
        <pt x="417" y="-12" on="0"/>
        <pt x="265" y="56" on="0"/>
        <pt x="158" y="185" on="0"/>
        <pt x="100" y="371" on="0"/>
        <pt x="100" y="490" on="1"/>
        <pt x="100" y="604" on="0"/>
        <pt x="158" y="791" on="0"/>
        <pt x="268" y="923" on="0"/>
        <pt x="427" y="996" on="0"/>
        <pt x="528" y="996" on="1"/>
        <pt x="617" y="996" on="0"/>
        <pt x="756" y="939" on="0"/>
        <pt x="806" y="894" on="1"/>
      </contour>
    </TTGlyph>
    <TTGlyph name="cacute" xMin="100" yMin="-12" xMax="822" yMax="1416">
      <component glyphName="c" x="0" y="0" flags="0x204"/>
      <component glyphName="acute" x="252" y="0" flags="0x4"/>
    </TTGlyph>
    <TTGlyph name="caron" xMin="60" yMin="1170" xMax="500" yMax="1400">
      <contour>
        <pt x="288" y="1170" on="1"/>
        <pt x="272" y="1170" on="1"/>
        <pt x="60" y="1400" on="1"/>
        <pt x="78" y="1400" on="1"/>
        <pt x="86" y="1400" on="0"/>
        <pt x="94" y="1392" on="1"/>
        <pt x="274" y="1196" on="1"/>
        <pt x="280" y="1189" on="1"/>
        <pt x="286" y="1196" on="1"/>
        <pt x="466" y="1392" on="1"/>
        <pt x="474" y="1400" on="0"/>
        <pt x="482" y="1400" on="1"/>
        <pt x="500" y="1400" on="1"/>
      </contour>
    </TTGlyph>
    <TTGlyph name="caron.case" xMin="40" yMin="1538" xMax="520" yMax="1728">
      <contour>
        <pt x="40" y="1728" on="1"/>
        <pt x="60" y="1728" on="1"/>
        <pt x="65" y="1728" on="0"/>
        <pt x="75" y="1725" on="0"/>
        <pt x="80" y="1720" on="1"/>
        <pt x="276" y="1560" on="1"/>
        <pt x="280" y="1555" on="1"/>
        <pt x="284" y="1560" on="1"/>
        <pt x="480" y="1720" on="1"/>
        <pt x="485" y="1725" on="0"/>
        <pt x="495" y="1728" on="0"/>
        <pt x="500" y="1728" on="1"/>
        <pt x="520" y="1728" on="1"/>
        <pt x="288" y="1538" on="1"/>
        <pt x="272" y="1538" on="1"/>
      </contour>
    </TTGlyph>
    <TTGlyph name="caron.salt" xMin="248" yMin="1162" xMax="320" yMax="1442">
      <contour>
        <pt x="304" y="1442" on="1"/>
        <pt x="320" y="1442" on="0"/>
        <pt x="320" y="1420" on="1"/>
        <pt x="320" y="1409" on="0"/>
        <pt x="313" y="1371" on="0"/>
        <pt x="300" y="1312" on="0"/>
        <pt x="281" y="1231" on="0"/>
        <pt x="268" y="1176" on="1"/>
        <pt x="266" y="1170" on="0"/>
        <pt x="262" y="1162" on="0"/>
        <pt x="254" y="1162" on="1"/>
        <pt x="248" y="1162" on="1"/>
        <pt x="294" y="1442" on="1"/>
      </contour>
    </TTGlyph>
    <TTGlyph name="ccedilla" xMin="100" yMin="-358" xMax="822" yMax="996">
      <contour>
        <pt x="388" y="-296" on="1"/>
        <pt x="392" y="-296" on="0"/>
        <pt x="410" y="-310" on="0"/>
        <pt x="442" y="-326" on="0"/>
        <pt x="489" y="-340" on="0"/>
        <pt x="524" y="-340" on="1"/>
        <pt x="584" y="-340" on="0"/>
        <pt x="652" y="-287" on="0"/>
        <pt x="652" y="-240" on="1"/>
        <pt x="652" y="-209" on="0"/>
        <pt x="622" y="-169" on="0"/>
        <pt x="570" y="-144" on="0"/>
        <pt x="500" y="-131" on="0"/>
        <pt x="460" y="-126" on="1"/>
        <pt x="496" y="-11" on="1"/>
        <pt x="405" y="-8" on="0"/>
        <pt x="258" y="62" on="0"/>
        <pt x="155" y="190" on="0"/>
        <pt x="100" y="374" on="0"/>
        <pt x="100" y="490" on="1"/>
        <pt x="100" y="604" on="0"/>
        <pt x="158" y="791" on="0"/>
        <pt x="268" y="923" on="0"/>
        <pt x="427" y="996" on="0"/>
        <pt x="528" y="996" on="1"/>
        <pt x="617" y="996" on="0"/>
        <pt x="756" y="939" on="0"/>
        <pt x="806" y="894" on="1"/>
        <pt x="800" y="888" on="1"/>
        <pt x="796" y="884" on="0"/>
        <pt x="792" y="884" on="1"/>
        <pt x="786" y="884" on="0"/>
        <pt x="753" y="913" on="0"/>
        <pt x="690" y="947" on="0"/>
        <pt x="595" y="976" on="0"/>
        <pt x="528" y="976" on="1"/>
        <pt x="433" y="976" on="0"/>
        <pt x="283" y="908" on="0"/>
        <pt x="179" y="782" on="0"/>
        <pt x="124" y="602" on="0"/>
        <pt x="124" y="490" on="1"/>
        <pt x="124" y="374" on="0"/>
        <pt x="179" y="195" on="0"/>
        <pt x="281" y="72" on="0"/>
        <pt x="424" y="8" on="0"/>
        <pt x="512" y="8" on="1"/>
        <pt x="590" y="8" on="0"/>
        <pt x="698" y="44" on="0"/>
        <pt x="768" y="88" on="0"/>
        <pt x="804" y="124" on="0"/>
        <pt x="810" y="124" on="1"/>
        <pt x="814" y="124" on="0"/>
        <pt x="818" y="120" on="1"/>
        <pt x="822" y="116" on="1"/>
        <pt x="807" y="94" on="0"/>
        <pt x="749" y="49" on="0"/>
        <pt x="670" y="12" on="0"/>
        <pt x="571" y="-12" on="0"/>
        <pt x="514" y="-12" on="1"/>
        <pt x="483" y="-109" on="1"/>
        <pt x="526" y="-116" on="0"/>
        <pt x="596" y="-134" on="0"/>
        <pt x="646" y="-164" on="0"/>
        <pt x="674" y="-207" on="0"/>
        <pt x="674" y="-238" on="1"/>
        <pt x="674" y="-267" on="0"/>
        <pt x="651" y="-311" on="0"/>
        <pt x="609" y="-342" on="0"/>
        <pt x="552" y="-358" on="0"/>
        <pt x="518" y="-358" on="1"/>
        <pt x="477" y="-358" on="0"/>
        <pt x="397" y="-329" on="0"/>
        <pt x="374" y="-306" on="1"/>
        <pt x="378" y="-302" on="1"/>
        <pt x="384" y="-296" on="0"/>
      </contour>
    </TTGlyph>
    <TTGlyph name="cedilla" xMin="132" yMin="-358" xMax="432" yMax="0">
      <contour>
        <pt x="146" y="-296" on="1"/>
        <pt x="150" y="-296" on="0"/>
        <pt x="168" y="-310" on="0"/>
        <pt x="200" y="-326" on="0"/>
        <pt x="247" y="-340" on="0"/>
        <pt x="282" y="-340" on="1"/>
        <pt x="342" y="-340" on="0"/>
        <pt x="410" y="-287" on="0"/>
        <pt x="410" y="-240" on="1"/>
        <pt x="410" y="-209" on="0"/>
        <pt x="380" y="-169" on="0"/>
        <pt x="328" y="-144" on="0"/>
        <pt x="258" y="-131" on="0"/>
        <pt x="218" y="-126" on="1"/>
        <pt x="258" y="0" on="1"/>
        <pt x="276" y="0" on="1"/>
        <pt x="241" y="-109" on="1"/>
        <pt x="284" y="-116" on="0"/>
        <pt x="354" y="-134" on="0"/>
        <pt x="404" y="-164" on="0"/>
        <pt x="432" y="-207" on="0"/>
        <pt x="432" y="-238" on="1"/>
        <pt x="432" y="-267" on="0"/>
        <pt x="409" y="-311" on="0"/>
        <pt x="367" y="-342" on="0"/>
        <pt x="310" y="-358" on="0"/>
        <pt x="276" y="-358" on="1"/>
        <pt x="235" y="-358" on="0"/>
        <pt x="155" y="-329" on="0"/>
        <pt x="132" y="-306" on="1"/>
        <pt x="136" y="-302" on="1"/>
        <pt x="142" y="-296" on="0"/>
      </contour>
    </TTGlyph>
    <TTGlyph name="cent" xMin="176" yMin="-268" xMax="968" yMax="1242">
      <contour>
        <pt x="612" y="-11" on="1"/>
        <pt x="512" y="-8" on="0"/>
        <pt x="351" y="62" on="0"/>
        <pt x="237" y="190" on="0"/>
        <pt x="176" y="374" on="0"/>
        <pt x="176" y="490" on="1"/>
        <pt x="176" y="604" on="0"/>
        <pt x="240" y="791" on="0"/>
        <pt x="360" y="923" on="0"/>
        <pt x="535" y="996" on="0"/>
        <pt x="646" y="996" on="1"/>
        <pt x="654" y="1226" on="1"/>
        <pt x="654" y="1242" on="0"/>
        <pt x="666" y="1242" on="1"/>
        <pt x="676" y="1242" on="1"/>
        <pt x="667" y="995" on="1"/>
        <pt x="758" y="992" on="0"/>
        <pt x="899" y="936" on="0"/>
        <pt x="950" y="894" on="1"/>
        <pt x="944" y="888" on="1"/>
        <pt x="940" y="884" on="0"/>
        <pt x="936" y="884" on="1"/>
        <pt x="930" y="884" on="0"/>
        <pt x="896" y="911" on="0"/>
        <pt x="832" y="944" on="0"/>
        <pt x="735" y="974" on="0"/>
        <pt x="667" y="976" on="1"/>
        <pt x="634" y="8" on="1"/>
        <pt x="718" y="9" on="0"/>
        <pt x="836" y="45" on="0"/>
        <pt x="911" y="88" on="0"/>
        <pt x="950" y="124" on="0"/>
        <pt x="956" y="124" on="1"/>
        <pt x="960" y="124" on="0"/>
        <pt x="964" y="120" on="1"/>
        <pt x="968" y="116" on="1"/>
        <pt x="952" y="94" on="0"/>
        <pt x="890" y="49" on="0"/>
        <pt x="804" y="13" on="0"/>
        <pt x="696" y="-11" on="0"/>
        <pt x="634" y="-12" on="1"/>
        <pt x="626" y="-252" on="1"/>
        <pt x="626" y="-268" on="0"/>
        <pt x="614" y="-268" on="1"/>
        <pt x="604" y="-268" on="1"/>
      </contour>
      <contour>
        <pt x="200" y="490" on="1"/>
        <pt x="200" y="377" on="0"/>
        <pt x="259" y="200" on="0"/>
        <pt x="367" y="77" on="0"/>
        <pt x="519" y="11" on="0"/>
        <pt x="613" y="8" on="1"/>
        <pt x="645" y="976" on="1"/>
        <pt x="540" y="976" on="0"/>
        <pt x="375" y="908" on="0"/>
        <pt x="261" y="782" on="0"/>
        <pt x="200" y="602" on="0"/>
      </contour>
    </TTGlyph>
    <TTGlyph name="circumflex" xMin="60" yMin="1170" xMax="500" yMax="1400">
      <contour>
        <pt x="500" y="1170" on="1"/>
        <pt x="482" y="1170" on="1"/>
        <pt x="474" y="1170" on="0"/>
        <pt x="466" y="1178" on="1"/>
        <pt x="286" y="1374" on="1"/>
        <pt x="280" y="1380" on="1"/>
        <pt x="274" y="1374" on="1"/>
        <pt x="94" y="1178" on="1"/>
        <pt x="91" y="1175" on="0"/>
        <pt x="83" y="1170" on="0"/>
        <pt x="78" y="1170" on="1"/>
        <pt x="60" y="1170" on="1"/>
        <pt x="272" y="1400" on="1"/>
        <pt x="288" y="1400" on="1"/>
      </contour>
    </TTGlyph>
    <TTGlyph name="circumflex.case" xMin="40" yMin="1538" xMax="520" yMax="1728">
      <contour>
        <pt x="520" y="1538" on="1"/>
        <pt x="500" y="1538" on="1"/>
        <pt x="491" y="1538" on="0"/>
        <pt x="480" y="1546" on="1"/>
        <pt x="291" y="1700" on="1"/>
        <pt x="284" y="1705" on="0"/>
        <pt x="281" y="1710" on="0"/>
        <pt x="280" y="1711" on="1"/>
        <pt x="279" y="1710" on="0"/>
        <pt x="274" y="1705" on="0"/>
        <pt x="266" y="1698" on="1"/>
        <pt x="80" y="1546" on="1"/>
        <pt x="69" y="1538" on="0"/>
        <pt x="60" y="1538" on="1"/>
        <pt x="40" y="1538" on="1"/>
        <pt x="272" y="1728" on="1"/>
        <pt x="288" y="1728" on="1"/>
      </contour>
    </TTGlyph>
    <TTGlyph name="colon" xMin="160" yMin="-16" xMax="290" yMax="952">
      <contour>
        <pt x="160" y="48" on="1"/>
        <pt x="160" y="75" on="0"/>
        <pt x="197" y="114" on="0"/>
        <pt x="224" y="114" on="1"/>
        <pt x="251" y="114" on="0"/>
        <pt x="290" y="75" on="0"/>
        <pt x="290" y="48" on="1"/>
        <pt x="290" y="21" on="0"/>
        <pt x="251" y="-16" on="0"/>
        <pt x="224" y="-16" on="1"/>
        <pt x="197" y="-16" on="0"/>
        <pt x="160" y="21" on="0"/>
      </contour>
      <contour>
        <pt x="160" y="886" on="1"/>
        <pt x="160" y="913" on="0"/>
        <pt x="197" y="952" on="0"/>
        <pt x="224" y="952" on="1"/>
        <pt x="251" y="952" on="0"/>
        <pt x="290" y="913" on="0"/>
        <pt x="290" y="886" on="1"/>
        <pt x="290" y="859" on="0"/>
        <pt x="251" y="822" on="0"/>
        <pt x="224" y="822" on="1"/>
        <pt x="197" y="822" on="0"/>
        <pt x="160" y="859" on="0"/>
      </contour>
    </TTGlyph>
    <TTGlyph name="comma" xMin="122" yMin="-238" xMax="246" yMax="114">
      <contour>
        <pt x="124" y="52" on="1"/>
        <pt x="124" y="76" on="0"/>
        <pt x="157" y="114" on="0"/>
        <pt x="184" y="114" on="1"/>
        <pt x="211" y="114" on="0"/>
        <pt x="246" y="74" on="0"/>
        <pt x="246" y="36" on="1"/>
        <pt x="246" y="-41" on="0"/>
        <pt x="179" y="-184" on="0"/>
        <pt x="128" y="-238" on="1"/>
        <pt x="125" y="-235" on="1"/>
        <pt x="122" y="-232" on="0"/>
        <pt x="122" y="-229" on="1"/>
        <pt x="122" y="-226" on="0"/>
        <pt x="127" y="-219" on="1"/>
        <pt x="137" y="-206" on="0"/>
        <pt x="171" y="-161" on="0"/>
        <pt x="203" y="-101" on="0"/>
        <pt x="226" y="-29" on="0"/>
        <pt x="226" y="11" on="1"/>
        <pt x="209" y="-8" on="0"/>
        <pt x="180" y="-8" on="1"/>
        <pt x="156" y="-8" on="0"/>
        <pt x="124" y="25" on="0"/>
      </contour>
    </TTGlyph>
    <TTGlyph name="copyright" xMin="100" yMin="-14" xMax="1528" yMax="1414">
      <contour>
        <pt x="1136" y="384" on="1"/>
        <pt x="1138" y="386" on="0"/>
        <pt x="1142" y="386" on="1"/>
        <pt x="1146" y="386" on="0"/>
        <pt x="1152" y="380" on="1"/>
        <pt x="1156" y="376" on="1"/>
        <pt x="1126" y="350" on="0"/>
        <pt x="1059" y="306" on="0"/>
        <pt x="978" y="274" on="0"/>
        <pt x="882" y="256" on="0"/>
        <pt x="824" y="256" on="1"/>
        <pt x="729" y="256" on="0"/>
        <pt x="570" y="318" on="0"/>
        <pt x="455" y="433" on="0"/>
        <pt x="390" y="597" on="0"/>
        <pt x="390" y="700" on="1"/>
        <pt x="390" y="800" on="0"/>
        <pt x="455" y="964" on="0"/>
        <pt x="573" y="1081" on="0"/>
        <pt x="738" y="1146" on="0"/>
        <pt x="838" y="1146" on="1"/>
        <pt x="889" y="1146" on="0"/>
        <pt x="971" y="1133" on="0"/>
        <pt x="1042" y="1108" on="0"/>
        <pt x="1106" y="1069" on="0"/>
        <pt x="1138" y="1044" on="1"/>
        <pt x="1134" y="1038" on="1"/>
        <pt x="1131" y="1034" on="0"/>
        <pt x="1126" y="1034" on="1"/>
        <pt x="1118" y="1034" on="0"/>
        <pt x="1084" y="1063" on="0"/>
        <pt x="1018" y="1097" on="0"/>
        <pt x="915" y="1126" on="0"/>
        <pt x="838" y="1126" on="1"/>
        <pt x="744" y="1126" on="0"/>
        <pt x="588" y="1067" on="0"/>
        <pt x="476" y="956" on="0"/>
        <pt x="414" y="798" on="0"/>
        <pt x="414" y="700" on="1"/>
        <pt x="414" y="600" on="0"/>
        <pt x="476" y="443" on="0"/>
        <pt x="585" y="334" on="0"/>
        <pt x="735" y="276" on="0"/>
        <pt x="824" y="276" on="1"/>
        <pt x="881" y="276" on="0"/>
        <pt x="970" y="290" on="0"/>
        <pt x="1043" y="317" on="0"/>
        <pt x="1105" y="358" on="0"/>
      </contour>
      <contour>
        <pt x="100" y="700" on="1"/>
        <pt x="100" y="848" on="0"/>
        <pt x="212" y="1108" on="0"/>
        <pt x="406" y="1302" on="0"/>
        <pt x="666" y="1414" on="0"/>
        <pt x="814" y="1414" on="1"/>
        <pt x="962" y="1414" on="0"/>
        <pt x="1222" y="1302" on="0"/>
        <pt x="1416" y="1108" on="0"/>
        <pt x="1528" y="848" on="0"/>
        <pt x="1528" y="700" on="1"/>
        <pt x="1528" y="552" on="0"/>
        <pt x="1416" y="292" on="0"/>
        <pt x="1222" y="98" on="0"/>
        <pt x="962" y="-14" on="0"/>
        <pt x="814" y="-14" on="1"/>
        <pt x="666" y="-14" on="0"/>
        <pt x="406" y="98" on="0"/>
        <pt x="212" y="292" on="0"/>
        <pt x="100" y="552" on="0"/>
      </contour>
      <contour>
        <pt x="124" y="700" on="1"/>
        <pt x="124" y="557" on="0"/>
        <pt x="232" y="305" on="0"/>
        <pt x="419" y="118" on="0"/>
        <pt x="671" y="10" on="0"/>
        <pt x="814" y="10" on="1"/>
        <pt x="910" y="10" on="0"/>
        <pt x="1086" y="59" on="0"/>
        <pt x="1240" y="149" on="0"/>
        <pt x="1366" y="275" on="0"/>
        <pt x="1457" y="428" on="0"/>
        <pt x="1506" y="604" on="0"/>
        <pt x="1506" y="700" on="1"/>
        <pt x="1506" y="795" on="0"/>
        <pt x="1457" y="972" on="0"/>
        <pt x="1366" y="1126" on="0"/>
        <pt x="1240" y="1252" on="0"/>
        <pt x="1086" y="1343" on="0"/>
        <pt x="909" y="1392" on="0"/>
        <pt x="814" y="1392" on="1"/>
        <pt x="718" y="1392" on="0"/>
        <pt x="542" y="1343" on="0"/>
        <pt x="389" y="1252" on="0"/>
        <pt x="263" y="1126" on="0"/>
        <pt x="173" y="972" on="0"/>
        <pt x="124" y="795" on="0"/>
      </contour>
    </TTGlyph>
    <TTGlyph name="currency" xMin="182" yMin="272" xMax="978" yMax="1068">
      <contour>
        <pt x="250" y="670" on="1"/>
        <pt x="250" y="736" on="0"/>
        <pt x="297" y="852" on="0"/>
        <pt x="339" y="897" on="1"/>
        <pt x="182" y="1054" on="1"/>
        <pt x="196" y="1068" on="1"/>
        <pt x="353" y="911" on="1"/>
        <pt x="398" y="953" on="0"/>
        <pt x="514" y="1002" on="0"/>
        <pt x="580" y="1002" on="1"/>
        <pt x="646" y="1002" on="0"/>
        <pt x="763" y="954" on="0"/>
        <pt x="808" y="912" on="1"/>
        <pt x="964" y="1068" on="1"/>
        <pt x="978" y="1054" on="1"/>
        <pt x="822" y="898" on="1"/>
        <pt x="864" y="853" on="0"/>
        <pt x="912" y="736" on="0"/>
        <pt x="912" y="670" on="1"/>
        <pt x="912" y="604" on="0"/>
        <pt x="863" y="488" on="0"/>
        <pt x="821" y="443" on="1"/>
        <pt x="978" y="286" on="1"/>
        <pt x="964" y="272" on="1"/>
        <pt x="807" y="429" on="1"/>
        <pt x="762" y="387" on="0"/>
        <pt x="646" y="340" on="0"/>
        <pt x="580" y="340" on="1"/>
        <pt x="514" y="340" on="0"/>
        <pt x="399" y="388" on="0"/>
        <pt x="354" y="430" on="1"/>
        <pt x="196" y="272" on="1"/>
        <pt x="182" y="286" on="1"/>
        <pt x="340" y="444" on="1"/>
        <pt x="298" y="489" on="0"/>
        <pt x="250" y="604" on="0"/>
      </contour>
      <contour>
        <pt x="270" y="670" on="1"/>
        <pt x="270" y="606" on="0"/>
        <pt x="319" y="493" on="0"/>
        <pt x="403" y="409" on="0"/>
        <pt x="516" y="360" on="0"/>
        <pt x="580" y="360" on="1"/>
        <pt x="644" y="360" on="0"/>
        <pt x="758" y="409" on="0"/>
        <pt x="843" y="493" on="0"/>
        <pt x="892" y="606" on="0"/>
        <pt x="892" y="670" on="1"/>
        <pt x="892" y="734" on="0"/>
        <pt x="843" y="848" on="0"/>
        <pt x="758" y="933" on="0"/>
        <pt x="644" y="982" on="0"/>
        <pt x="580" y="982" on="1"/>
        <pt x="516" y="982" on="0"/>
        <pt x="403" y="933" on="0"/>
        <pt x="319" y="848" on="0"/>
        <pt x="270" y="734" on="0"/>
      </contour>
    </TTGlyph>
    <TTGlyph name="d" xMin="100" yMin="-12" xMax="880" yMax="1440">
      <contour>
        <pt x="874" y="0" on="1"/>
        <pt x="860" y="0" on="0"/>
        <pt x="860" y="16" on="1"/>
        <pt x="856" y="205" on="1"/>
        <pt x="790" y="105" on="0"/>
        <pt x="603" y="-12" on="0"/>
        <pt x="492" y="-12" on="1"/>
        <pt x="301" y="-12" on="0"/>
        <pt x="100" y="233" on="0"/>
        <pt x="100" y="488" on="1"/>
        <pt x="100" y="594" on="0"/>
        <pt x="154" y="780" on="0"/>
        <pt x="262" y="917" on="0"/>
        <pt x="423" y="996" on="0"/>
        <pt x="530" y="996" on="1"/>
        <pt x="638" y="996" on="0"/>
        <pt x="800" y="910" on="0"/>
        <pt x="856" y="820" on="1"/>
        <pt x="856" y="1440" on="1"/>
        <pt x="880" y="1440" on="1"/>
        <pt x="880" y="0" on="1"/>
      </contour>
      <contour>
        <pt x="492" y="8" on="1"/>
        <pt x="601" y="8" on="0"/>
        <pt x="788" y="130" on="0"/>
        <pt x="856" y="237" on="1"/>
        <pt x="856" y="788" on="1"/>
        <pt x="791" y="891" on="0"/>
        <pt x="633" y="976" on="0"/>
        <pt x="530" y="976" on="1"/>
        <pt x="427" y="976" on="0"/>
        <pt x="275" y="901" on="0"/>
        <pt x="174" y="769" on="0"/>
        <pt x="124" y="591" on="0"/>
        <pt x="124" y="488" on="1"/>
        <pt x="124" y="244" on="0"/>
        <pt x="311" y="8" on="0"/>
      </contour>
    </TTGlyph>
    <TTGlyph name="dagger" xMin="196" yMin="-366" xMax="956" yMax="1420">
      <contour>
        <pt x="196" y="930" on="1"/>
        <pt x="196" y="935" on="0"/>
        <pt x="204" y="944" on="0"/>
        <pt x="210" y="944" on="1"/>
        <pt x="566" y="938" on="1"/>
        <pt x="562" y="1416" on="1"/>
        <pt x="565" y="1418" on="0"/>
        <pt x="571" y="1420" on="0"/>
        <pt x="576" y="1420" on="1"/>
        <pt x="581" y="1420" on="0"/>
        <pt x="587" y="1418" on="0"/>
        <pt x="590" y="1416" on="1"/>
        <pt x="586" y="938" on="1"/>
        <pt x="942" y="944" on="1"/>
        <pt x="948" y="944" on="0"/>
        <pt x="956" y="935" on="0"/>
        <pt x="956" y="930" on="1"/>
        <pt x="956" y="922" on="1"/>
        <pt x="586" y="922" on="1"/>
        <pt x="586" y="358" on="1"/>
        <pt x="590" y="-362" on="1"/>
        <pt x="587" y="-364" on="0"/>
        <pt x="581" y="-366" on="0"/>
        <pt x="576" y="-366" on="1"/>
        <pt x="571" y="-366" on="0"/>
        <pt x="565" y="-364" on="0"/>
        <pt x="562" y="-362" on="1"/>
        <pt x="566" y="358" on="1"/>
        <pt x="566" y="922" on="1"/>
        <pt x="196" y="922" on="1"/>
      </contour>
    </TTGlyph>
    <TTGlyph name="daggerdbl" xMin="196" yMin="-366" xMax="956" yMax="1420">
      <contour>
        <pt x="196" y="930" on="1"/>
        <pt x="196" y="935" on="0"/>
        <pt x="204" y="944" on="0"/>
        <pt x="210" y="944" on="1"/>
        <pt x="566" y="938" on="1"/>
        <pt x="562" y="1416" on="1"/>
        <pt x="565" y="1418" on="0"/>
        <pt x="571" y="1420" on="0"/>
        <pt x="576" y="1420" on="1"/>
        <pt x="581" y="1420" on="0"/>
        <pt x="587" y="1418" on="0"/>
        <pt x="590" y="1416" on="1"/>
        <pt x="586" y="938" on="1"/>
        <pt x="942" y="944" on="1"/>
        <pt x="948" y="944" on="0"/>
        <pt x="956" y="935" on="0"/>
        <pt x="956" y="930" on="1"/>
        <pt x="956" y="922" on="1"/>
        <pt x="586" y="922" on="1"/>
        <pt x="586" y="132" on="1"/>
        <pt x="956" y="132" on="1"/>
        <pt x="956" y="124" on="1"/>
        <pt x="956" y="119" on="0"/>
        <pt x="948" y="110" on="0"/>
        <pt x="942" y="110" on="1"/>
        <pt x="586" y="115" on="1"/>
        <pt x="590" y="-362" on="1"/>
        <pt x="587" y="-364" on="0"/>
        <pt x="581" y="-366" on="0"/>
        <pt x="576" y="-366" on="1"/>
        <pt x="571" y="-366" on="0"/>
        <pt x="565" y="-364" on="0"/>
        <pt x="562" y="-362" on="1"/>
        <pt x="566" y="115" on="1"/>
        <pt x="210" y="110" on="1"/>
        <pt x="204" y="110" on="0"/>
        <pt x="196" y="119" on="0"/>
        <pt x="196" y="124" on="1"/>
        <pt x="196" y="132" on="1"/>
        <pt x="566" y="132" on="1"/>
        <pt x="566" y="922" on="1"/>
        <pt x="196" y="922" on="1"/>
      </contour>
    </TTGlyph>
    <TTGlyph name="degree" xMin="108" yMin="862" xMax="668" yMax="1416">
      <contour>
        <pt x="108" y="1140" on="1"/>
        <pt x="108" y="1198" on="0"/>
        <pt x="152" y="1298" on="0"/>
        <pt x="227" y="1373" on="0"/>
        <pt x="329" y="1416" on="0"/>
        <pt x="388" y="1416" on="1"/>
        <pt x="446" y="1416" on="0"/>
        <pt x="549" y="1373" on="0"/>
        <pt x="624" y="1298" on="0"/>
        <pt x="668" y="1198" on="0"/>
        <pt x="668" y="1140" on="1"/>
        <pt x="668" y="1082" on="0"/>
        <pt x="624" y="981" on="0"/>
        <pt x="549" y="906" on="0"/>
        <pt x="446" y="862" on="0"/>
        <pt x="388" y="862" on="1"/>
        <pt x="329" y="862" on="0"/>
        <pt x="227" y="906" on="0"/>
        <pt x="152" y="981" on="0"/>
        <pt x="108" y="1082" on="0"/>
      </contour>
      <contour>
        <pt x="132" y="1140" on="1"/>
        <pt x="132" y="1087" on="0"/>
        <pt x="172" y="993" on="0"/>
        <pt x="241" y="924" on="0"/>
        <pt x="335" y="884" on="0"/>
        <pt x="388" y="884" on="1"/>
        <pt x="441" y="884" on="0"/>
        <pt x="535" y="924" on="0"/>
        <pt x="604" y="993" on="0"/>
        <pt x="644" y="1087" on="0"/>
        <pt x="644" y="1140" on="1"/>
        <pt x="644" y="1193" on="0"/>
        <pt x="604" y="1287" on="0"/>
        <pt x="535" y="1356" on="0"/>
        <pt x="441" y="1396" on="0"/>
        <pt x="388" y="1396" on="1"/>
        <pt x="335" y="1396" on="0"/>
        <pt x="241" y="1356" on="0"/>
        <pt x="172" y="1287" on="0"/>
        <pt x="132" y="1193" on="0"/>
      </contour>
    </TTGlyph>
    <TTGlyph name="dieresis" xMin="60" yMin="1226" xMax="500" yMax="1336">
      <contour>
        <pt x="172" y="1280" on="1"/>
        <pt x="172" y="1259" on="0"/>
        <pt x="137" y="1226" on="0"/>
        <pt x="116" y="1226" on="1"/>
        <pt x="93" y="1226" on="0"/>
        <pt x="60" y="1259" on="0"/>
        <pt x="60" y="1280" on="1"/>
        <pt x="60" y="1303" on="0"/>
        <pt x="93" y="1336" on="0"/>
        <pt x="116" y="1336" on="1"/>
        <pt x="137" y="1336" on="0"/>
        <pt x="172" y="1303" on="0"/>
      </contour>
      <contour>
        <pt x="500" y="1280" on="1"/>
        <pt x="500" y="1259" on="0"/>
        <pt x="465" y="1226" on="0"/>
        <pt x="444" y="1226" on="1"/>
        <pt x="421" y="1226" on="0"/>
        <pt x="388" y="1259" on="0"/>
        <pt x="388" y="1280" on="1"/>
        <pt x="388" y="1303" on="0"/>
        <pt x="421" y="1336" on="0"/>
        <pt x="444" y="1336" on="1"/>
        <pt x="465" y="1336" on="0"/>
        <pt x="500" y="1303" on="0"/>
      </contour>
    </TTGlyph>
    <TTGlyph name="dieresis.case" xMin="20" yMin="1610" xMax="540" yMax="1720">
      <contour>
        <pt x="132" y="1664" on="1"/>
        <pt x="132" y="1643" on="0"/>
        <pt x="97" y="1610" on="0"/>
        <pt x="76" y="1610" on="1"/>
        <pt x="53" y="1610" on="0"/>
        <pt x="20" y="1643" on="0"/>
        <pt x="20" y="1664" on="1"/>
        <pt x="20" y="1687" on="0"/>
        <pt x="53" y="1720" on="0"/>
        <pt x="76" y="1720" on="1"/>
        <pt x="97" y="1720" on="0"/>
        <pt x="132" y="1687" on="0"/>
      </contour>
      <contour>
        <pt x="540" y="1664" on="1"/>
        <pt x="540" y="1643" on="0"/>
        <pt x="505" y="1610" on="0"/>
        <pt x="484" y="1610" on="1"/>
        <pt x="461" y="1610" on="0"/>
        <pt x="428" y="1643" on="0"/>
        <pt x="428" y="1664" on="1"/>
        <pt x="428" y="1687" on="0"/>
        <pt x="461" y="1720" on="0"/>
        <pt x="484" y="1720" on="1"/>
        <pt x="505" y="1720" on="0"/>
        <pt x="540" y="1687" on="0"/>
      </contour>
    </TTGlyph>
    <TTGlyph name="divide" xMin="118" yMin="248" xMax="1040" yMax="1090">
      <contour>
        <pt x="118" y="680" on="1"/>
        <pt x="1040" y="680" on="1"/>
        <pt x="1040" y="660" on="1"/>
        <pt x="118" y="660" on="1"/>
      </contour>
      <contour>
        <pt x="514" y="1024" on="1"/>
        <pt x="514" y="1051" on="0"/>
        <pt x="551" y="1090" on="0"/>
        <pt x="578" y="1090" on="1"/>
        <pt x="605" y="1090" on="0"/>
        <pt x="644" y="1051" on="0"/>
        <pt x="644" y="1024" on="1"/>
        <pt x="644" y="997" on="0"/>
        <pt x="605" y="960" on="0"/>
        <pt x="578" y="960" on="1"/>
        <pt x="551" y="960" on="0"/>
        <pt x="514" y="997" on="0"/>
      </contour>
      <contour>
        <pt x="514" y="312" on="1"/>
        <pt x="514" y="339" on="0"/>
        <pt x="551" y="378" on="0"/>
        <pt x="578" y="378" on="1"/>
        <pt x="605" y="378" on="0"/>
        <pt x="644" y="339" on="0"/>
        <pt x="644" y="312" on="1"/>
        <pt x="644" y="285" on="0"/>
        <pt x="605" y="248" on="0"/>
        <pt x="578" y="248" on="1"/>
        <pt x="551" y="248" on="0"/>
        <pt x="514" y="285" on="0"/>
      </contour>
    </TTGlyph>
    <TTGlyph name="dollar" xMin="192" yMin="-274" xMax="1012" yMax="1618">
      <contour>
        <pt x="579" y="-16" on="1"/>
        <pt x="509" y="-16" on="0"/>
        <pt x="398" y="9" on="0"/>
        <pt x="305" y="56" on="0"/>
        <pt x="228" y="123" on="0"/>
        <pt x="192" y="166" on="1"/>
        <pt x="196" y="170" on="1"/>
        <pt x="199" y="173" on="0"/>
        <pt x="203" y="176" on="0"/>
        <pt x="208" y="176" on="1"/>
        <pt x="214" y="176" on="0"/>
        <pt x="237" y="151" on="0"/>
        <pt x="276" y="113" on="0"/>
        <pt x="332" y="68" on="0"/>
        <pt x="411" y="30" on="0"/>
        <pt x="513" y="4" on="0"/>
        <pt x="579" y="4" on="1"/>
        <pt x="605" y="730" on="1"/>
        <pt x="539" y="751" on="0"/>
        <pt x="415" y="801" on="0"/>
        <pt x="318" y="878" on="0"/>
        <pt x="260" y="990" on="0"/>
        <pt x="260" y="1074" on="1"/>
        <pt x="260" y="1140" on="0"/>
        <pt x="309" y="1262" on="0"/>
        <pt x="403" y="1355" on="0"/>
        <pt x="540" y="1412" on="0"/>
        <pt x="629" y="1414" on="1"/>
        <pt x="636" y="1602" on="1"/>
        <pt x="636" y="1618" on="0"/>
        <pt x="648" y="1618" on="1"/>
        <pt x="658" y="1618" on="1"/>
        <pt x="650" y="1414" on="1"/>
        <pt x="748" y="1412" on="0"/>
        <pt x="899" y="1346" on="0"/>
        <pt x="966" y="1276" on="1"/>
        <pt x="962" y="1270" on="1"/>
        <pt x="959" y="1264" on="0"/>
        <pt x="952" y="1264" on="1"/>
        <pt x="942" y="1264" on="0"/>
        <pt x="906" y="1303" on="0"/>
        <pt x="837" y="1351" on="0"/>
        <pt x="730" y="1392" on="0"/>
        <pt x="650" y="1394" on="1"/>
        <pt x="627" y="747" on="1"/>
        <pt x="698" y="724" on="0"/>
        <pt x="836" y="673" on="0"/>
        <pt x="945" y="597" on="0"/>
        <pt x="1012" y="482" on="0"/>
        <pt x="1012" y="394" on="1"/>
        <pt x="1012" y="310" on="0"/>
        <pt x="957" y="164" on="0"/>
        <pt x="851" y="54" on="0"/>
        <pt x="698" y="-12" on="0"/>
        <pt x="600" y="-15" on="1"/>
        <pt x="592" y="-258" on="1"/>
        <pt x="592" y="-274" on="0"/>
        <pt x="580" y="-274" on="1"/>
        <pt x="570" y="-274" on="1"/>
      </contour>
      <contour>
        <pt x="990" y="390" on="1"/>
        <pt x="990" y="472" on="0"/>
        <pt x="927" y="581" on="0"/>
        <pt x="825" y="654" on="0"/>
        <pt x="694" y="702" on="0"/>
        <pt x="626" y="724" on="1"/>
        <pt x="601" y="4" on="1"/>
        <pt x="693" y="7" on="0"/>
        <pt x="838" y="71" on="0"/>
        <pt x="938" y="176" on="0"/>
        <pt x="990" y="313" on="0"/>
      </contour>
      <contour>
        <pt x="282" y="1074" on="1"/>
        <pt x="282" y="999" on="0"/>
        <pt x="336" y="895" on="0"/>
        <pt x="426" y="823" on="0"/>
        <pt x="543" y="775" on="0"/>
        <pt x="606" y="754" on="1"/>
        <pt x="629" y="1393" on="1"/>
        <pt x="545" y="1391" on="0"/>
        <pt x="416" y="1338" on="0"/>
        <pt x="327" y="1250" on="0"/>
        <pt x="282" y="1136" on="0"/>
      </contour>
    </TTGlyph>
    <TTGlyph name="dotaccent" xMin="224" yMin="1306" xMax="336" yMax="1416">
      <contour>
        <pt x="336" y="1360" on="1"/>
        <pt x="336" y="1339" on="0"/>
        <pt x="301" y="1306" on="0"/>
        <pt x="280" y="1306" on="1"/>
        <pt x="257" y="1306" on="0"/>
        <pt x="224" y="1339" on="0"/>
        <pt x="224" y="1360" on="1"/>
        <pt x="224" y="1383" on="0"/>
        <pt x="257" y="1416" on="0"/>
        <pt x="280" y="1416" on="1"/>
        <pt x="301" y="1416" on="0"/>
        <pt x="336" y="1383" on="0"/>
      </contour>
    </TTGlyph>
    <TTGlyph name="dotaccent.case" xMin="224" yMin="1614" xMax="336" yMax="1724">
      <contour>
        <pt x="336" y="1668" on="1"/>
        <pt x="336" y="1647" on="0"/>
        <pt x="301" y="1614" on="0"/>
        <pt x="280" y="1614" on="1"/>
        <pt x="257" y="1614" on="0"/>
        <pt x="224" y="1647" on="0"/>
        <pt x="224" y="1668" on="1"/>
        <pt x="224" y="1691" on="0"/>
        <pt x="257" y="1724" on="0"/>
        <pt x="280" y="1724" on="1"/>
        <pt x="301" y="1724" on="0"/>
        <pt x="336" y="1691" on="0"/>
      </contour>
    </TTGlyph>
    <TTGlyph name="dotlessi" xMin="210" yMin="0" xMax="234" yMax="980">
      <contour>
        <pt x="234" y="980" on="1"/>
        <pt x="234" y="0" on="1"/>
        <pt x="210" y="0" on="1"/>
        <pt x="210" y="980" on="1"/>
      </contour>
    </TTGlyph>
    <TTGlyph name="e" xMin="100" yMin="-12" xMax="894" yMax="996">
      <contour>
        <pt x="528" y="996" on="1"/>
        <pt x="605" y="996" on="0"/>
        <pt x="739" y="941" on="0"/>
        <pt x="838" y="833" on="0"/>
        <pt x="894" y="676" on="0"/>
        <pt x="894" y="574" on="1"/>
        <pt x="894" y="569" on="0"/>
        <pt x="887" y="564" on="0"/>
        <pt x="882" y="564" on="1"/>
        <pt x="126" y="564" on="1"/>
        <pt x="124" y="550" on="0"/>
        <pt x="124" y="524" on="0"/>
        <pt x="124" y="510" on="1"/>
        <pt x="124" y="388" on="0"/>
        <pt x="182" y="201" on="0"/>
        <pt x="289" y="74" on="0"/>
        <pt x="440" y="8" on="0"/>
        <pt x="532" y="8" on="1"/>
        <pt x="615" y="8" on="0"/>
        <pt x="734" y="44" on="0"/>
        <pt x="813" y="88" on="0"/>
        <pt x="854" y="124" on="0"/>
        <pt x="860" y="124" on="1"/>
        <pt x="864" y="124" on="0"/>
        <pt x="868" y="120" on="1"/>
        <pt x="872" y="116" on="1"/>
        <pt x="855" y="95" on="0"/>
        <pt x="788" y="50" on="0"/>
        <pt x="697" y="12" on="0"/>
        <pt x="589" y="-12" on="0"/>
        <pt x="532" y="-12" on="1"/>
        <pt x="431" y="-12" on="0"/>
        <pt x="271" y="59" on="0"/>
        <pt x="160" y="193" on="0"/>
        <pt x="100" y="387" on="0"/>
        <pt x="100" y="510" on="1"/>
        <pt x="100" y="618" on="0"/>
        <pt x="158" y="797" on="0"/>
        <pt x="268" y="925" on="0"/>
        <pt x="427" y="996" on="0"/>
      </contour>
      <contour>
        <pt x="528" y="976" on="1"/>
        <pt x="440" y="976" on="0"/>
        <pt x="299" y="919" on="0"/>
        <pt x="197" y="816" on="0"/>
        <pt x="136" y="670" on="0"/>
        <pt x="127" y="582" on="1"/>
        <pt x="872" y="582" on="1"/>
        <pt x="872" y="677" on="0"/>
        <pt x="820" y="824" on="0"/>
        <pt x="727" y="924" on="0"/>
        <pt x="601" y="976" on="0"/>
      </contour>
    </TTGlyph>
    <TTGlyph name="eacute" xMin="100" yMin="-12" xMax="894" yMax="1416">
      <component glyphName="e" x="0" y="0" flags="0x204"/>
      <component glyphName="acute" x="246" y="0" flags="0x4"/>
    </TTGlyph>
    <TTGlyph name="ecircumflex" xMin="100" yMin="-12" xMax="894" yMax="1400">
      <component glyphName="e" x="0" y="0" flags="0x204"/>
      <component glyphName="circumflex" x="246" y="0" flags="0x4"/>
    </TTGlyph>
    <TTGlyph name="edieresis" xMin="100" yMin="-12" xMax="894" yMax="1336">
      <component glyphName="e" x="0" y="0" flags="0x204"/>
      <component glyphName="dieresis" x="246" y="0" flags="0x4"/>
    </TTGlyph>
    <TTGlyph name="egrave" xMin="100" yMin="-12" xMax="894" yMax="1416">
      <component glyphName="e" x="0" y="0" flags="0x204"/>
      <component glyphName="grave" x="246" y="0" flags="0x4"/>
    </TTGlyph>
    <TTGlyph name="eight" xMin="140" yMin="-16" xMax="1020" yMax="1416">
      <contour>
        <pt x="580" y="-16" on="1"/>
        <pt x="483" y="-16" on="0"/>
        <pt x="322" y="36" on="0"/>
        <pt x="205" y="132" on="0"/>
        <pt x="140" y="271" on="0"/>
        <pt x="140" y="358" on="1"/>
        <pt x="140" y="446" on="0"/>
        <pt x="197" y="577" on="0"/>
        <pt x="293" y="668" on="0"/>
        <pt x="418" y="720" on="0"/>
        <pt x="486" y="731" on="1"/>
        <pt x="416" y="744" on="0"/>
        <pt x="306" y="806" on="0"/>
        <pt x="231" y="894" on="0"/>
        <pt x="192" y="1005" on="0"/>
        <pt x="192" y="1068" on="1"/>
        <pt x="192" y="1140" on="0"/>
        <pt x="245" y="1267" on="0"/>
        <pt x="344" y="1361" on="0"/>
        <pt x="488" y="1416" on="0"/>
        <pt x="580" y="1416" on="1"/>
        <pt x="671" y="1416" on="0"/>
        <pt x="816" y="1361" on="0"/>
        <pt x="915" y="1267" on="0"/>
        <pt x="968" y="1140" on="0"/>
        <pt x="968" y="1068" on="1"/>
        <pt x="968" y="1005" on="0"/>
        <pt x="928" y="894" on="0"/>
        <pt x="853" y="806" on="0"/>
        <pt x="744" y="744" on="0"/>
        <pt x="674" y="731" on="1"/>
        <pt x="742" y="720" on="0"/>
        <pt x="867" y="668" on="0"/>
        <pt x="963" y="577" on="0"/>
        <pt x="1020" y="446" on="0"/>
        <pt x="1020" y="358" on="1"/>
        <pt x="1020" y="271" on="0"/>
        <pt x="955" y="132" on="0"/>
        <pt x="838" y="36" on="0"/>
        <pt x="677" y="-16" on="0"/>
      </contour>
      <contour>
        <pt x="580" y="4" on="1"/>
        <pt x="671" y="4" on="0"/>
        <pt x="823" y="54" on="0"/>
        <pt x="934" y="146" on="0"/>
        <pt x="996" y="277" on="0"/>
        <pt x="996" y="358" on="1"/>
        <pt x="996" y="431" on="0"/>
        <pt x="957" y="541" on="0"/>
        <pt x="891" y="622" on="0"/>
        <pt x="806" y="675" on="0"/>
        <pt x="714" y="707" on="0"/>
        <pt x="620" y="720" on="0"/>
        <pt x="580" y="720" on="1"/>
        <pt x="539" y="720" on="0"/>
        <pt x="446" y="707" on="0"/>
        <pt x="354" y="675" on="0"/>
        <pt x="269" y="622" on="0"/>
        <pt x="203" y="541" on="0"/>
        <pt x="164" y="431" on="0"/>
        <pt x="164" y="358" on="1"/>
        <pt x="164" y="277" on="0"/>
        <pt x="226" y="146" on="0"/>
        <pt x="337" y="54" on="0"/>
        <pt x="489" y="4" on="0"/>
      </contour>
      <contour>
        <pt x="580" y="740" on="1"/>
        <pt x="671" y="740" on="0"/>
        <pt x="808" y="795" on="0"/>
        <pt x="899" y="886" on="0"/>
        <pt x="944" y="1004" on="0"/>
        <pt x="944" y="1068" on="1"/>
        <pt x="944" y="1138" on="0"/>
        <pt x="894" y="1259" on="0"/>
        <pt x="800" y="1346" on="0"/>
        <pt x="665" y="1396" on="0"/>
        <pt x="580" y="1396" on="1"/>
        <pt x="495" y="1396" on="0"/>
        <pt x="360" y="1346" on="0"/>
        <pt x="266" y="1259" on="0"/>
        <pt x="216" y="1138" on="0"/>
        <pt x="216" y="1068" on="1"/>
        <pt x="216" y="1004" on="0"/>
        <pt x="261" y="886" on="0"/>
        <pt x="352" y="795" on="0"/>
        <pt x="488" y="740" on="0"/>
      </contour>
    </TTGlyph>
    <TTGlyph name="ellipsis" xMin="120" yMin="-16" xMax="1190" yMax="114">
      <contour>
        <pt x="120" y="48" on="1"/>
        <pt x="120" y="75" on="0"/>
        <pt x="157" y="114" on="0"/>
        <pt x="184" y="114" on="1"/>
        <pt x="211" y="114" on="0"/>
        <pt x="250" y="75" on="0"/>
        <pt x="250" y="48" on="1"/>
        <pt x="250" y="21" on="0"/>
        <pt x="211" y="-16" on="0"/>
        <pt x="184" y="-16" on="1"/>
        <pt x="157" y="-16" on="0"/>
        <pt x="120" y="21" on="0"/>
      </contour>
      <contour>
        <pt x="1060" y="48" on="1"/>
        <pt x="1060" y="75" on="0"/>
        <pt x="1097" y="114" on="0"/>
        <pt x="1124" y="114" on="1"/>
        <pt x="1151" y="114" on="0"/>
        <pt x="1190" y="75" on="0"/>
        <pt x="1190" y="48" on="1"/>
        <pt x="1190" y="21" on="0"/>
        <pt x="1151" y="-16" on="0"/>
        <pt x="1124" y="-16" on="1"/>
        <pt x="1097" y="-16" on="0"/>
        <pt x="1060" y="21" on="0"/>
      </contour>
      <contour>
        <pt x="590" y="48" on="1"/>
        <pt x="590" y="75" on="0"/>
        <pt x="627" y="114" on="0"/>
        <pt x="654" y="114" on="1"/>
        <pt x="681" y="114" on="0"/>
        <pt x="720" y="75" on="0"/>
        <pt x="720" y="48" on="1"/>
        <pt x="720" y="21" on="0"/>
        <pt x="681" y="-16" on="0"/>
        <pt x="654" y="-16" on="1"/>
        <pt x="627" y="-16" on="0"/>
        <pt x="590" y="21" on="0"/>
      </contour>
    </TTGlyph>
    <TTGlyph name="emdash" xMin="140" yMin="558" xMax="1408" yMax="578">
      <contour>
        <pt x="140" y="578" on="1"/>
        <pt x="1408" y="578" on="1"/>
        <pt x="1408" y="558" on="1"/>
        <pt x="140" y="558" on="1"/>
      </contour>
    </TTGlyph>
    <TTGlyph name="endash" xMin="140" yMin="558" xMax="916" yMax="578">
      <contour>
        <pt x="140" y="578" on="1"/>
        <pt x="916" y="578" on="1"/>
        <pt x="916" y="558" on="1"/>
        <pt x="140" y="558" on="1"/>
      </contour>
    </TTGlyph>
    <TTGlyph name="eogonek" xMin="100" yMin="-334" xMax="894" yMax="996">
      <contour>
        <pt x="746" y="-270" on="1"/>
        <pt x="750" y="-270" on="0"/>
        <pt x="754" y="-274" on="1"/>
        <pt x="760" y="-280" on="1"/>
        <pt x="734" y="-306" on="0"/>
        <pt x="656" y="-334" on="0"/>
        <pt x="614" y="-334" on="1"/>
        <pt x="548" y="-334" on="0"/>
        <pt x="460" y="-264" on="0"/>
        <pt x="460" y="-196" on="1"/>
        <pt x="460" y="-166" on="0"/>
        <pt x="481" y="-113" on="0"/>
        <pt x="515" y="-66" on="0"/>
        <pt x="558" y="-26" on="0"/>
        <pt x="579" y="-10" on="1"/>
        <pt x="568" y="-11" on="0"/>
        <pt x="544" y="-12" on="0"/>
        <pt x="532" y="-12" on="1"/>
        <pt x="431" y="-12" on="0"/>
        <pt x="271" y="59" on="0"/>
        <pt x="160" y="193" on="0"/>
        <pt x="100" y="387" on="0"/>
        <pt x="100" y="510" on="1"/>
        <pt x="100" y="618" on="0"/>
        <pt x="158" y="797" on="0"/>
        <pt x="268" y="925" on="0"/>
        <pt x="427" y="996" on="0"/>
        <pt x="528" y="996" on="1"/>
        <pt x="605" y="996" on="0"/>
        <pt x="739" y="941" on="0"/>
        <pt x="838" y="833" on="0"/>
        <pt x="894" y="676" on="0"/>
        <pt x="894" y="574" on="1"/>
        <pt x="894" y="569" on="0"/>
        <pt x="887" y="564" on="0"/>
        <pt x="882" y="564" on="1"/>
        <pt x="126" y="564" on="1"/>
        <pt x="124" y="550" on="0"/>
        <pt x="124" y="524" on="0"/>
        <pt x="124" y="510" on="1"/>
        <pt x="124" y="388" on="0"/>
        <pt x="182" y="201" on="0"/>
        <pt x="289" y="74" on="0"/>
        <pt x="440" y="8" on="0"/>
        <pt x="532" y="8" on="1"/>
        <pt x="614" y="8" on="0"/>
        <pt x="734" y="44" on="0"/>
        <pt x="814" y="88" on="0"/>
        <pt x="856" y="124" on="0"/>
        <pt x="860" y="124" on="1"/>
        <pt x="864" y="124" on="0"/>
        <pt x="868" y="120" on="1"/>
        <pt x="872" y="116" on="1"/>
        <pt x="859" y="99" on="0"/>
        <pt x="810" y="63" on="0"/>
        <pt x="744" y="30" on="0"/>
        <pt x="664" y="3" on="0"/>
        <pt x="621" y="-4" on="1"/>
        <pt x="600" y="-16" on="0"/>
        <pt x="552" y="-53" on="0"/>
        <pt x="510" y="-102" on="0"/>
        <pt x="482" y="-162" on="0"/>
        <pt x="482" y="-196" on="1"/>
        <pt x="482" y="-252" on="0"/>
        <pt x="559" y="-314" on="0"/>
        <pt x="616" y="-314" on="1"/>
        <pt x="648" y="-314" on="0"/>
        <pt x="693" y="-300" on="0"/>
        <pt x="723" y="-284" on="0"/>
        <pt x="741" y="-270" on="0"/>
      </contour>
      <contour>
        <pt x="528" y="976" on="1"/>
        <pt x="440" y="976" on="0"/>
        <pt x="299" y="919" on="0"/>
        <pt x="197" y="816" on="0"/>
        <pt x="136" y="670" on="0"/>
        <pt x="127" y="582" on="1"/>
        <pt x="872" y="582" on="1"/>
        <pt x="872" y="677" on="0"/>
        <pt x="820" y="824" on="0"/>
        <pt x="727" y="924" on="0"/>
        <pt x="601" y="976" on="0"/>
      </contour>
    </TTGlyph>
    <TTGlyph name="equal" xMin="180" yMin="520" xMax="980" yMax="834">
      <contour>
        <pt x="180" y="540" on="1"/>
        <pt x="980" y="540" on="1"/>
        <pt x="980" y="520" on="1"/>
        <pt x="180" y="520" on="1"/>
      </contour>
      <contour>
        <pt x="180" y="834" on="1"/>
        <pt x="980" y="834" on="1"/>
        <pt x="980" y="814" on="1"/>
        <pt x="180" y="814" on="1"/>
      </contour>
    </TTGlyph>
    <TTGlyph name="eth" xMin="100" yMin="-10" xMax="946" yMax="1398">
      <contour>
        <pt x="485" y="1074" on="1"/>
        <pt x="480" y="1077" on="0"/>
        <pt x="480" y="1084" on="1"/>
        <pt x="480" y="1088" on="0"/>
        <pt x="484" y="1092" on="1"/>
        <pt x="621" y="1237" on="1"/>
        <pt x="549" y="1282" on="0"/>
        <pt x="391" y="1338" on="0"/>
        <pt x="308" y="1352" on="1"/>
        <pt x="296" y="1354" on="0"/>
        <pt x="296" y="1360" on="1"/>
        <pt x="296" y="1365" on="1"/>
        <pt x="296" y="1367" on="0"/>
        <pt x="297" y="1368" on="1"/>
        <pt x="298" y="1372" on="1"/>
        <pt x="384" y="1358" on="0"/>
        <pt x="555" y="1301" on="0"/>
        <pt x="633" y="1250" on="1"/>
        <pt x="770" y="1398" on="1"/>
        <pt x="774" y="1394" on="1"/>
        <pt x="777" y="1391" on="0"/>
        <pt x="777" y="1385" on="1"/>
        <pt x="777" y="1380" on="0"/>
        <pt x="771" y="1373" on="1"/>
        <pt x="649" y="1239" on="1"/>
        <pt x="713" y="1195" on="0"/>
        <pt x="821" y="1076" on="0"/>
        <pt x="901" y="917" on="0"/>
        <pt x="946" y="717" on="0"/>
        <pt x="946" y="594" on="1"/>
        <pt x="946" y="460" on="0"/>
        <pt x="894" y="238" on="0"/>
        <pt x="788" y="79" on="0"/>
        <pt x="625" y="-10" on="0"/>
        <pt x="514" y="-10" on="1"/>
        <pt x="429" y="-10" on="0"/>
        <pt x="279" y="54" on="0"/>
        <pt x="166" y="172" on="0"/>
        <pt x="100" y="341" on="0"/>
        <pt x="100" y="446" on="1"/>
        <pt x="100" y="544" on="0"/>
        <pt x="155" y="716" on="0"/>
        <pt x="263" y="843" on="0"/>
        <pt x="421" y="916" on="0"/>
        <pt x="524" y="916" on="1"/>
        <pt x="579" y="916" on="0"/>
        <pt x="699" y="882" on="0"/>
        <pt x="810" y="809" on="0"/>
        <pt x="902" y="692" on="0"/>
        <pt x="928" y="608" on="1"/>
        <pt x="926" y="724" on="0"/>
        <pt x="882" y="914" on="0"/>
        <pt x="805" y="1067" on="0"/>
        <pt x="699" y="1183" on="0"/>
        <pt x="636" y="1226" on="1"/>
        <pt x="490" y="1070" on="1"/>
      </contour>
      <contour>
        <pt x="514" y="10" on="1"/>
        <pt x="615" y="10" on="0"/>
        <pt x="766" y="92" on="0"/>
        <pt x="868" y="237" on="0"/>
        <pt x="922" y="439" on="0"/>
        <pt x="925" y="559" on="1"/>
        <pt x="911" y="617" on="0"/>
        <pt x="848" y="736" on="0"/>
        <pt x="749" y="834" on="0"/>
        <pt x="612" y="896" on="0"/>
        <pt x="524" y="896" on="1"/>
        <pt x="425" y="896" on="0"/>
        <pt x="275" y="827" on="0"/>
        <pt x="175" y="706" on="0"/>
        <pt x="124" y="541" on="0"/>
        <pt x="124" y="446" on="1"/>
        <pt x="124" y="343" on="0"/>
        <pt x="187" y="181" on="0"/>
        <pt x="295" y="69" on="0"/>
        <pt x="436" y="10" on="0"/>
      </contour>
    </TTGlyph>
    <TTGlyph name="exclam" xMin="240" yMin="-16" xMax="370" yMax="1400">
      <contour>
        <pt x="322" y="1400" on="1"/>
        <pt x="322" y="828" on="1"/>
        <pt x="322" y="784" on="0"/>
        <pt x="321" y="707" on="0"/>
        <pt x="320" y="627" on="0"/>
        <pt x="317" y="535" on="0"/>
        <pt x="316" y="476" on="1"/>
        <pt x="300" y="476" on="1"/>
        <pt x="298" y="535" on="0"/>
        <pt x="296" y="627" on="0"/>
        <pt x="295" y="707" on="0"/>
        <pt x="294" y="784" on="0"/>
        <pt x="294" y="828" on="1"/>
        <pt x="294" y="1400" on="1"/>
      </contour>
      <contour>
        <pt x="240" y="48" on="1"/>
        <pt x="240" y="75" on="0"/>
        <pt x="277" y="114" on="0"/>
        <pt x="304" y="114" on="1"/>
        <pt x="331" y="114" on="0"/>
        <pt x="370" y="75" on="0"/>
        <pt x="370" y="48" on="1"/>
        <pt x="370" y="21" on="0"/>
        <pt x="331" y="-16" on="0"/>
        <pt x="304" y="-16" on="1"/>
        <pt x="277" y="-16" on="0"/>
        <pt x="240" y="21" on="0"/>
      </contour>
    </TTGlyph>
    <TTGlyph name="exclamdown" xMin="240" yMin="-360" xMax="370" yMax="996">
      <contour>
        <pt x="294" y="-360" on="1"/>
        <pt x="294" y="198" on="1"/>
        <pt x="294" y="242" on="0"/>
        <pt x="295" y="319" on="0"/>
        <pt x="296" y="399" on="0"/>
        <pt x="298" y="491" on="0"/>
        <pt x="300" y="550" on="1"/>
        <pt x="316" y="550" on="1"/>
        <pt x="317" y="491" on="0"/>
        <pt x="320" y="399" on="0"/>
        <pt x="321" y="319" on="0"/>
        <pt x="322" y="242" on="0"/>
        <pt x="322" y="198" on="1"/>
        <pt x="322" y="-360" on="1"/>
      </contour>
      <contour>
        <pt x="240" y="932" on="1"/>
        <pt x="240" y="959" on="0"/>
        <pt x="277" y="996" on="0"/>
        <pt x="304" y="996" on="1"/>
        <pt x="331" y="996" on="0"/>
        <pt x="370" y="959" on="0"/>
        <pt x="370" y="932" on="1"/>
        <pt x="370" y="905" on="0"/>
        <pt x="331" y="866" on="0"/>
        <pt x="304" y="866" on="1"/>
        <pt x="277" y="866" on="0"/>
        <pt x="240" y="905" on="0"/>
      </contour>
    </TTGlyph>
    <TTGlyph name="f" xMin="34" yMin="0" xMax="590" yMax="1414">
      <contour>
        <pt x="210" y="0" on="1"/>
        <pt x="210" y="918" on="1"/>
        <pt x="46" y="922" on="1"/>
        <pt x="34" y="922" on="0"/>
        <pt x="34" y="930" on="1"/>
        <pt x="34" y="938" on="1"/>
        <pt x="210" y="938" on="1"/>
        <pt x="210" y="1088" on="1"/>
        <pt x="210" y="1172" on="0"/>
        <pt x="250" y="1295" on="0"/>
        <pt x="321" y="1375" on="0"/>
        <pt x="419" y="1414" on="0"/>
        <pt x="478" y="1414" on="1"/>
        <pt x="507" y="1414" on="0"/>
        <pt x="569" y="1403" on="0"/>
        <pt x="590" y="1392" on="1"/>
        <pt x="588" y="1384" on="1"/>
        <pt x="586" y="1378" on="0"/>
        <pt x="581" y="1378" on="1"/>
        <pt x="571" y="1378" on="0"/>
        <pt x="524" y="1394" on="0"/>
        <pt x="478" y="1394" on="1"/>
        <pt x="426" y="1394" on="0"/>
        <pt x="337" y="1361" on="0"/>
        <pt x="271" y="1288" on="0"/>
        <pt x="234" y="1171" on="0"/>
        <pt x="234" y="1088" on="1"/>
        <pt x="234" y="938" on="1"/>
        <pt x="584" y="938" on="1"/>
        <pt x="584" y="918" on="1"/>
        <pt x="234" y="918" on="1"/>
        <pt x="234" y="0" on="1"/>
      </contour>
    </TTGlyph>
    <TTGlyph name="fi" xMin="34" yMin="0" xMax="792" yMax="1424">
      <contour>
        <pt x="210" y="0" on="1"/>
        <pt x="210" y="918" on="1"/>
        <pt x="46" y="922" on="1"/>
        <pt x="34" y="922" on="0"/>
        <pt x="34" y="930" on="1"/>
        <pt x="34" y="938" on="1"/>
        <pt x="210" y="938" on="1"/>
        <pt x="210" y="1048" on="1"/>
        <pt x="210" y="1139" on="0"/>
        <pt x="261" y="1280" on="0"/>
        <pt x="353" y="1375" on="0"/>
        <pt x="481" y="1424" on="0"/>
        <pt x="558" y="1424" on="1"/>
        <pt x="587" y="1424" on="0"/>
        <pt x="649" y="1413" on="0"/>
        <pt x="670" y="1402" on="1"/>
        <pt x="668" y="1394" on="1"/>
        <pt x="667" y="1389" on="0"/>
        <pt x="661" y="1389" on="1"/>
        <pt x="652" y="1389" on="0"/>
        <pt x="605" y="1404" on="0"/>
        <pt x="558" y="1404" on="1"/>
        <pt x="487" y="1404" on="0"/>
        <pt x="369" y="1361" on="0"/>
        <pt x="282" y="1273" on="0"/>
        <pt x="234" y="1139" on="0"/>
        <pt x="234" y="1048" on="1"/>
        <pt x="234" y="938" on="1"/>
        <pt x="792" y="938" on="1"/>
        <pt x="792" y="0" on="1"/>
        <pt x="768" y="0" on="1"/>
        <pt x="768" y="918" on="1"/>
        <pt x="234" y="918" on="1"/>
        <pt x="234" y="0" on="1"/>
      </contour>
    </TTGlyph>
    <TTGlyph name="five" xMin="182" yMin="-16" xMax="988" yMax="1400">
      <contour>
        <pt x="956" y="1390" on="1"/>
        <pt x="956" y="1385" on="0"/>
        <pt x="948" y="1378" on="0"/>
        <pt x="942" y="1378" on="1"/>
        <pt x="376" y="1378" on="1"/>
        <pt x="275" y="823" on="1"/>
        <pt x="351" y="843" on="0"/>
        <pt x="487" y="861" on="0"/>
        <pt x="547" y="861" on="1"/>
        <pt x="656" y="861" on="0"/>
        <pt x="821" y="800" on="0"/>
        <pt x="932" y="691" on="0"/>
        <pt x="988" y="538" on="0"/>
        <pt x="988" y="446" on="1"/>
        <pt x="988" y="336" on="0"/>
        <pt x="912" y="164" on="0"/>
        <pt x="784" y="46" on="0"/>
        <pt x="615" y="-16" on="0"/>
        <pt x="522" y="-16" on="1"/>
        <pt x="468" y="-16" on="0"/>
        <pt x="368" y="2" on="0"/>
        <pt x="281" y="31" on="0"/>
        <pt x="209" y="68" on="0"/>
        <pt x="182" y="88" on="1"/>
        <pt x="188" y="96" on="1"/>
        <pt x="192" y="102" on="0"/>
        <pt x="200" y="102" on="1"/>
        <pt x="207" y="102" on="0"/>
        <pt x="255" y="73" on="0"/>
        <pt x="336" y="37" on="0"/>
        <pt x="449" y="8" on="0"/>
        <pt x="522" y="8" on="1"/>
        <pt x="611" y="8" on="0"/>
        <pt x="771" y="65" on="0"/>
        <pt x="891" y="176" on="0"/>
        <pt x="962" y="341" on="0"/>
        <pt x="962" y="448" on="1"/>
        <pt x="962" y="533" on="0"/>
        <pt x="913" y="677" on="0"/>
        <pt x="811" y="782" on="0"/>
        <pt x="654" y="841" on="0"/>
        <pt x="547" y="841" on="1"/>
        <pt x="487" y="841" on="0"/>
        <pt x="348" y="822" on="0"/>
        <pt x="268" y="802" on="1"/>
        <pt x="250" y="810" on="1"/>
        <pt x="356" y="1400" on="1"/>
        <pt x="956" y="1400" on="1"/>
      </contour>
    </TTGlyph>
    <TTGlyph name="fl" xMin="34" yMin="0" xMax="852" yMax="1422">
      <contour>
        <pt x="210" y="0" on="1"/>
        <pt x="210" y="918" on="1"/>
        <pt x="46" y="922" on="1"/>
        <pt x="34" y="922" on="0"/>
        <pt x="34" y="930" on="1"/>
        <pt x="34" y="938" on="1"/>
        <pt x="210" y="938" on="1"/>
        <pt x="210" y="1014" on="1"/>
        <pt x="210" y="1105" on="0"/>
        <pt x="262" y="1256" on="0"/>
        <pt x="360" y="1363" on="0"/>
        <pt x="502" y="1422" on="0"/>
        <pt x="592" y="1422" on="1"/>
        <pt x="658" y="1422" on="0"/>
        <pt x="787" y="1408" on="0"/>
        <pt x="840" y="1408" on="1"/>
        <pt x="852" y="1408" on="1"/>
        <pt x="852" y="0" on="1"/>
        <pt x="828" y="0" on="1"/>
        <pt x="828" y="1392" on="1"/>
        <pt x="777" y="1393" on="0"/>
        <pt x="650" y="1402" on="0"/>
        <pt x="592" y="1402" on="1"/>
        <pt x="507" y="1402" on="0"/>
        <pt x="374" y="1347" on="0"/>
        <pt x="282" y="1246" on="0"/>
        <pt x="234" y="1102" on="0"/>
        <pt x="234" y="1014" on="1"/>
        <pt x="234" y="938" on="1"/>
        <pt x="544" y="938" on="1"/>
        <pt x="544" y="918" on="1"/>
        <pt x="234" y="918" on="1"/>
        <pt x="234" y="0" on="1"/>
      </contour>
    </TTGlyph>
    <TTGlyph name="florin" xMin="128" yMin="-368" xMax="988" yMax="1414">
      <contour>
        <pt x="601" y="822" on="1"/>
        <pt x="500" y="-8" on="1"/>
        <pt x="489" y="-102" on="0"/>
        <pt x="424" y="-238" on="0"/>
        <pt x="326" y="-326" on="0"/>
        <pt x="200" y="-368" on="0"/>
        <pt x="128" y="-368" on="1"/>
        <pt x="128" y="-358" on="1"/>
        <pt x="128" y="-348" on="0"/>
        <pt x="144" y="-348" on="1"/>
        <pt x="200" y="-347" on="0"/>
        <pt x="310" y="-311" on="0"/>
        <pt x="400" y="-231" on="0"/>
        <pt x="465" y="-103" on="0"/>
        <pt x="476" y="-8" on="1"/>
        <pt x="577" y="822" on="1"/>
        <pt x="352" y="826" on="1"/>
        <pt x="340" y="826" on="0"/>
        <pt x="340" y="834" on="1"/>
        <pt x="340" y="842" on="1"/>
        <pt x="580" y="842" on="1"/>
        <pt x="606" y="1054" on="1"/>
        <pt x="617" y="1148" on="0"/>
        <pt x="679" y="1284" on="0"/>
        <pt x="775" y="1372" on="0"/>
        <pt x="902" y="1414" on="0"/>
        <pt x="978" y="1414" on="1"/>
        <pt x="978" y="1404" on="1"/>
        <pt x="978" y="1394" on="0"/>
        <pt x="962" y="1394" on="1"/>
        <pt x="903" y="1394" on="0"/>
        <pt x="794" y="1359" on="0"/>
        <pt x="705" y="1278" on="0"/>
        <pt x="642" y="1148" on="0"/>
        <pt x="630" y="1054" on="1"/>
        <pt x="603" y="842" on="1"/>
        <pt x="988" y="842" on="1"/>
        <pt x="988" y="822" on="1"/>
      </contour>
    </TTGlyph>
    <TTGlyph name="four" xMin="82" yMin="0" xMax="1116" yMax="1402">
      <contour>
        <pt x="820" y="452" on="1"/>
        <pt x="1116" y="452" on="1"/>
        <pt x="1116" y="444" on="1"/>
        <pt x="1116" y="432" on="0"/>
        <pt x="1100" y="432" on="1"/>
        <pt x="820" y="432" on="1"/>
        <pt x="820" y="0" on="1"/>
        <pt x="796" y="0" on="1"/>
        <pt x="796" y="432" on="1"/>
        <pt x="102" y="432" on="1"/>
        <pt x="91" y="432" on="0"/>
        <pt x="86" y="437" on="0"/>
        <pt x="84" y="442" on="1"/>
        <pt x="82" y="450" on="1"/>
        <pt x="806" y="1402" on="1"/>
        <pt x="820" y="1402" on="1"/>
      </contour>
      <contour>
        <pt x="796" y="1322" on="1"/>
        <pt x="796" y="1330" on="0"/>
        <pt x="796" y="1348" on="0"/>
        <pt x="798" y="1357" on="1"/>
        <pt x="110" y="452" on="1"/>
        <pt x="796" y="452" on="1"/>
      </contour>
    </TTGlyph>
    <TTGlyph name="fraction" xMin="-214" yMin="0" xMax="602" yMax="1400">
      <contour>
        <pt x="-182" y="12" on="1"/>
        <pt x="-187" y="4" on="0"/>
        <pt x="-198" y="0" on="0"/>
        <pt x="-204" y="0" on="1"/>
        <pt x="-214" y="0" on="1"/>
        <pt x="570" y="1388" on="1"/>
        <pt x="576" y="1400" on="0"/>
        <pt x="590" y="1400" on="1"/>
        <pt x="602" y="1400" on="1"/>
      </contour>
    </TTGlyph>
</ttFont>
